<svg width="58" height="24" viewBox="0 0 58 24" fill="none" xmlns="http://www.w3.org/2000/svg">
<path fill-rule="evenodd" clip-rule="evenodd" d="M0.99601 23.999C3.0191 20.6027 7.48584 15.518 13.7953 15.691C14.1297 13.465 15.6366 9.96257 18.0596 8.55702C19.2226 7.88235 20.523 7.55064 21.8252 7.21846C24.9231 6.42824 28.0314 5.63534 29.3265 0.216157C29.3474 0.144639 29.4101 0.00159961 29.4937 0.0015996L29.4937 23.999L0.99601 23.999ZM29.5014 23.999L29.5014 0.000165278C29.585 0.000165274 29.6477 0.143205 29.6686 0.214723C30.9637 5.6339 34.0721 6.4268 37.1699 7.21703C38.4721 7.54921 39.7725 7.88091 40.9356 8.55559C43.3585 9.96113 44.8654 13.4636 45.1999 15.6896C51.5102 15.5165 55.9773 20.6027 58 23.999L29.5014 23.999Z" fill="#DFCCB3"/>
</svg>
