<svg width="17" height="18" viewBox="0 0 17 18" fill="none" xmlns="http://www.w3.org/2000/svg">
<path d="M13.543 5.2064C13.52 6.65899 13.02 8.62572 10.676 9.38826C11.41 7.70082 11.522 6.08588 11.002 4.57627C10.307 2.54962 7.988 0.966561 6.445 0.104482C5.918 -0.191253 5.242 0.176 5.252 0.764572C5.272 1.83927 4.934 3.40976 3.293 4.99572C1.107 7.10645 0 9.28775 0 11.4777C0 14.2273 2 17.7433 6 17.7433C0.5 10.1478 7.5 5.2064 7.5 5.2064C5 12.4431 9.988 17.7433 12 17.7433C13.711 17.7433 17 16.5352 17 11.5116C17 8.48365 15.668 6.18542 14.615 4.84398C14.268 4.40134 13.551 4.65262 13.543 5.2064Z" fill="#2B39A1"/>
<path opacity="0.4" d="M14.9999 15.9469C13.5001 17.3966 13.686 17.4733 12.0001 17.7644C9.39813 18.2136 5.91032 17.9831 5.00008 17.3966C5.00008 17.3966 3.99997 16.4301 3.00073 14.9805C1.23845 12.4238 4.35786 3.86621 8.5 3.86621C7.50001 10.1482 16.3667 14.6259 14.9999 15.9469Z" fill="#2B39A1"/>
</svg>
