<svg width="17" height="17" viewBox="0 0 17 17" fill="none" xmlns="http://www.w3.org/2000/svg">
<path d="M15.584 4.60449H11.334" stroke="black" stroke-width="1.5" stroke-miterlimit="10" stroke-linecap="round" stroke-linejoin="round"/>
<path d="M11.3333 4.60449H8.5" stroke="black" stroke-width="1.5" stroke-miterlimit="10" stroke-linecap="round" stroke-linejoin="round"/>
<path d="M3.89714 7.08333C5.26634 7.08333 6.3763 5.97337 6.3763 4.60417C6.3763 3.23496 5.26634 2.125 3.89714 2.125C2.52793 2.125 1.41797 3.23496 1.41797 4.60417C1.41797 5.97337 2.52793 7.08333 3.89714 7.08333Z" stroke="black" stroke-width="1.5" stroke-miterlimit="10" stroke-linecap="round" stroke-linejoin="round"/>
<path d="M8.5013 12.3955H5.66797" stroke="black" stroke-width="1.5" stroke-miterlimit="10" stroke-linecap="round" stroke-linejoin="round"/>
<path d="M5.66797 12.3955H1.41797" stroke="black" stroke-width="1.5" stroke-miterlimit="10" stroke-linecap="round" stroke-linejoin="round"/>
<path d="M13.1042 14.8753C14.4734 14.8753 15.5833 13.7654 15.5833 12.3962C15.5833 11.027 14.4734 9.91699 13.1042 9.91699C11.735 9.91699 10.625 11.027 10.625 12.3962C10.625 13.7654 11.735 14.8753 13.1042 14.8753Z" stroke="black" stroke-width="1.5" stroke-miterlimit="10" stroke-linecap="round" stroke-linejoin="round"/>
</svg>
