<svg width="24" height="28" viewBox="0 0 24 28" fill="none" xmlns="http://www.w3.org/2000/svg">
<mask id="path-1-inside-1_1925_597" fill="white">
<path fill-rule="evenodd" clip-rule="evenodd" d="M12.0029 6.30386C11.9932 6.30376 11.9836 6.30371 11.9739 6.30371C10.7667 6.30371 9.71189 7.06553 7.60224 8.58917L3.56571 11.5044C2.04812 12.6005 1.28933 13.1485 0.880017 13.949C0.470703 14.7495 0.470703 15.6855 0.470703 17.5575V19.8532C0.470703 23.373 0.470703 25.1329 1.56417 26.2264C2.65764 27.3199 4.41755 27.3199 7.93737 27.3199H16.0104C19.5303 27.3199 21.2902 27.3199 22.3836 26.2264C23.4771 25.1329 23.4771 23.373 23.4771 19.8532V17.5575C23.4771 15.6855 23.4771 14.7495 23.0678 13.949C22.6585 13.1485 21.8997 12.6005 20.3821 11.5044L17.9019 9.71318C17.5975 9.84597 17.2745 9.94402 16.9378 10.0023L19.9144 12.152C20.6846 12.7083 21.2194 13.0955 21.6166 13.4406C22.0018 13.7752 22.2144 14.0347 22.3565 14.3127C22.4987 14.5907 22.5846 14.9149 22.6303 15.4231C22.6775 15.9472 22.6783 16.6075 22.6783 17.5575V19.8532C22.6783 21.6357 22.6766 22.8922 22.5487 23.8433C22.4239 24.7713 22.1924 25.288 21.8188 25.6616C21.4452 26.0351 20.9285 26.2667 20.0005 26.3915C19.0494 26.5194 17.7929 26.5211 16.0104 26.5211H7.93737C6.15488 26.5211 4.89837 26.5194 3.94733 26.3915C3.01927 26.2667 2.5026 26.0351 2.12903 25.6616C1.75546 25.288 1.52387 24.7713 1.3991 23.8433C1.27123 22.8922 1.26954 21.6357 1.26954 19.8532V17.5575C1.26954 16.6075 1.27028 15.9472 1.31748 15.4231C1.36325 14.9149 1.44912 14.5907 1.59127 14.3127C1.73342 14.0347 1.946 13.7752 2.33118 13.4406C2.72838 13.0955 3.26323 12.7083 4.03342 12.152L8.06995 9.23676C9.13971 8.46416 9.88829 7.92501 10.5176 7.5716C11.129 7.22826 11.5571 7.10254 11.9739 7.10254C12.0402 7.10254 12.1067 7.10573 12.1742 7.11245C12.0919 6.85286 12.0338 6.58244 12.0029 6.30386Z"/>
</mask>
<path fill-rule="evenodd" clip-rule="evenodd" d="M12.0029 6.30386C11.9932 6.30376 11.9836 6.30371 11.9739 6.30371C10.7667 6.30371 9.71189 7.06553 7.60224 8.58917L3.56571 11.5044C2.04812 12.6005 1.28933 13.1485 0.880017 13.949C0.470703 14.7495 0.470703 15.6855 0.470703 17.5575V19.8532C0.470703 23.373 0.470703 25.1329 1.56417 26.2264C2.65764 27.3199 4.41755 27.3199 7.93737 27.3199H16.0104C19.5303 27.3199 21.2902 27.3199 22.3836 26.2264C23.4771 25.1329 23.4771 23.373 23.4771 19.8532V17.5575C23.4771 15.6855 23.4771 14.7495 23.0678 13.949C22.6585 13.1485 21.8997 12.6005 20.3821 11.5044L17.9019 9.71318C17.5975 9.84597 17.2745 9.94402 16.9378 10.0023L19.9144 12.152C20.6846 12.7083 21.2194 13.0955 21.6166 13.4406C22.0018 13.7752 22.2144 14.0347 22.3565 14.3127C22.4987 14.5907 22.5846 14.9149 22.6303 15.4231C22.6775 15.9472 22.6783 16.6075 22.6783 17.5575V19.8532C22.6783 21.6357 22.6766 22.8922 22.5487 23.8433C22.4239 24.7713 22.1924 25.288 21.8188 25.6616C21.4452 26.0351 20.9285 26.2667 20.0005 26.3915C19.0494 26.5194 17.7929 26.5211 16.0104 26.5211H7.93737C6.15488 26.5211 4.89837 26.5194 3.94733 26.3915C3.01927 26.2667 2.5026 26.0351 2.12903 25.6616C1.75546 25.288 1.52387 24.7713 1.3991 23.8433C1.27123 22.8922 1.26954 21.6357 1.26954 19.8532V17.5575C1.26954 16.6075 1.27028 15.9472 1.31748 15.4231C1.36325 14.9149 1.44912 14.5907 1.59127 14.3127C1.73342 14.0347 1.946 13.7752 2.33118 13.4406C2.72838 13.0955 3.26323 12.7083 4.03342 12.152L8.06995 9.23676C9.13971 8.46416 9.88829 7.92501 10.5176 7.5716C11.129 7.22826 11.5571 7.10254 11.9739 7.10254C12.0402 7.10254 12.1067 7.10573 12.1742 7.11245C12.0919 6.85286 12.0338 6.58244 12.0029 6.30386Z" fill="#BF9A66"/>
<path d="M12.0029 6.30386L12.9305 6.20071L12.8391 5.37894L12.0123 5.37057L12.0029 6.30386ZM7.60224 8.58917L8.1487 9.3458L7.60224 8.58917ZM3.56571 11.5044L4.11217 12.2611L3.56571 11.5044ZM0.880017 13.949L1.71102 14.3739H1.71102L0.880017 13.949ZM1.56417 26.2264L0.904204 26.8864L0.904205 26.8864L1.56417 26.2264ZM22.3836 26.2264L23.0436 26.8864H23.0436L22.3836 26.2264ZM23.0678 13.949L22.2368 14.3739V14.3739L23.0678 13.949ZM20.3821 11.5044L19.8356 12.2611V12.2611L20.3821 11.5044ZM17.9019 9.71318L18.4484 8.95655L18.0167 8.64481L17.5287 8.85771L17.9019 9.71318ZM16.9378 10.0023L16.7786 9.08264L14.594 9.46085L16.3914 10.7589L16.9378 10.0023ZM19.9144 12.152L20.4608 11.3954V11.3954L19.9144 12.152ZM21.6166 13.4406L22.2288 12.736L22.2288 12.736L21.6166 13.4406ZM22.3565 14.3127L21.5255 14.7376L21.5255 14.7376L22.3565 14.3127ZM22.6303 15.4231L21.7008 15.5068V15.5068L22.6303 15.4231ZM22.5487 23.8433L21.6237 23.7189V23.7189L22.5487 23.8433ZM20.0005 26.3915L20.1248 27.3165H20.1248L20.0005 26.3915ZM3.94733 26.3915L3.82297 27.3165H3.82297L3.94733 26.3915ZM1.3991 23.8433L2.32411 23.7189L1.3991 23.8433ZM1.31748 15.4231L0.38791 15.3394L0.38791 15.3394L1.31748 15.4231ZM1.59127 14.3127L0.760264 13.8878L0.760263 13.8878L1.59127 14.3127ZM2.33118 13.4406L1.71905 12.736L1.71905 12.736L2.33118 13.4406ZM4.03342 12.152L3.48696 11.3954L3.48696 11.3954L4.03342 12.152ZM8.06995 9.23676L7.52349 8.48013V8.48013L8.06995 9.23676ZM10.5176 7.5716L10.0606 6.7578V6.7578L10.5176 7.5716ZM12.1742 7.11245L12.0817 8.04119L13.4926 8.18165L13.0638 6.8302L12.1742 7.11245ZM12.0123 5.37057C11.9995 5.37044 11.9867 5.37038 11.9739 5.37038V7.23704C11.9804 7.23704 11.9869 7.23708 11.9934 7.23714L12.0123 5.37057ZM11.9739 5.37038C11.1521 5.37038 10.426 5.63647 9.6695 6.06128C8.93398 6.47431 8.09316 7.08332 7.05578 7.83253L8.1487 9.3458C9.22098 8.57138 9.96239 8.03765 10.5835 7.68887C11.1836 7.35186 11.5885 7.23704 11.9739 7.23704V5.37038ZM7.05578 7.83253L3.01925 10.7478L4.11217 12.2611L8.1487 9.3458L7.05578 7.83253ZM3.01925 10.7478C2.27377 11.2862 1.66467 11.725 1.19513 12.133C0.71155 12.5531 0.326699 12.981 0.0490118 13.5241L1.71102 14.3739C1.84265 14.1165 2.04185 13.8701 2.41939 13.5421C2.81097 13.2019 3.34006 12.8187 4.11217 12.2611L3.01925 10.7478ZM0.049012 13.5241C-0.228676 14.0672 -0.350238 14.6297 -0.407703 15.2677C-0.463499 15.8872 -0.46263 16.6379 -0.46263 17.5575H1.40404C1.40404 16.6051 1.40491 15.9518 1.45144 15.4352C1.4963 14.9371 1.5794 14.6313 1.71102 14.3739L0.049012 13.5241ZM-0.46263 17.5575V19.8532H1.40404V17.5575H-0.46263ZM-0.46263 19.8532C-0.46263 21.5867 -0.464612 22.9808 -0.317624 24.0741C-0.167026 25.1942 0.155153 26.1373 0.904204 26.8864L2.22414 25.5665C1.87972 25.222 1.65517 24.7385 1.5324 23.8253C1.40602 22.8853 1.40404 21.6395 1.40404 19.8532H-0.46263ZM0.904205 26.8864C1.65326 27.6354 2.59639 27.9576 3.71652 28.1082C4.80981 28.2552 6.20385 28.2532 7.93737 28.2532V26.3866C6.15107 26.3866 4.90524 26.3846 3.96525 26.2582C3.05211 26.1354 2.56855 25.9109 2.22414 25.5665L0.904205 26.8864ZM7.93737 28.2532H16.0104V26.3866H7.93737V28.2532ZM16.0104 28.2532C17.744 28.2532 19.138 28.2552 20.2313 28.1082C21.3514 27.9576 22.2946 27.6354 23.0436 26.8864L21.7237 25.5665C21.3793 25.9109 20.8957 26.1354 19.9826 26.2582C19.0426 26.3846 17.7967 26.3866 16.0104 26.3866V28.2532ZM23.0436 26.8864C23.7927 26.1373 24.1148 25.1942 24.2654 24.0741C24.4124 22.9808 24.4104 21.5867 24.4104 19.8532H22.5438C22.5438 21.6395 22.5418 22.8853 22.4154 23.8253C22.2926 24.7385 22.0681 25.222 21.7237 25.5665L23.0436 26.8864ZM24.4104 19.8532V17.5575H22.5438V19.8532H24.4104ZM24.4104 17.5575C24.4104 16.6379 24.4113 15.8872 24.3555 15.2677C24.298 14.6297 24.1765 14.0672 23.8988 13.5241L22.2368 14.3739C22.3684 14.6313 22.4515 14.9371 22.4964 15.4352C22.5429 15.9518 22.5438 16.6051 22.5438 17.5575H24.4104ZM23.8988 13.5241C23.6211 12.981 23.2363 12.5531 22.7527 12.133C22.2831 11.725 21.674 11.2862 20.9286 10.7478L19.8356 12.2611C20.6077 12.8187 21.1368 13.2019 21.5284 13.5421C21.906 13.8701 22.1052 14.1165 22.2368 14.3739L23.8988 13.5241ZM20.9286 10.7478L18.4484 8.95655L17.3554 10.4698L19.8356 12.2611L20.9286 10.7478ZM17.5287 8.85771C17.2919 8.96102 17.0406 9.03728 16.7786 9.08264L17.097 10.922C17.5083 10.8507 17.9031 10.7309 18.2751 10.5687L17.5287 8.85771ZM20.4608 11.3954L17.4843 9.24566L16.3914 10.7589L19.3679 12.9087L20.4608 11.3954ZM22.2288 12.736C21.7925 12.357 21.2174 11.9418 20.4608 11.3954L19.3679 12.9087C20.1517 13.4747 20.6463 13.834 21.0045 14.1451L22.2288 12.736ZM23.1875 13.8878C22.9724 13.4669 22.6669 13.1167 22.2288 12.736L21.0045 14.1451C21.3367 14.4338 21.4564 14.6024 21.5255 14.7376L23.1875 13.8878ZM23.5599 15.3394C23.5078 14.7613 23.4027 14.3086 23.1875 13.8878L21.5255 14.7376C21.5946 14.8727 21.6613 15.0686 21.7008 15.5068L23.5599 15.3394ZM23.6116 17.5575C23.6116 16.6242 23.6117 15.9149 23.5599 15.3394L21.7008 15.5068C21.7433 15.9794 21.7449 16.5907 21.7449 17.5575H23.6116ZM23.6116 19.8532V17.5575H21.7449V19.8532H23.6116ZM23.4737 23.9676C23.6119 22.9398 23.6116 21.6089 23.6116 19.8532H21.7449C21.7449 21.6625 21.7412 22.8446 21.6237 23.7189L23.4737 23.9676ZM22.4787 26.3215C23.0544 25.7459 23.335 24.9997 23.4737 23.9676L21.6237 23.7189C21.5129 24.5429 21.3303 24.8301 21.1588 25.0016L22.4787 26.3215ZM20.1248 27.3165C21.1569 27.1777 21.9031 26.8972 22.4787 26.3215L21.1588 25.0016C20.9873 25.1731 20.7002 25.3557 19.8761 25.4665L20.1248 27.3165ZM16.0104 27.4544C17.7661 27.4544 19.0971 27.4547 20.1248 27.3165L19.8761 25.4665C19.0018 25.584 17.8198 25.5877 16.0104 25.5877V27.4544ZM7.93737 27.4544H16.0104V25.5877H7.93737V27.4544ZM3.82297 27.3165C4.85075 27.4547 6.1817 27.4544 7.93737 27.4544V25.5877C6.12805 25.5877 4.94598 25.584 4.0717 25.4665L3.82297 27.3165ZM1.46907 26.3215C2.04472 26.8972 2.79091 27.1777 3.82297 27.3165L4.0717 25.4665C3.24764 25.3557 2.96049 25.1731 2.789 25.0016L1.46907 26.3215ZM0.474086 23.9676C0.612843 24.9997 0.893415 25.7459 1.46907 26.3215L2.789 25.0016C2.61751 24.8301 2.4349 24.5429 2.32411 23.7189L0.474086 23.9676ZM0.336203 19.8532C0.336203 21.6089 0.335904 22.9398 0.474086 23.9676L2.32411 23.7189C2.20656 22.8446 2.20287 21.6625 2.20287 19.8532H0.336203ZM0.336203 17.5575V19.8532H2.20287V17.5575H0.336203ZM0.38791 15.3394C0.336071 15.9149 0.336203 16.6242 0.336203 17.5575H2.20287C2.20287 16.5907 2.20449 15.9794 2.24705 15.5068L0.38791 15.3394ZM0.760263 13.8878C0.545065 14.3087 0.439977 14.7613 0.38791 15.3394L2.24705 15.5068C2.28653 15.0686 2.35317 14.8727 2.42227 14.7376L0.760263 13.8878ZM1.71905 12.736C1.28089 13.1167 0.975462 13.4669 0.760264 13.8878L2.42227 14.7376C2.49138 14.6024 2.61111 14.4338 2.94331 14.1451L1.71905 12.736ZM3.48696 11.3954C2.73037 11.9418 2.15529 12.357 1.71905 12.736L2.94331 14.1451C3.30146 13.834 3.79609 13.4747 4.57987 12.9087L3.48696 11.3954ZM7.52349 8.48013L3.48696 11.3954L4.57987 12.9087L8.61641 9.9934L7.52349 8.48013ZM10.0606 6.7578C9.374 7.14339 8.57547 7.72037 7.52349 8.48013L8.61641 9.9934C9.70396 9.20795 10.4026 8.70663 10.9746 8.3854L10.0606 6.7578ZM11.9739 6.16921C11.3389 6.16921 10.7503 6.37051 10.0606 6.7578L10.9746 8.3854C11.5078 8.08601 11.7752 8.03588 11.9739 8.03588V6.16921ZM12.2667 6.1837C12.1677 6.17385 12.0703 6.16921 11.9739 6.16921V8.03588C12.0101 8.03588 12.0457 8.0376 12.0817 8.04119L12.2667 6.1837ZM13.0638 6.8302C12.9998 6.62838 12.9546 6.41792 12.9305 6.20071L11.0753 6.40701C11.1131 6.74696 11.1839 7.07735 11.2846 7.3947L13.0638 6.8302Z" fill="#1D266C" mask="url(#path-1-inside-1_1925_597)"/>
<mask id="mask0_1925_597" style="mask-type:alpha" maskUnits="userSpaceOnUse" x="0" y="5" width="24" height="23">
<path d="M0.93737 17.2355C0.93737 15.4723 0.94768 14.7378 1.24578 14.1014C1.54388 13.4649 2.10148 12.9868 3.45608 11.858L7.49261 8.49422C8.64452 7.53429 9.47611 6.84239 10.1865 6.38547C10.8861 5.93554 11.4213 5.74539 11.9739 5.74539C12.5265 5.74539 13.0617 5.93554 13.7613 6.38547C14.4717 6.84239 15.3033 7.53429 16.4552 8.49422L20.4917 11.858C21.8463 12.9868 22.4039 13.4649 22.702 14.1014C23.0001 14.7378 23.0104 15.4723 23.0104 17.2355V19.8519C23.0104 21.625 23.0095 22.9078 22.8779 23.8862C22.7482 24.851 22.4992 25.4495 22.0537 25.8951C21.6081 26.3406 21.0096 26.5896 20.0447 26.7193C19.0664 26.8509 17.7835 26.8519 16.0104 26.8519H7.93737C6.16427 26.8519 4.88139 26.8509 3.90307 26.7193C2.93818 26.5896 2.33973 26.3406 1.89415 25.8951C1.44858 25.4495 1.19962 24.851 1.06989 23.8862C0.938361 22.9078 0.93737 21.625 0.93737 19.8519V17.2355Z" fill="#C4C4C4" stroke="#1D266C" stroke-width="0.933333"/>
</mask>
<g mask="url(#mask0_1925_597)">
<path d="M0.93737 30.4963C0.93737 28.733 0.94768 27.9986 1.24578 27.3621C1.54388 26.7257 2.10148 26.2476 3.45608 25.1187L7.49261 21.755C8.64452 20.795 9.47611 20.1031 10.1865 19.6462C10.8861 19.1963 11.4213 19.0061 11.9739 19.0061C12.5265 19.0061 13.0617 19.1963 13.7613 19.6462C14.4717 20.1031 15.3033 20.795 16.4552 21.755L20.4917 25.1187C21.8463 26.2476 22.4039 26.7257 22.702 27.3621C23.0001 27.9986 23.0104 28.733 23.0104 30.4963V33.1126C23.0104 34.8857 23.0095 36.1686 22.8779 37.1469C22.7482 38.1118 22.4992 38.7102 22.0537 39.1558C21.6081 39.6014 21.0096 39.8503 20.0447 39.9801C19.0664 40.1116 17.7835 40.1126 16.0104 40.1126H7.93737C6.16427 40.1126 4.88139 40.1116 3.90307 39.9801C2.93818 39.8503 2.33973 39.6014 1.89415 39.1558C1.44858 38.7102 1.19962 38.1118 1.06989 37.1469C0.938361 36.1686 0.93737 34.8857 0.93737 33.1126V30.4963Z" stroke="#1D266C" stroke-width="0.933333"/>
</g>
<mask id="mask1_1925_597" style="mask-type:alpha" maskUnits="userSpaceOnUse" x="0" y="6" width="24" height="22">
<path d="M0.93737 18.0701C0.93737 17.6771 0.937477 17.4948 0.945133 17.3218C1.03846 15.2139 1.96769 13.2299 3.52732 11.8087C3.65528 11.6921 3.79528 11.5753 4.09719 11.3237L4.90849 10.6477C6.80938 9.06358 7.69496 8.3305 8.60856 7.90253C10.7409 6.90364 13.2069 6.90364 15.3393 7.90253C16.2529 8.3305 17.1384 9.06358 19.0393 10.6477L19.8506 11.3237C20.1525 11.5753 20.2925 11.6921 20.4205 11.8087C21.9801 13.2299 22.9094 15.2139 23.0027 17.3218C23.0103 17.4948 23.0104 17.6771 23.0104 18.0701C23.0104 18.8669 23.0101 19.238 22.9855 19.5472C22.6766 23.4325 19.5911 26.518 15.7058 26.8269C15.3966 26.8515 15.0255 26.8519 14.2287 26.8519H9.71914C8.92231 26.8519 8.55122 26.8515 8.24202 26.8269C4.35667 26.518 1.27119 23.4325 0.962319 19.5472C0.93774 19.238 0.93737 18.8669 0.93737 18.0701Z" fill="#C4C4C4" stroke="#1D266C" stroke-width="0.933333"/>
</mask>
<g mask="url(#mask1_1925_597)">
<mask id="path-6-inside-2_1925_597" fill="white">
<path fill-rule="evenodd" clip-rule="evenodd" d="M1.40599 10.4004L1.40599 7.78405C1.40599 5.99776 1.40797 4.75192 1.53435 3.81193C1.65712 2.89879 1.88167 2.41523 2.22609 2.07082C2.57051 1.7264 3.05406 1.50185 3.96721 1.37908C4.9072 1.2527 6.15303 1.25072 7.93932 1.25072L16.0124 1.25072C17.7987 1.25072 19.0445 1.2527 19.9845 1.37908C20.8977 1.50185 21.3812 1.7264 21.7256 2.07082C22.07 2.41524 22.2946 2.89879 22.4174 3.81193C22.5437 4.75193 22.5457 5.99776 22.5457 7.78405V10.4004C22.5457 12.2072 22.5251 12.8162 22.2814 13.3366C22.0376 13.857 21.583 14.2627 20.1949 15.4194L16.1584 18.7832C15.6242 19.2284 15.1651 19.6105 14.7588 19.9359C14.9949 20.114 15.2447 20.3112 15.5121 20.5277C15.8883 20.2232 16.2993 19.8807 16.7559 19.5002L20.7924 16.1364C22.1136 15.0355 22.7741 14.485 23.1266 13.7325C23.4791 12.9799 23.4791 12.1201 23.4791 10.4004V7.78405C23.4791 4.26423 23.4791 2.50432 22.3856 1.41085C21.2921 0.317383 19.5322 0.317383 16.0124 0.317383H7.93932C4.4195 0.317383 2.65959 0.317383 1.56612 1.41085C0.472656 2.50432 0.472656 4.26423 0.472656 7.78405V10.4004C0.472656 12.1201 0.472656 12.9799 0.825122 13.7325C1.17759 14.485 1.83815 15.0355 3.15928 16.1364L7.19581 19.5002C7.6529 19.8811 8.06428 20.2239 8.44077 20.5286C8.70818 20.3122 8.95799 20.1149 9.19407 19.9369C8.78751 19.6112 8.32806 19.2288 7.79332 18.7832L3.75678 15.4194C2.36871 14.2627 1.91407 13.857 1.67034 13.3366C1.42661 12.8162 1.40599 12.2072 1.40599 10.4004Z"/>
</mask>
<path fill-rule="evenodd" clip-rule="evenodd" d="M1.40599 10.4004L1.40599 7.78405C1.40599 5.99776 1.40797 4.75192 1.53435 3.81193C1.65712 2.89879 1.88167 2.41523 2.22609 2.07082C2.57051 1.7264 3.05406 1.50185 3.96721 1.37908C4.9072 1.2527 6.15303 1.25072 7.93932 1.25072L16.0124 1.25072C17.7987 1.25072 19.0445 1.2527 19.9845 1.37908C20.8977 1.50185 21.3812 1.7264 21.7256 2.07082C22.07 2.41524 22.2946 2.89879 22.4174 3.81193C22.5437 4.75193 22.5457 5.99776 22.5457 7.78405V10.4004C22.5457 12.2072 22.5251 12.8162 22.2814 13.3366C22.0376 13.857 21.583 14.2627 20.1949 15.4194L16.1584 18.7832C15.6242 19.2284 15.1651 19.6105 14.7588 19.9359C14.9949 20.114 15.2447 20.3112 15.5121 20.5277C15.8883 20.2232 16.2993 19.8807 16.7559 19.5002L20.7924 16.1364C22.1136 15.0355 22.7741 14.485 23.1266 13.7325C23.4791 12.9799 23.4791 12.1201 23.4791 10.4004V7.78405C23.4791 4.26423 23.4791 2.50432 22.3856 1.41085C21.2921 0.317383 19.5322 0.317383 16.0124 0.317383H7.93932C4.4195 0.317383 2.65959 0.317383 1.56612 1.41085C0.472656 2.50432 0.472656 4.26423 0.472656 7.78405V10.4004C0.472656 12.1201 0.472656 12.9799 0.825122 13.7325C1.17759 14.485 1.83815 15.0355 3.15928 16.1364L7.19581 19.5002C7.6529 19.8811 8.06428 20.2239 8.44077 20.5286C8.70818 20.3122 8.95799 20.1149 9.19407 19.9369C8.78751 19.6112 8.32806 19.2288 7.79332 18.7832L3.75678 15.4194C2.36871 14.2627 1.91407 13.857 1.67034 13.3366C1.42661 12.8162 1.40599 12.2072 1.40599 10.4004Z" fill="#BF9A66"/>
<path d="M1.40599 7.78405H0.472655H1.40599ZM1.40599 10.4004H0.472655H1.40599ZM1.53435 3.81193L2.45936 3.9363L2.45936 3.9363L1.53435 3.81193ZM2.22609 2.07082L2.88606 2.73078L2.22609 2.07082ZM3.96721 1.37908L3.84284 0.454065L3.84284 0.454066L3.96721 1.37908ZM7.93932 1.25072V0.317382V1.25072ZM16.0124 1.25072V0.317383V1.25072ZM19.9845 1.37908L20.1089 0.454067L20.1089 0.454067L19.9845 1.37908ZM21.7256 2.07082L21.0657 2.73078L21.0657 2.73079L21.7256 2.07082ZM22.4174 3.81193L21.4924 3.9363V3.9363L22.4174 3.81193ZM20.1949 15.4194L20.7924 16.1364L20.1949 15.4194ZM16.1584 18.7832L15.5609 18.0662L16.1584 18.7832ZM14.7588 19.9359L14.1753 19.2075L13.2381 19.9582L14.1969 20.6812L14.7588 19.9359ZM15.5121 20.5277L14.9249 21.2531L15.5122 21.7284L16.0994 21.2531L15.5121 20.5277ZM16.7559 19.5002L17.3534 20.2172L16.7559 19.5002ZM20.7924 16.1364L20.1949 15.4194L20.7924 16.1364ZM23.1266 13.7325L23.9718 14.1283V14.1283L23.1266 13.7325ZM22.3856 1.41085L21.7256 2.07082L21.7256 2.07082L22.3856 1.41085ZM0.825122 13.7325L1.67034 13.3366L1.67034 13.3366L0.825122 13.7325ZM3.15928 16.1364L3.75678 15.4194H3.75678L3.15928 16.1364ZM7.19581 19.5002L6.59831 20.2172L7.19581 19.5002ZM8.44077 20.5286L7.85357 21.2541L8.44079 21.7294L9.02799 21.2541L8.44077 20.5286ZM9.19407 19.9369L9.75606 20.682L10.7147 19.9591L9.77757 19.2084L9.19407 19.9369ZM7.79332 18.7832L8.39082 18.0662H8.39082L7.79332 18.7832ZM3.75678 15.4194L4.35429 14.7024H4.35429L3.75678 15.4194ZM1.67034 13.3366L2.51556 12.9407L2.51555 12.9407L1.67034 13.3366ZM0.472655 7.78405L0.472655 10.4004H2.33932L2.33932 7.78405H0.472655ZM0.609339 3.68757C0.472639 4.70433 0.472655 6.02466 0.472655 7.78405H2.33932C2.33932 5.97085 2.3433 4.79952 2.45936 3.9363L0.609339 3.68757ZM1.56612 1.41085C1.01968 1.95729 0.746106 2.67031 0.609339 3.68757L2.45936 3.9363C2.56813 3.12727 2.74366 2.87318 2.88606 2.73078L1.56612 1.41085ZM3.84284 0.454066C2.82558 0.590834 2.11257 0.86441 1.56612 1.41085L2.88606 2.73078C3.02845 2.58839 3.28255 2.41286 4.09157 2.30409L3.84284 0.454066ZM7.93932 0.317382C6.17993 0.317382 4.8596 0.317368 3.84284 0.454065L4.09157 2.30409C4.9548 2.18803 6.12613 2.18405 7.93932 2.18405V0.317382ZM16.0124 0.317383L7.93932 0.317382V2.18405L16.0124 2.18405V0.317383ZM20.1089 0.454067C19.0921 0.317369 17.7718 0.317383 16.0124 0.317383V2.18405C17.8256 2.18405 18.9969 2.18803 19.8601 2.30409L20.1089 0.454067ZM22.3856 1.41086C21.8392 0.864411 21.1261 0.590836 20.1089 0.454067L19.8601 2.30409C20.6692 2.41286 20.9233 2.58839 21.0657 2.73078L22.3856 1.41086ZM23.3424 3.68757C23.2056 2.67031 22.932 1.95729 22.3856 1.41085L21.0657 2.73079C21.2081 2.87318 21.3836 3.12727 21.4924 3.9363L23.3424 3.68757ZM23.4791 7.78405C23.4791 6.02466 23.4791 4.70433 23.3424 3.68757L21.4924 3.9363C21.6084 4.79953 21.6124 5.97086 21.6124 7.78405H23.4791ZM23.4791 10.4004V7.78405H21.6124V10.4004H23.4791ZM23.1266 13.7325C23.3126 13.3354 23.3946 12.9324 23.4353 12.4257C23.4745 11.9378 23.4791 11.2936 23.4791 10.4004H21.6124C21.6124 11.314 21.6066 11.8777 21.5746 12.2761C21.5441 12.6557 21.4939 12.8174 21.4362 12.9407L23.1266 13.7325ZM20.7924 16.1364C21.4786 15.5646 21.9706 15.1487 22.3203 14.8062C22.6835 14.4505 22.9406 14.1295 23.1266 13.7325L21.4362 12.9407C21.3784 13.064 21.2863 13.2061 21.0143 13.4725C20.7287 13.7522 20.2993 14.1175 19.5974 14.7024L20.7924 16.1364ZM16.7559 19.5002L20.7924 16.1364L19.5974 14.7024L15.5609 18.0662L16.7559 19.5002ZM15.3423 20.6644C15.757 20.3322 16.2234 19.944 16.7559 19.5002L15.5609 18.0662C15.025 18.5128 14.5732 18.8888 14.1753 19.2075L15.3423 20.6644ZM14.1969 20.6812C14.4216 20.8506 14.6625 21.0407 14.9249 21.2531L16.0993 19.8022C15.827 19.5817 15.5682 19.3773 15.3207 19.1907L14.1969 20.6812ZM16.0994 21.2531C16.4817 20.9436 16.8982 20.5966 17.3534 20.2172L16.1584 18.7832C15.7004 19.1648 15.2949 19.5027 14.9249 19.8022L16.0994 21.2531ZM17.3534 20.2172L21.3899 16.8534L20.1949 15.4194L16.1584 18.7832L17.3534 20.2172ZM21.3899 16.8534C22.6441 15.8083 23.5106 15.113 23.9718 14.1283L22.2814 13.3366C22.0376 13.857 21.583 14.2627 20.1949 15.4194L21.3899 16.8534ZM23.9718 14.1283C24.433 13.1437 24.4124 12.0329 24.4124 10.4004H22.5457C22.5457 12.2072 22.5251 12.8162 22.2814 13.3366L23.9718 14.1283ZM24.4124 10.4004V7.78405H22.5457V10.4004H24.4124ZM24.4124 7.78405C24.4124 6.05053 24.4144 4.65649 24.2674 3.56321C24.1168 2.44307 23.7946 1.49994 23.0456 0.750886L21.7256 2.07082C22.07 2.41523 22.2946 2.89879 22.4174 3.81193C22.5437 4.75193 22.5457 5.99776 22.5457 7.78405H24.4124ZM23.0456 0.750886C22.2965 0.00183368 21.3534 -0.320346 20.2332 -0.470944C19.14 -0.617933 17.7459 -0.615951 16.0124 -0.615951V1.25072C17.7987 1.25072 19.0445 1.2527 19.9845 1.37908C20.8977 1.50185 21.3812 1.7264 21.7256 2.07082L23.0456 0.750886ZM16.0124 -0.615951H7.93932V1.25072H16.0124V-0.615951ZM7.93932 -0.615951C6.2058 -0.615951 4.81176 -0.617933 3.71848 -0.470944C2.59834 -0.320346 1.65521 0.00183252 0.906158 0.750884L2.22609 2.07082C2.57051 1.7264 3.05406 1.50185 3.96721 1.37908C4.9072 1.2527 6.15303 1.25072 7.93932 1.25072V-0.615951ZM0.906158 0.750884C0.157106 1.49994 -0.165073 2.44307 -0.315671 3.5632C-0.462659 4.65649 -0.460677 6.05052 -0.460677 7.78405H1.40599C1.40599 5.99775 1.40797 4.75192 1.53435 3.81193C1.65712 2.89879 1.88167 2.41523 2.22609 2.07082L0.906158 0.750884ZM-0.460677 7.78405V10.4004H1.40599V7.78405H-0.460677ZM-0.460677 10.4004C-0.460677 12.0329 -0.481298 13.1437 -0.0200954 14.1283L1.67034 13.3366C1.42661 12.8162 1.40599 12.2072 1.40599 10.4004H-0.460677ZM-0.0200956 14.1283C0.441106 15.113 1.30759 15.8083 2.56177 16.8534L3.75678 15.4194C2.36871 14.2627 1.91407 13.857 1.67034 13.3366L-0.0200956 14.1283ZM2.56177 16.8534L6.59831 20.2172L7.79332 18.7832L3.75678 15.4194L2.56177 16.8534ZM6.59831 20.2172C7.05402 20.597 7.47087 20.9444 7.85357 21.2541L9.02797 19.8032C8.65769 19.5035 8.25177 19.1652 7.79332 18.7832L6.59831 20.2172ZM9.02799 21.2541C9.29046 21.0416 9.53136 20.8515 9.75606 20.682L8.63209 19.1917C8.38462 19.3783 8.12591 19.5827 7.85354 19.8032L9.02799 21.2541ZM7.19581 19.5002C7.72887 19.9444 8.1956 20.3329 8.61058 20.6653L9.77757 19.2084C9.37942 18.8895 8.92726 18.5132 8.39082 18.0662L7.19581 19.5002ZM3.15928 16.1364L7.19581 19.5002L8.39082 18.0662L4.35429 14.7024L3.15928 16.1364ZM0.825121 13.7325C1.01108 14.1295 1.26819 14.4505 1.6314 14.8062C1.98112 15.1487 2.47307 15.5646 3.15928 16.1364L4.35429 14.7024C3.65242 14.1175 3.22301 13.7522 2.93746 13.4725C2.6654 13.2061 2.57332 13.064 2.51556 12.9407L0.825121 13.7325ZM0.472655 10.4004C0.472654 11.2936 0.477212 11.9378 0.516432 12.4257C0.557163 12.9324 0.639159 13.3354 0.825123 13.7325L2.51555 12.9407C2.45779 12.8174 2.40761 12.6557 2.3771 12.2761C2.34507 11.8777 2.33932 11.314 2.33932 10.4004H0.472655Z" fill="#1D266C" mask="url(#path-6-inside-2_1925_597)"/>
</g>
<path fill-rule="evenodd" clip-rule="evenodd" d="M12.4551 7.13281L13.3126 7.53375L16.9853 9.25096L17.8428 9.6519L17.3887 10.4825L12.9173 18.6627L12.3489 18.5491L11.9028 18.5491L16.5312 10.0816L12.9663 8.41474L8.62249 19.4668L7.8544 18.8384L12.1088 8.01381L12.4551 7.13281Z" fill="#BF9A66"/>
<path fill-rule="evenodd" clip-rule="evenodd" d="M17.1237 9.31741C18.2546 9.0884 19.2661 8.34479 19.7924 7.21927C20.6739 5.33395 19.8601 3.09099 17.9748 2.20948C16.0895 1.32797 13.8465 2.14172 12.965 4.02704C12.4388 5.15256 12.5167 6.40554 13.0661 7.42022L12.45 7.13216L12.1921 7.78839C11.5447 6.5343 11.4652 5.00429 12.1092 3.6269C13.2117 1.26893 16.017 0.251176 18.3749 1.35368C20.7329 2.45618 21.7507 5.26144 20.6482 7.61941C20.0263 8.94948 18.8626 9.85312 17.543 10.1903L17.8377 9.65125L17.1237 9.31741Z" fill="#BF9A66"/>
<rect x="13.6826" y="10.1123" width="1.22032" height="2.50592" rx="0.610161" transform="rotate(25.0591 13.6826 10.1123)" fill="#BF9A66"/>
<path d="M13.4756 2.61914L20.6008 5.74801" stroke="#BF9A66" stroke-width="0.933333" stroke-linecap="round"/>
<path d="M12.4541 4.31055L19.6436 7.66565" stroke="#BF9A66" stroke-width="0.933333" stroke-linecap="round"/>
</svg>
