<svg width="62" height="25" viewBox="0 0 62 25" fill="none" xmlns="http://www.w3.org/2000/svg">
<path fill-rule="evenodd" clip-rule="evenodd" d="M0.124992 -2.70464e-06C2.80463 3.52525 7.29926 7.42254 13.2236 7.26088C13.6036 9.77769 15.3159 13.7377 18.0692 15.3269C19.3908 16.0897 20.8685 16.4647 22.3482 16.8403C25.8684 17.7337 29.4005 18.6302 30.8722 24.7574C30.8959 24.8383 30.9672 25 31.0622 25L31.0622 -1.35233e-06L0.124992 -2.70464e-06ZM31.0628 -1.35231e-06L31.0628 25C31.1578 25 31.229 24.8383 31.2528 24.7574C32.7245 18.6302 36.2566 17.7338 39.7767 16.8403C41.2565 16.4647 42.7341 16.0897 44.0557 15.3269C46.8091 13.7377 48.5213 9.7777 48.9014 7.26088C54.8257 7.42255 59.3204 3.52526 62 0L31.0628 -1.35231e-06Z" fill="#475095" fill-opacity="0.3"/>
</svg>
