<svg width="40" height="40" viewBox="0 0 40 40" fill="none" xmlns="http://www.w3.org/2000/svg">
<rect width="40" height="40" rx="20" fill="#2B39A1" fill-opacity="0.6"/>
<rect x="1" y="-1" width="36" height="36" rx="18" transform="matrix(-1 0 0 1 39 3)" fill="#2B39A1" fill-opacity="0.6" stroke="white" stroke-width="2"/>
<path d="M20.0151 12.5928C17.2892 12.5928 15.0818 14.8002 15.0818 17.5261V19.0817C15.0818 19.5854 14.8744 20.3409 14.6151 20.7706L13.6744 22.3409C13.0966 23.3113 13.4966 24.3928 14.5633 24.7483C18.104 25.9261 21.9336 25.9261 25.4744 24.7483C26.4744 24.415 26.904 23.2446 26.3633 22.3409L25.4225 20.7706C25.1633 20.3409 24.9559 19.578 24.9559 19.0817V17.5261C24.9485 14.815 22.7262 12.5928 20.0151 12.5928Z" stroke="white" stroke-width="1.5" stroke-miterlimit="10" stroke-linecap="round"/>
<path d="M22.4675 25.793C22.4675 27.1485 21.3564 28.2596 20.0008 28.2596C19.3268 28.2596 18.7045 27.9782 18.2601 27.5337C17.8157 27.0893 17.5342 26.467 17.5342 25.793" stroke="white" stroke-width="1.5" stroke-miterlimit="10"/>
</svg>
