<svg width="12" height="12" viewBox="0 0 12 12" fill="none" xmlns="http://www.w3.org/2000/svg">
<path d="M6.07686 5.43622C6.02686 5.43122 5.96686 5.43122 5.91186 5.43622C4.72186 5.39622 3.77686 4.42122 3.77686 3.22122C3.77686 1.99622 4.76686 1.00122 5.99686 1.00122C7.22186 1.00122 8.21686 1.99622 8.21686 3.22122C8.21186 4.42122 7.26686 5.39622 6.07686 5.43622Z" stroke="#3A3A3A" stroke-width="0.75" stroke-linecap="round" stroke-linejoin="round"/>
<path d="M3.57937 7.27878C2.36938 8.08878 2.36938 9.40878 3.57937 10.2138C4.95437 11.1338 7.20938 11.1338 8.58438 10.2138C9.79437 9.40378 9.79437 8.08378 8.58438 7.27878C7.21438 6.36378 4.95937 6.36378 3.57937 7.27878Z" stroke="#3A3A3A" stroke-width="0.75" stroke-linecap="round" stroke-linejoin="round"/>
</svg>
