<svg width="16" height="16" viewBox="0 0 16 16" fill="none" xmlns="http://www.w3.org/2000/svg">
<path d="M14.666 4.33301H10.666" stroke="black" stroke-width="1.5" stroke-miterlimit="10" stroke-linecap="round" stroke-linejoin="round"/>
<path d="M10.6667 4.33301H8" stroke="black" stroke-width="1.5" stroke-miterlimit="10" stroke-linecap="round" stroke-linejoin="round"/>
<path d="M3.66732 6.66667C4.95598 6.66667 6.00065 5.622 6.00065 4.33333C6.00065 3.04467 4.95598 2 3.66732 2C2.37865 2 1.33398 3.04467 1.33398 4.33333C1.33398 5.622 2.37865 6.66667 3.66732 6.66667Z" stroke="black" stroke-width="1.5" stroke-miterlimit="10" stroke-linecap="round" stroke-linejoin="round"/>
<path d="M8.00065 11.667H5.33398" stroke="black" stroke-width="1.5" stroke-miterlimit="10" stroke-linecap="round" stroke-linejoin="round"/>
<path d="M5.33398 11.667H1.33398" stroke="black" stroke-width="1.5" stroke-miterlimit="10" stroke-linecap="round" stroke-linejoin="round"/>
<path d="M12.3333 13.9997C13.622 13.9997 14.6667 12.955 14.6667 11.6663C14.6667 10.3777 13.622 9.33301 12.3333 9.33301C11.0447 9.33301 10 10.3777 10 11.6663C10 12.955 11.0447 13.9997 12.3333 13.9997Z" stroke="black" stroke-width="1.5" stroke-miterlimit="10" stroke-linecap="round" stroke-linejoin="round"/>
</svg>
