<svg width="16" height="16" viewBox="0 0 16 16" fill="none" xmlns="http://www.w3.org/2000/svg">
<g opacity="0.7">
<path d="M13.3133 6.66666H2.64667V12C2.64667 14 3.31333 14.6667 5.31333 14.6667H10.6467C12.6467 14.6667 13.3133 14 13.3133 12V6.66666Z" stroke="#4F4F4F" stroke-miterlimit="10" stroke-linecap="round" stroke-linejoin="round"/>
<path d="M14.3334 4.66668V5.33334C14.3334 6.06668 13.98 6.66668 13 6.66668H3.00002C1.98002 6.66668 1.66669 6.06668 1.66669 5.33334V4.66668C1.66669 3.93334 1.98002 3.33334 3.00002 3.33334H13C13.98 3.33334 14.3334 3.93334 14.3334 4.66668Z" stroke="#4F4F4F" stroke-miterlimit="10" stroke-linecap="round" stroke-linejoin="round"/>
<path d="M7.76 3.33332H4.08C3.85333 3.08666 3.86 2.70666 4.1 2.46666L5.04667 1.51999C5.29333 1.27332 5.7 1.27332 5.94667 1.51999L7.76 3.33332Z" stroke="#4F4F4F" stroke-miterlimit="10" stroke-linecap="round" stroke-linejoin="round"/>
<path d="M11.9133 3.33332H8.23334L10.0467 1.51999C10.2933 1.27332 10.7 1.27332 10.9467 1.51999L11.8933 2.46666C12.1333 2.70666 12.14 3.08666 11.9133 3.33332Z" stroke="#4F4F4F" stroke-miterlimit="10" stroke-linecap="round" stroke-linejoin="round"/>
<path d="M5.96002 6.66666V10.0933C5.96002 10.6267 6.54669 10.94 6.99336 10.6533L7.62002 10.24C7.84669 10.0933 8.13336 10.0933 8.35336 10.24L8.94669 10.64C9.38669 10.9333 9.98002 10.62 9.98002 10.0867V6.66666H5.96002Z" stroke="#4F4F4F" stroke-miterlimit="10" stroke-linecap="round" stroke-linejoin="round"/>
</g>
</svg>
