<svg width="28" height="28" viewBox="0 0 28 28" fill="none" xmlns="http://www.w3.org/2000/svg">
<g clip-path="url(#clip0_2591_10151)">
<mask id="path-1-inside-1_2591_10151" fill="white">
<path fill-rule="evenodd" clip-rule="evenodd" d="M14.0029 6.30386C13.9932 6.30376 13.9836 6.30371 13.9739 6.30371C12.7667 6.30371 11.7119 7.06553 9.60224 8.58917L5.56571 11.5044C4.04812 12.6005 3.28933 13.1485 2.88002 13.949C2.4707 14.7495 2.4707 15.6855 2.4707 17.5575V19.8532C2.4707 23.373 2.4707 25.1329 3.56417 26.2264C4.65764 27.3199 6.41755 27.3199 9.93737 27.3199H18.0104C21.5303 27.3199 23.2902 27.3199 24.3836 26.2264C25.4771 25.1329 25.4771 23.373 25.4771 19.8532V17.5575C25.4771 15.6855 25.4771 14.7495 25.0678 13.949C24.6585 13.1485 23.8997 12.6005 22.3821 11.5044L19.9019 9.71318C19.5975 9.84597 19.2745 9.94402 18.9378 10.0023L21.9144 12.152C22.6846 12.7083 23.2194 13.0955 23.6166 13.4406C24.0018 13.7752 24.2144 14.0347 24.3565 14.3127C24.4987 14.5907 24.5846 14.9149 24.6303 15.4231C24.6775 15.9472 24.6783 16.6075 24.6783 17.5575V19.8532C24.6783 21.6357 24.6766 22.8922 24.5487 23.8433C24.4239 24.7713 24.1924 25.288 23.8188 25.6616C23.4452 26.0351 22.9285 26.2667 22.0005 26.3915C21.0494 26.5194 19.7929 26.5211 18.0104 26.5211H9.93737C8.15488 26.5211 6.89837 26.5194 5.94733 26.3915C5.01927 26.2667 4.5026 26.0351 4.12903 25.6616C3.75546 25.288 3.52387 24.7713 3.3991 23.8433C3.27123 22.8922 3.26954 21.6357 3.26954 19.8532V17.5575C3.26954 16.6075 3.27028 15.9472 3.31748 15.4231C3.36325 14.9149 3.44912 14.5907 3.59127 14.3127C3.73342 14.0347 3.946 13.7752 4.33118 13.4406C4.72838 13.0955 5.26323 12.7083 6.03342 12.152L10.0699 9.23676C11.1397 8.46416 11.8883 7.92501 12.5176 7.5716C13.129 7.22826 13.5571 7.10254 13.9739 7.10254C14.0402 7.10254 14.1067 7.10573 14.1742 7.11245C14.0919 6.85286 14.0338 6.58244 14.0029 6.30386Z"/>
</mask>
<path fill-rule="evenodd" clip-rule="evenodd" d="M14.0029 6.30386C13.9932 6.30376 13.9836 6.30371 13.9739 6.30371C12.7667 6.30371 11.7119 7.06553 9.60224 8.58917L5.56571 11.5044C4.04812 12.6005 3.28933 13.1485 2.88002 13.949C2.4707 14.7495 2.4707 15.6855 2.4707 17.5575V19.8532C2.4707 23.373 2.4707 25.1329 3.56417 26.2264C4.65764 27.3199 6.41755 27.3199 9.93737 27.3199H18.0104C21.5303 27.3199 23.2902 27.3199 24.3836 26.2264C25.4771 25.1329 25.4771 23.373 25.4771 19.8532V17.5575C25.4771 15.6855 25.4771 14.7495 25.0678 13.949C24.6585 13.1485 23.8997 12.6005 22.3821 11.5044L19.9019 9.71318C19.5975 9.84597 19.2745 9.94402 18.9378 10.0023L21.9144 12.152C22.6846 12.7083 23.2194 13.0955 23.6166 13.4406C24.0018 13.7752 24.2144 14.0347 24.3565 14.3127C24.4987 14.5907 24.5846 14.9149 24.6303 15.4231C24.6775 15.9472 24.6783 16.6075 24.6783 17.5575V19.8532C24.6783 21.6357 24.6766 22.8922 24.5487 23.8433C24.4239 24.7713 24.1924 25.288 23.8188 25.6616C23.4452 26.0351 22.9285 26.2667 22.0005 26.3915C21.0494 26.5194 19.7929 26.5211 18.0104 26.5211H9.93737C8.15488 26.5211 6.89837 26.5194 5.94733 26.3915C5.01927 26.2667 4.5026 26.0351 4.12903 25.6616C3.75546 25.288 3.52387 24.7713 3.3991 23.8433C3.27123 22.8922 3.26954 21.6357 3.26954 19.8532V17.5575C3.26954 16.6075 3.27028 15.9472 3.31748 15.4231C3.36325 14.9149 3.44912 14.5907 3.59127 14.3127C3.73342 14.0347 3.946 13.7752 4.33118 13.4406C4.72838 13.0955 5.26323 12.7083 6.03342 12.152L10.0699 9.23676C11.1397 8.46416 11.8883 7.92501 12.5176 7.5716C13.129 7.22826 13.5571 7.10254 13.9739 7.10254C14.0402 7.10254 14.1067 7.10573 14.1742 7.11245C14.0919 6.85286 14.0338 6.58244 14.0029 6.30386Z" fill="#BF9A66"/>
<path d="M14.0029 6.30386L14.9305 6.20071L14.8391 5.37894L14.0123 5.37057L14.0029 6.30386ZM9.60224 8.58917L10.1487 9.3458L9.60224 8.58917ZM5.56571 11.5044L6.11217 12.2611L5.56571 11.5044ZM2.88002 13.949L3.71102 14.3739H3.71102L2.88002 13.949ZM3.56417 26.2264L2.9042 26.8864L2.9042 26.8864L3.56417 26.2264ZM24.3836 26.2264L25.0436 26.8864H25.0436L24.3836 26.2264ZM25.0678 13.949L24.2368 14.3739V14.3739L25.0678 13.949ZM22.3821 11.5044L21.8356 12.2611V12.2611L22.3821 11.5044ZM19.9019 9.71318L20.4484 8.95655L20.0167 8.64481L19.5287 8.85771L19.9019 9.71318ZM18.9378 10.0023L18.7786 9.08264L16.594 9.46085L18.3914 10.7589L18.9378 10.0023ZM21.9144 12.152L22.4608 11.3954V11.3954L21.9144 12.152ZM23.6166 13.4406L24.2288 12.736L24.2288 12.736L23.6166 13.4406ZM24.3565 14.3127L23.5255 14.7376L23.5255 14.7376L24.3565 14.3127ZM24.6303 15.4231L23.7008 15.5068V15.5068L24.6303 15.4231ZM24.5487 23.8433L23.6237 23.7189V23.7189L24.5487 23.8433ZM22.0005 26.3915L22.1248 27.3165H22.1248L22.0005 26.3915ZM5.94733 26.3915L5.82297 27.3165H5.82297L5.94733 26.3915ZM3.3991 23.8433L4.32411 23.7189L3.3991 23.8433ZM3.31748 15.4231L2.38791 15.3394L2.38791 15.3394L3.31748 15.4231ZM3.59127 14.3127L2.76026 13.8878L2.76026 13.8878L3.59127 14.3127ZM4.33118 13.4406L3.71905 12.736L3.71905 12.736L4.33118 13.4406ZM6.03342 12.152L5.48696 11.3954L5.48696 11.3954L6.03342 12.152ZM10.0699 9.23676L9.52349 8.48013V8.48013L10.0699 9.23676ZM12.5176 7.5716L12.0606 6.7578V6.7578L12.5176 7.5716ZM14.1742 7.11245L14.0817 8.04119L15.4926 8.18165L15.0638 6.8302L14.1742 7.11245ZM14.0123 5.37057C13.9995 5.37044 13.9867 5.37038 13.9739 5.37038V7.23704C13.9804 7.23704 13.9869 7.23708 13.9934 7.23714L14.0123 5.37057ZM13.9739 5.37038C13.1521 5.37038 12.426 5.63647 11.6695 6.06128C10.934 6.47431 10.0932 7.08332 9.05578 7.83253L10.1487 9.3458C11.221 8.57138 11.9624 8.03765 12.5835 7.68887C13.1836 7.35186 13.5885 7.23704 13.9739 7.23704V5.37038ZM9.05578 7.83253L5.01925 10.7478L6.11217 12.2611L10.1487 9.3458L9.05578 7.83253ZM5.01925 10.7478C4.27377 11.2862 3.66467 11.725 3.19513 12.133C2.71155 12.5531 2.3267 12.981 2.04901 13.5241L3.71102 14.3739C3.84265 14.1165 4.04185 13.8701 4.41939 13.5421C4.81097 13.2019 5.34006 12.8187 6.11217 12.2611L5.01925 10.7478ZM2.04901 13.5241C1.77132 14.0672 1.64976 14.6297 1.5923 15.2677C1.5365 15.8872 1.53737 16.6379 1.53737 17.5575H3.40404C3.40404 16.6051 3.40491 15.9518 3.45144 15.4352C3.4963 14.9371 3.5794 14.6313 3.71102 14.3739L2.04901 13.5241ZM1.53737 17.5575V19.8532H3.40404V17.5575H1.53737ZM1.53737 19.8532C1.53737 21.5867 1.53539 22.9808 1.68238 24.0741C1.83297 25.1942 2.15515 26.1373 2.9042 26.8864L4.22414 25.5665C3.87972 25.222 3.65517 24.7385 3.5324 23.8253C3.40602 22.8853 3.40404 21.6395 3.40404 19.8532H1.53737ZM2.9042 26.8864C3.65326 27.6354 4.59639 27.9576 5.71652 28.1082C6.80981 28.2552 8.20385 28.2532 9.93737 28.2532V26.3866C8.15107 26.3866 6.90524 26.3846 5.96525 26.2582C5.05211 26.1354 4.56855 25.9109 4.22414 25.5665L2.9042 26.8864ZM9.93737 28.2532H18.0104V26.3866H9.93737V28.2532ZM18.0104 28.2532C19.744 28.2532 21.138 28.2552 22.2313 28.1082C23.3514 27.9576 24.2946 27.6354 25.0436 26.8864L23.7237 25.5665C23.3793 25.9109 22.8957 26.1354 21.9826 26.2582C21.0426 26.3846 19.7967 26.3866 18.0104 26.3866V28.2532ZM25.0436 26.8864C25.7927 26.1373 26.1148 25.1942 26.2654 24.0741C26.4124 22.9808 26.4104 21.5867 26.4104 19.8532H24.5438C24.5438 21.6395 24.5418 22.8853 24.4154 23.8253C24.2926 24.7385 24.0681 25.222 23.7237 25.5665L25.0436 26.8864ZM26.4104 19.8532V17.5575H24.5438V19.8532H26.4104ZM26.4104 17.5575C26.4104 16.6379 26.4113 15.8872 26.3555 15.2677C26.298 14.6297 26.1765 14.0672 25.8988 13.5241L24.2368 14.3739C24.3684 14.6313 24.4515 14.9371 24.4964 15.4352C24.5429 15.9518 24.5438 16.6051 24.5438 17.5575H26.4104ZM25.8988 13.5241C25.6211 12.981 25.2363 12.5531 24.7527 12.133C24.2831 11.725 23.674 11.2862 22.9286 10.7478L21.8356 12.2611C22.6077 12.8187 23.1368 13.2019 23.5284 13.5421C23.906 13.8701 24.1052 14.1165 24.2368 14.3739L25.8988 13.5241ZM22.9286 10.7478L20.4484 8.95655L19.3554 10.4698L21.8356 12.2611L22.9286 10.7478ZM19.5287 8.85771C19.2919 8.96102 19.0406 9.03728 18.7786 9.08264L19.097 10.922C19.5083 10.8507 19.9031 10.7309 20.2751 10.5687L19.5287 8.85771ZM22.4608 11.3954L19.4843 9.24566L18.3914 10.7589L21.3679 12.9087L22.4608 11.3954ZM24.2288 12.736C23.7925 12.357 23.2174 11.9418 22.4608 11.3954L21.3679 12.9087C22.1517 13.4747 22.6463 13.834 23.0045 14.1451L24.2288 12.736ZM25.1875 13.8878C24.9724 13.4669 24.6669 13.1167 24.2288 12.736L23.0045 14.1451C23.3367 14.4338 23.4564 14.6024 23.5255 14.7376L25.1875 13.8878ZM25.5599 15.3394C25.5078 14.7613 25.4027 14.3086 25.1875 13.8878L23.5255 14.7376C23.5946 14.8727 23.6613 15.0686 23.7008 15.5068L25.5599 15.3394ZM25.6116 17.5575C25.6116 16.6242 25.6117 15.9149 25.5599 15.3394L23.7008 15.5068C23.7433 15.9794 23.7449 16.5907 23.7449 17.5575H25.6116ZM25.6116 19.8532V17.5575H23.7449V19.8532H25.6116ZM25.4737 23.9676C25.6119 22.9398 25.6116 21.6089 25.6116 19.8532H23.7449C23.7449 21.6625 23.7412 22.8446 23.6237 23.7189L25.4737 23.9676ZM24.4787 26.3215C25.0544 25.7459 25.335 24.9997 25.4737 23.9676L23.6237 23.7189C23.5129 24.5429 23.3303 24.8301 23.1588 25.0016L24.4787 26.3215ZM22.1248 27.3165C23.1569 27.1777 23.9031 26.8972 24.4787 26.3215L23.1588 25.0016C22.9873 25.1731 22.7002 25.3557 21.8761 25.4665L22.1248 27.3165ZM18.0104 27.4544C19.7661 27.4544 21.0971 27.4547 22.1248 27.3165L21.8761 25.4665C21.0018 25.584 19.8198 25.5877 18.0104 25.5877V27.4544ZM9.93737 27.4544H18.0104V25.5877H9.93737V27.4544ZM5.82297 27.3165C6.85075 27.4547 8.1817 27.4544 9.93737 27.4544V25.5877C8.12805 25.5877 6.94598 25.584 6.0717 25.4665L5.82297 27.3165ZM3.46907 26.3215C4.04472 26.8972 4.79091 27.1777 5.82297 27.3165L6.0717 25.4665C5.24764 25.3557 4.96049 25.1731 4.789 25.0016L3.46907 26.3215ZM2.47409 23.9676C2.61284 24.9997 2.89342 25.7459 3.46907 26.3215L4.789 25.0016C4.61751 24.8301 4.4349 24.5429 4.32411 23.7189L2.47409 23.9676ZM2.3362 19.8532C2.3362 21.6089 2.3359 22.9398 2.47409 23.9676L4.32411 23.7189C4.20656 22.8446 4.20287 21.6625 4.20287 19.8532H2.3362ZM2.3362 17.5575V19.8532H4.20287V17.5575H2.3362ZM2.38791 15.3394C2.33607 15.9149 2.3362 16.6242 2.3362 17.5575H4.20287C4.20287 16.5907 4.20449 15.9794 4.24705 15.5068L2.38791 15.3394ZM2.76026 13.8878C2.54506 14.3087 2.43998 14.7613 2.38791 15.3394L4.24705 15.5068C4.28653 15.0686 4.35317 14.8727 4.42227 14.7376L2.76026 13.8878ZM3.71905 12.736C3.28089 13.1167 2.97546 13.4669 2.76026 13.8878L4.42227 14.7376C4.49138 14.6024 4.61111 14.4338 4.94331 14.1451L3.71905 12.736ZM5.48696 11.3954C4.73037 11.9418 4.15529 12.357 3.71905 12.736L4.94331 14.1451C5.30146 13.834 5.79609 13.4747 6.57987 12.9087L5.48696 11.3954ZM9.52349 8.48013L5.48696 11.3954L6.57987 12.9087L10.6164 9.9934L9.52349 8.48013ZM12.0606 6.7578C11.374 7.14339 10.5755 7.72037 9.52349 8.48013L10.6164 9.9934C11.704 9.20795 12.4026 8.70663 12.9746 8.3854L12.0606 6.7578ZM13.9739 6.16921C13.3389 6.16921 12.7503 6.37051 12.0606 6.7578L12.9746 8.3854C13.5078 8.08601 13.7752 8.03588 13.9739 8.03588V6.16921ZM14.2667 6.1837C14.1677 6.17385 14.0703 6.16921 13.9739 6.16921V8.03588C14.0101 8.03588 14.0457 8.0376 14.0817 8.04119L14.2667 6.1837ZM15.0638 6.8302C14.9998 6.62838 14.9546 6.41792 14.9305 6.20071L13.0753 6.40701C13.1131 6.74696 13.1839 7.07735 13.2846 7.3947L15.0638 6.8302Z" fill="#1D266C" mask="url(#path-1-inside-1_2591_10151)"/>
<mask id="mask0_2591_10151" style="mask-type:alpha" maskUnits="userSpaceOnUse" x="2" y="5" width="24" height="23">
<path d="M2.93737 17.2355C2.93737 15.4723 2.94768 14.7378 3.24578 14.1014C3.54388 13.4649 4.10148 12.9868 5.45608 11.858L9.49261 8.49422C10.6445 7.53429 11.4761 6.84239 12.1865 6.38547C12.8861 5.93554 13.4213 5.74539 13.9739 5.74539C14.5265 5.74539 15.0617 5.93554 15.7613 6.38547C16.4717 6.84239 17.3033 7.53429 18.4552 8.49422L22.4917 11.858C23.8463 12.9868 24.4039 13.4649 24.702 14.1014C25.0001 14.7378 25.0104 15.4723 25.0104 17.2355V19.8519C25.0104 21.625 25.0095 22.9078 24.8779 23.8862C24.7482 24.851 24.4992 25.4495 24.0537 25.8951C23.6081 26.3406 23.0096 26.5896 22.0447 26.7193C21.0664 26.8509 19.7835 26.8519 18.0104 26.8519H9.93737C8.16427 26.8519 6.88139 26.8509 5.90307 26.7193C4.93818 26.5896 4.33973 26.3406 3.89415 25.8951C3.44858 25.4495 3.19962 24.851 3.06989 23.8862C2.93836 22.9078 2.93737 21.625 2.93737 19.8519V17.2355Z" fill="#C4C4C4" stroke="#1D266C" stroke-width="0.933333"/>
</mask>
<g mask="url(#mask0_2591_10151)">
<path d="M2.93737 30.4963C2.93737 28.733 2.94768 27.9986 3.24578 27.3621C3.54388 26.7257 4.10148 26.2476 5.45608 25.1187L9.49261 21.755C10.6445 20.795 11.4761 20.1031 12.1865 19.6462C12.8861 19.1963 13.4213 19.0061 13.9739 19.0061C14.5265 19.0061 15.0617 19.1963 15.7613 19.6462C16.4717 20.1031 17.3033 20.795 18.4552 21.755L22.4917 25.1187C23.8463 26.2476 24.4039 26.7257 24.702 27.3621C25.0001 27.9986 25.0104 28.733 25.0104 30.4963V33.1126C25.0104 34.8857 25.0095 36.1686 24.8779 37.1469C24.7482 38.1118 24.4992 38.7102 24.0537 39.1558C23.6081 39.6014 23.0096 39.8503 22.0447 39.9801C21.0664 40.1116 19.7835 40.1126 18.0104 40.1126H9.93737C8.16427 40.1126 6.88139 40.1116 5.90307 39.9801C4.93818 39.8503 4.33973 39.6014 3.89415 39.1558C3.44858 38.7102 3.19962 38.1118 3.06989 37.1469C2.93836 36.1686 2.93737 34.8857 2.93737 33.1126V30.4963Z" stroke="#1D266C" stroke-width="0.933333"/>
</g>
<mask id="mask1_2591_10151" style="mask-type:alpha" maskUnits="userSpaceOnUse" x="2" y="6" width="24" height="22">
<path d="M2.93737 18.0701C2.93737 17.6771 2.93748 17.4948 2.94513 17.3218C3.03846 15.2139 3.96769 13.2299 5.52732 11.8087C5.65528 11.6921 5.79528 11.5753 6.09719 11.3237L6.90849 10.6477C8.80938 9.06358 9.69496 8.3305 10.6086 7.90253C12.7409 6.90364 15.2069 6.90364 17.3393 7.90253C18.2529 8.3305 19.1384 9.06358 21.0393 10.6477L21.8506 11.3237C22.1525 11.5753 22.2925 11.6921 22.4205 11.8087C23.9801 13.2299 24.9094 15.2139 25.0027 17.3218C25.0103 17.4948 25.0104 17.6771 25.0104 18.0701C25.0104 18.8669 25.0101 19.238 24.9855 19.5472C24.6766 23.4325 21.5911 26.518 17.7058 26.8269C17.3966 26.8515 17.0255 26.8519 16.2287 26.8519H11.7191C10.9223 26.8519 10.5512 26.8515 10.242 26.8269C6.35667 26.518 3.27119 23.4325 2.96232 19.5472C2.93774 19.238 2.93737 18.8669 2.93737 18.0701Z" fill="#C4C4C4" stroke="#1D266C" stroke-width="0.933333"/>
</mask>
<g mask="url(#mask1_2591_10151)">
<mask id="path-6-inside-2_2591_10151" fill="white">
<path fill-rule="evenodd" clip-rule="evenodd" d="M3.40599 10.4004L3.40599 7.78405C3.40599 5.99776 3.40797 4.75192 3.53435 3.81193C3.65712 2.89879 3.88167 2.41523 4.22609 2.07082C4.57051 1.7264 5.05406 1.50185 5.96721 1.37908C6.9072 1.2527 8.15303 1.25072 9.93932 1.25072L18.0124 1.25072C19.7987 1.25072 21.0445 1.2527 21.9845 1.37908C22.8977 1.50185 23.3812 1.7264 23.7256 2.07082C24.07 2.41524 24.2946 2.89879 24.4174 3.81193C24.5437 4.75193 24.5457 5.99776 24.5457 7.78405V10.4004C24.5457 12.2072 24.5251 12.8162 24.2814 13.3366C24.0376 13.857 23.583 14.2627 22.1949 15.4194L18.1584 18.7832C17.6242 19.2284 17.1651 19.6105 16.7588 19.9359C16.9949 20.114 17.2447 20.3112 17.5121 20.5277C17.8883 20.2232 18.2993 19.8807 18.7559 19.5002L22.7924 16.1364C24.1136 15.0355 24.7741 14.485 25.1266 13.7325C25.4791 12.9799 25.4791 12.1201 25.4791 10.4004V7.78405C25.4791 4.26423 25.4791 2.50432 24.3856 1.41085C23.2921 0.317383 21.5322 0.317383 18.0124 0.317383H9.93932C6.4195 0.317383 4.65959 0.317383 3.56612 1.41085C2.47266 2.50432 2.47266 4.26423 2.47266 7.78405V10.4004C2.47266 12.1201 2.47266 12.9799 2.82512 13.7325C3.17759 14.485 3.83815 15.0355 5.15928 16.1364L9.19581 19.5002C9.6529 19.8811 10.0643 20.2239 10.4408 20.5286C10.7082 20.3122 10.958 20.1149 11.1941 19.9369C10.7875 19.6112 10.3281 19.2288 9.79332 18.7832L5.75678 15.4194C4.36871 14.2627 3.91407 13.857 3.67034 13.3366C3.42661 12.8162 3.40599 12.2072 3.40599 10.4004Z"/>
</mask>
<path fill-rule="evenodd" clip-rule="evenodd" d="M3.40599 10.4004L3.40599 7.78405C3.40599 5.99776 3.40797 4.75192 3.53435 3.81193C3.65712 2.89879 3.88167 2.41523 4.22609 2.07082C4.57051 1.7264 5.05406 1.50185 5.96721 1.37908C6.9072 1.2527 8.15303 1.25072 9.93932 1.25072L18.0124 1.25072C19.7987 1.25072 21.0445 1.2527 21.9845 1.37908C22.8977 1.50185 23.3812 1.7264 23.7256 2.07082C24.07 2.41524 24.2946 2.89879 24.4174 3.81193C24.5437 4.75193 24.5457 5.99776 24.5457 7.78405V10.4004C24.5457 12.2072 24.5251 12.8162 24.2814 13.3366C24.0376 13.857 23.583 14.2627 22.1949 15.4194L18.1584 18.7832C17.6242 19.2284 17.1651 19.6105 16.7588 19.9359C16.9949 20.114 17.2447 20.3112 17.5121 20.5277C17.8883 20.2232 18.2993 19.8807 18.7559 19.5002L22.7924 16.1364C24.1136 15.0355 24.7741 14.485 25.1266 13.7325C25.4791 12.9799 25.4791 12.1201 25.4791 10.4004V7.78405C25.4791 4.26423 25.4791 2.50432 24.3856 1.41085C23.2921 0.317383 21.5322 0.317383 18.0124 0.317383H9.93932C6.4195 0.317383 4.65959 0.317383 3.56612 1.41085C2.47266 2.50432 2.47266 4.26423 2.47266 7.78405V10.4004C2.47266 12.1201 2.47266 12.9799 2.82512 13.7325C3.17759 14.485 3.83815 15.0355 5.15928 16.1364L9.19581 19.5002C9.6529 19.8811 10.0643 20.2239 10.4408 20.5286C10.7082 20.3122 10.958 20.1149 11.1941 19.9369C10.7875 19.6112 10.3281 19.2288 9.79332 18.7832L5.75678 15.4194C4.36871 14.2627 3.91407 13.857 3.67034 13.3366C3.42661 12.8162 3.40599 12.2072 3.40599 10.4004Z" fill="#BF9A66"/>
<path d="M3.40599 7.78405H2.47265H3.40599ZM3.40599 10.4004H2.47265H3.40599ZM3.53435 3.81193L4.45936 3.9363L4.45936 3.9363L3.53435 3.81193ZM4.22609 2.07082L4.88606 2.73078L4.22609 2.07082ZM5.96721 1.37908L5.84284 0.454065L5.84284 0.454066L5.96721 1.37908ZM9.93932 1.25072V0.317382V1.25072ZM18.0124 1.25072V0.317383V1.25072ZM21.9845 1.37908L22.1089 0.454067L22.1089 0.454067L21.9845 1.37908ZM23.7256 2.07082L23.0657 2.73078L23.0657 2.73079L23.7256 2.07082ZM24.4174 3.81193L23.4924 3.9363V3.9363L24.4174 3.81193ZM22.1949 15.4194L22.7924 16.1364L22.1949 15.4194ZM18.1584 18.7832L17.5609 18.0662L18.1584 18.7832ZM16.7588 19.9359L16.1753 19.2075L15.2381 19.9582L16.1969 20.6812L16.7588 19.9359ZM17.5121 20.5277L16.9249 21.2531L17.5122 21.7284L18.0994 21.2531L17.5121 20.5277ZM18.7559 19.5002L19.3534 20.2172L18.7559 19.5002ZM22.7924 16.1364L22.1949 15.4194L22.7924 16.1364ZM25.1266 13.7325L25.9718 14.1283V14.1283L25.1266 13.7325ZM24.3856 1.41085L23.7256 2.07082L23.7256 2.07082L24.3856 1.41085ZM2.82512 13.7325L3.67034 13.3366L3.67034 13.3366L2.82512 13.7325ZM5.15928 16.1364L5.75678 15.4194H5.75678L5.15928 16.1364ZM9.19581 19.5002L8.59831 20.2172L9.19581 19.5002ZM10.4408 20.5286L9.85357 21.2541L10.4408 21.7294L11.028 21.2541L10.4408 20.5286ZM11.1941 19.9369L11.7561 20.682L12.7147 19.9591L11.7776 19.2084L11.1941 19.9369ZM9.79332 18.7832L10.3908 18.0662H10.3908L9.79332 18.7832ZM5.75678 15.4194L6.35429 14.7024H6.35429L5.75678 15.4194ZM3.67034 13.3366L4.51556 12.9407L4.51555 12.9407L3.67034 13.3366ZM2.47265 7.78405L2.47265 10.4004H4.33932L4.33932 7.78405H2.47265ZM2.60934 3.68757C2.47264 4.70433 2.47265 6.02466 2.47265 7.78405H4.33932C4.33932 5.97085 4.3433 4.79952 4.45936 3.9363L2.60934 3.68757ZM3.56612 1.41085C3.01968 1.95729 2.74611 2.67031 2.60934 3.68757L4.45936 3.9363C4.56813 3.12727 4.74366 2.87318 4.88606 2.73078L3.56612 1.41085ZM5.84284 0.454066C4.82558 0.590834 4.11257 0.86441 3.56612 1.41085L4.88606 2.73078C5.02845 2.58839 5.28255 2.41286 6.09157 2.30409L5.84284 0.454066ZM9.93932 0.317382C8.17993 0.317382 6.8596 0.317368 5.84284 0.454065L6.09157 2.30409C6.9548 2.18803 8.12613 2.18405 9.93932 2.18405V0.317382ZM18.0124 0.317383L9.93932 0.317382V2.18405L18.0124 2.18405V0.317383ZM22.1089 0.454067C21.0921 0.317369 19.7718 0.317383 18.0124 0.317383V2.18405C19.8256 2.18405 20.9969 2.18803 21.8601 2.30409L22.1089 0.454067ZM24.3856 1.41086C23.8392 0.864411 23.1261 0.590836 22.1089 0.454067L21.8601 2.30409C22.6692 2.41286 22.9233 2.58839 23.0657 2.73078L24.3856 1.41086ZM25.3424 3.68757C25.2056 2.67031 24.932 1.95729 24.3856 1.41085L23.0657 2.73079C23.2081 2.87318 23.3836 3.12727 23.4924 3.9363L25.3424 3.68757ZM25.4791 7.78405C25.4791 6.02466 25.4791 4.70433 25.3424 3.68757L23.4924 3.9363C23.6084 4.79953 23.6124 5.97086 23.6124 7.78405H25.4791ZM25.4791 10.4004V7.78405H23.6124V10.4004H25.4791ZM25.1266 13.7325C25.3126 13.3354 25.3946 12.9324 25.4353 12.4257C25.4745 11.9378 25.4791 11.2936 25.4791 10.4004H23.6124C23.6124 11.314 23.6066 11.8777 23.5746 12.2761C23.5441 12.6557 23.4939 12.8174 23.4362 12.9407L25.1266 13.7325ZM22.7924 16.1364C23.4786 15.5646 23.9706 15.1487 24.3203 14.8062C24.6835 14.4505 24.9406 14.1295 25.1266 13.7325L23.4362 12.9407C23.3784 13.064 23.2863 13.2061 23.0143 13.4725C22.7287 13.7522 22.2993 14.1175 21.5974 14.7024L22.7924 16.1364ZM18.7559 19.5002L22.7924 16.1364L21.5974 14.7024L17.5609 18.0662L18.7559 19.5002ZM17.3423 20.6644C17.757 20.3322 18.2234 19.944 18.7559 19.5002L17.5609 18.0662C17.025 18.5128 16.5732 18.8888 16.1753 19.2075L17.3423 20.6644ZM16.1969 20.6812C16.4216 20.8506 16.6625 21.0407 16.9249 21.2531L18.0993 19.8022C17.827 19.5817 17.5682 19.3773 17.3207 19.1907L16.1969 20.6812ZM18.0994 21.2531C18.4817 20.9436 18.8982 20.5966 19.3534 20.2172L18.1584 18.7832C17.7004 19.1648 17.2949 19.5027 16.9249 19.8022L18.0994 21.2531ZM19.3534 20.2172L23.3899 16.8534L22.1949 15.4194L18.1584 18.7832L19.3534 20.2172ZM23.3899 16.8534C24.6441 15.8083 25.5106 15.113 25.9718 14.1283L24.2814 13.3366C24.0376 13.857 23.583 14.2627 22.1949 15.4194L23.3899 16.8534ZM25.9718 14.1283C26.433 13.1437 26.4124 12.0329 26.4124 10.4004H24.5457C24.5457 12.2072 24.5251 12.8162 24.2814 13.3366L25.9718 14.1283ZM26.4124 10.4004V7.78405H24.5457V10.4004H26.4124ZM26.4124 7.78405C26.4124 6.05053 26.4144 4.65649 26.2674 3.56321C26.1168 2.44307 25.7946 1.49994 25.0456 0.750886L23.7256 2.07082C24.07 2.41523 24.2946 2.89879 24.4174 3.81193C24.5437 4.75193 24.5457 5.99776 24.5457 7.78405H26.4124ZM25.0456 0.750886C24.2965 0.00183368 23.3534 -0.320346 22.2332 -0.470944C21.14 -0.617933 19.7459 -0.615951 18.0124 -0.615951V1.25072C19.7987 1.25072 21.0445 1.2527 21.9845 1.37908C22.8977 1.50185 23.3812 1.7264 23.7256 2.07082L25.0456 0.750886ZM18.0124 -0.615951H9.93932V1.25072H18.0124V-0.615951ZM9.93932 -0.615951C8.2058 -0.615951 6.81176 -0.617933 5.71848 -0.470944C4.59834 -0.320346 3.65521 0.00183252 2.90616 0.750884L4.22609 2.07082C4.57051 1.7264 5.05406 1.50185 5.96721 1.37908C6.9072 1.2527 8.15303 1.25072 9.93932 1.25072V-0.615951ZM2.90616 0.750884C2.15711 1.49994 1.83493 2.44307 1.68433 3.5632C1.53734 4.65649 1.53932 6.05052 1.53932 7.78405H3.40599C3.40599 5.99775 3.40797 4.75192 3.53435 3.81193C3.65712 2.89879 3.88167 2.41523 4.22609 2.07082L2.90616 0.750884ZM1.53932 7.78405V10.4004H3.40599V7.78405H1.53932ZM1.53932 10.4004C1.53932 12.0329 1.5187 13.1437 1.9799 14.1283L3.67034 13.3366C3.42661 12.8162 3.40599 12.2072 3.40599 10.4004H1.53932ZM1.9799 14.1283C2.44111 15.113 3.30759 15.8083 4.56177 16.8534L5.75678 15.4194C4.36871 14.2627 3.91407 13.857 3.67034 13.3366L1.9799 14.1283ZM4.56177 16.8534L8.59831 20.2172L9.79332 18.7832L5.75678 15.4194L4.56177 16.8534ZM8.59831 20.2172C9.05402 20.597 9.47087 20.9444 9.85357 21.2541L11.028 19.8032C10.6577 19.5035 10.2518 19.1652 9.79332 18.7832L8.59831 20.2172ZM11.028 21.2541C11.2905 21.0416 11.5314 20.8515 11.7561 20.682L10.6321 19.1917C10.3846 19.3783 10.1259 19.5827 9.85354 19.8032L11.028 21.2541ZM9.19581 19.5002C9.72887 19.9444 10.1956 20.3329 10.6106 20.6653L11.7776 19.2084C11.3794 18.8895 10.9273 18.5132 10.3908 18.0662L9.19581 19.5002ZM5.15928 16.1364L9.19581 19.5002L10.3908 18.0662L6.35429 14.7024L5.15928 16.1364ZM2.82512 13.7325C3.01108 14.1295 3.26819 14.4505 3.6314 14.8062C3.98112 15.1487 4.47307 15.5646 5.15928 16.1364L6.35429 14.7024C5.65242 14.1175 5.22301 13.7522 4.93746 13.4725C4.6654 13.2061 4.57332 13.064 4.51556 12.9407L2.82512 13.7325ZM2.47265 10.4004C2.47265 11.2936 2.47721 11.9378 2.51643 12.4257C2.55716 12.9324 2.63916 13.3354 2.82512 13.7325L4.51555 12.9407C4.45779 12.8174 4.40761 12.6557 4.3771 12.2761C4.34507 11.8777 4.33932 11.314 4.33932 10.4004H2.47265Z" fill="#1D266C" mask="url(#path-6-inside-2_2591_10151)"/>
</g>
<path fill-rule="evenodd" clip-rule="evenodd" d="M14.4551 7.13281L15.3126 7.53375L18.9853 9.25096L19.8428 9.6519L19.3887 10.4825L14.9173 18.6627L14.3489 18.5491L13.9028 18.5491L18.5312 10.0816L14.9663 8.41474L10.6225 19.4668L9.8544 18.8384L14.1088 8.01381L14.4551 7.13281Z" fill="#BF9A66"/>
<path fill-rule="evenodd" clip-rule="evenodd" d="M19.1237 9.31741C20.2546 9.0884 21.2661 8.34479 21.7924 7.21927C22.6739 5.33395 21.8601 3.09099 19.9748 2.20948C18.0895 1.32797 15.8465 2.14172 14.965 4.02704C14.4388 5.15256 14.5167 6.40554 15.0661 7.42022L14.45 7.13216L14.1921 7.78839C13.5447 6.5343 13.4652 5.00429 14.1092 3.6269C15.2117 1.26893 18.017 0.251176 20.3749 1.35368C22.7329 2.45618 23.7507 5.26144 22.6482 7.61941C22.0263 8.94948 20.8626 9.85312 19.543 10.1903L19.8377 9.65125L19.1237 9.31741Z" fill="#BF9A66"/>
<rect x="15.6836" y="10.1123" width="1.22032" height="2.50592" rx="0.610161" transform="rotate(25.0591 15.6836 10.1123)" fill="#BF9A66"/>
<path d="M15.4746 2.61914L22.5998 5.74801" stroke="#BF9A66" stroke-width="0.933333" stroke-linecap="round"/>
<path d="M14.4551 4.31055L21.6446 7.66565" stroke="#BF9A66" stroke-width="0.933333" stroke-linecap="round"/>
</g>
<defs>
<clipPath id="clip0_2591_10151">
<rect width="28" height="28" fill="white"/>
</clipPath>
</defs>
</svg>
