<svg width="20" height="16" viewBox="0 0 20 16" fill="none" xmlns="http://www.w3.org/2000/svg">
<path d="M1 3.99973L7.51423 8.34347C8.41297 8.94173 8.86188 9.24133 9.34718 9.358C9.77601 9.46075 10.2231 9.46075 10.6519 9.358C11.1372 9.24133 11.5861 8.94173 12.4839 8.34347L18.9981 3.99973M5.48063 15H14.5203C16.0882 15 16.8721 15 17.4713 14.6948C17.9978 14.4262 18.4257 13.9979 18.6939 13.4712C19 12.872 19 12.088 19 10.52V5.48C19 3.912 19 3.128 18.6948 2.5288C18.4264 2.00197 17.9981 1.57364 17.4713 1.3052C16.8721 1 16.0882 1 14.5203 1H5.4797C3.91181 1 3.12786 1 2.5287 1.3052C2.00225 1.5738 1.57429 2.00211 1.30611 2.5288C1 3.128 1 3.912 1 5.48V10.52C1 12.088 1 12.872 1.30518 13.4712C1.5736 13.998 2.0019 14.4264 2.5287 14.6948C3.12786 15 3.91274 15 5.48063 15Z" stroke="#4F4F4F" stroke-linecap="round" stroke-linejoin="round"/>
</svg>
