<svg width="54" height="54" viewBox="0 0 54 54" fill="none" xmlns="http://www.w3.org/2000/svg">
<g filter="url(#filter0_d_2056_9137)">
<circle cx="27" cy="27" r="20" fill="#2B39A1"/>
</g>
<path d="M18.75 19.5C18.1533 19.5 17.581 19.7371 17.159 20.159C16.7371 20.581 16.5 21.1533 16.5 21.75V22.9395C16.539 22.9535 16.577 22.9695 16.614 22.9875L26.511 27.765C26.82 27.915 27.18 27.915 27.489 27.765L37.386 22.9875L37.5 22.9395V21.75C37.5 21.1533 37.2629 20.581 36.841 20.159C36.419 19.7371 35.8467 19.5 35.25 19.5H18.75Z" fill="white"/>
<path d="M37.5 25.4307L28.467 29.7897C28.0095 30.0105 27.508 30.1252 27 30.1252C26.492 30.1252 25.9905 30.0105 25.533 29.7897L16.5 25.4307V32.2497C16.5 32.8464 16.7371 33.4187 17.159 33.8407C17.581 34.2626 18.1533 34.4997 18.75 34.4997H35.25C35.8467 34.4997 36.419 34.2626 36.841 33.8407C37.2629 33.4187 37.5 32.8464 37.5 32.2497V25.4307Z" fill="white"/>
<defs>
<filter id="filter0_d_2056_9137" x="0.5" y="0.5" width="53" height="53" filterUnits="userSpaceOnUse" color-interpolation-filters="sRGB">
<feFlood flood-opacity="0" result="BackgroundImageFix"/>
<feColorMatrix in="SourceAlpha" type="matrix" values="0 0 0 0 0 0 0 0 0 0 0 0 0 0 0 0 0 0 127 0" result="hardAlpha"/>
<feMorphology radius="0.5" operator="dilate" in="SourceAlpha" result="effect1_dropShadow_2056_9137"/>
<feOffset/>
<feGaussianBlur stdDeviation="3"/>
<feComposite in2="hardAlpha" operator="out"/>
<feColorMatrix type="matrix" values="0 0 0 0 0 0 0 0 0 0 0 0 0 0 0 0 0 0 0.2 0"/>
<feBlend mode="normal" in2="BackgroundImageFix" result="effect1_dropShadow_2056_9137"/>
<feBlend mode="normal" in="SourceGraphic" in2="effect1_dropShadow_2056_9137" result="shape"/>
</filter>
</defs>
</svg>
