<svg width="14" height="15" viewBox="0 0 14 15" fill="none" xmlns="http://www.w3.org/2000/svg">
<path d="M7 11.875C9.41625 11.875 11.375 9.91625 11.375 7.5C11.375 5.08375 9.41625 3.125 7 3.125C4.58375 3.125 2.625 5.08375 2.625 7.5C2.625 9.91625 4.58375 11.875 7 11.875Z" stroke="white" stroke-linecap="round" stroke-linejoin="round"/>
<path d="M7 9.25C7.9665 9.25 8.75 8.4665 8.75 7.5C8.75 6.5335 7.9665 5.75 7 5.75C6.0335 5.75 5.25 6.5335 5.25 7.5C5.25 8.4665 6.0335 9.25 7 9.25Z" stroke="white" stroke-linecap="round" stroke-linejoin="round"/>
<path d="M7 2.83366V1.66699" stroke="white" stroke-linecap="round" stroke-linejoin="round"/>
<path d="M2.33268 7.5H1.16602" stroke="white" stroke-linecap="round" stroke-linejoin="round"/>
<path d="M7 12.167V13.3337" stroke="white" stroke-linecap="round" stroke-linejoin="round"/>
<path d="M11.666 7.5H12.8327" stroke="white" stroke-linecap="round" stroke-linejoin="round"/>
</svg>
