<svg width="19" height="24" viewBox="0 0 19 24" fill="none" xmlns="http://www.w3.org/2000/svg">
<path fill-rule="evenodd" clip-rule="evenodd" d="M9.38032 7.74763L8.47266 7.32324L8.10614 8.25578L3.7515 19.3353C3.35906 20.3338 3.81032 21.4653 4.78216 21.9197C5.754 22.3741 6.91165 21.9948 7.42622 21.0534L13.1361 10.6076L13.6167 9.7284L12.709 9.30401L9.38032 7.74763ZM9.0138 8.68017L4.68219 19.7011C4.48286 20.2082 4.71207 20.783 5.20571 21.0138C5.69935 21.2446 6.28738 21.052 6.54875 20.5738L12.2284 10.1832L9.0138 8.68017Z" fill="#4F4F4F"/>
<path fill-rule="evenodd" clip-rule="evenodd" d="M12.7789 9.33933C13.883 9.16011 14.8822 8.45585 15.3917 7.36616C16.2105 5.61513 15.4547 3.53193 13.7036 2.71321C11.9526 1.89449 9.86939 2.65028 9.05067 4.40131C8.54117 5.491 8.64144 6.70934 9.21187 7.67151L8.46904 7.32419L8.22322 7.94963C7.60571 6.75252 7.53015 5.29233 8.1448 3.97776C9.19744 1.72643 11.8759 0.754701 14.1272 1.80734C16.3785 2.85998 17.3503 5.53838 16.2976 7.78971C15.7036 9.06014 14.5919 9.9231 13.3313 10.2448L13.6131 9.72935L12.7789 9.33933Z" fill="#4F4F4F"/>
<rect width="1.16514" height="2.39259" rx="0.582568" transform="matrix(0.905872 0.423552 -0.423554 0.905871 9.64648 10.167)" fill="#4F4F4F"/>
<path d="M9.44141 3.01562L16.2444 6.00299" stroke="#4F4F4F" stroke-linecap="round"/>
<path d="M8.46875 4.62988L15.3331 7.83325" stroke="#4F4F4F" stroke-linecap="round"/>
</svg>
