<svg width="20" height="24" viewBox="0 0 20 24" fill="none" xmlns="http://www.w3.org/2000/svg">
<path fill-rule="evenodd" clip-rule="evenodd" d="M9.60724 7.85373L8.47266 7.32324L8.01451 8.48891L3.7515 19.3353C3.35906 20.3338 3.81032 21.4653 4.78216 21.9197C5.754 22.3741 6.91165 21.9948 7.42622 21.0534L13.016 10.8274L13.6167 9.7284L12.4821 9.19791L9.60724 7.85373ZM9.14909 9.0194L4.91487 19.7925C4.76381 20.1769 4.93751 20.6124 5.3116 20.7873C5.68569 20.9623 6.13131 20.8163 6.32939 20.4539L11.8814 10.2969L9.14909 9.0194Z" fill="#5462CA"/>
<path fill-rule="evenodd" clip-rule="evenodd" d="M8.71164 4.24231C9.61808 2.30367 11.9245 1.46691 13.8631 2.37335C15.8018 3.27979 16.6386 5.58618 15.7321 7.52482C15.2447 8.56728 14.3525 9.29113 13.3303 9.59666L13.6137 9.72918L12.9419 10.9583C14.5968 10.7219 16.1035 9.68163 16.8644 8.05426C18.0633 5.49025 16.9566 2.43985 14.3926 1.24101C11.8286 0.0421665 8.77814 1.14886 7.5793 3.71287C6.79951 5.38062 6.99515 7.25415 7.9328 8.69008L8.4697 7.32402L8.66181 7.41384C8.24085 6.43356 8.22422 5.28477 8.71164 4.24231Z" fill="#5462CA"/>
<rect width="1.16514" height="2.39259" rx="0.582568" transform="matrix(0.905872 0.423552 -0.423554 0.905871 9.64648 10.167)" fill="#5462CA"/>
<path d="M9.44141 3.01562L16.2444 6.00299" stroke="#5462CA" stroke-width="1.25" stroke-linecap="round"/>
<path d="M8.4707 4.62988L15.7202 8.01296" stroke="#5462CA" stroke-width="1.25" stroke-linecap="round"/>
</svg>
