<svg width="16" height="17" viewBox="0 0 16 17" fill="none" xmlns="http://www.w3.org/2000/svg">
<path d="M9.33336 11.2738L6.69336 8.63379" stroke="#4F4F4F" stroke-miterlimit="10" stroke-linecap="round" stroke-linejoin="round"/>
<path d="M9.30602 8.66016L6.66602 11.3002" stroke="#4F4F4F" stroke-miterlimit="10" stroke-linecap="round" stroke-linejoin="round"/>
<path d="M6.66732 4.49967H9.33398C10.6673 4.49967 10.6673 3.83301 10.6673 3.16634C10.6673 1.83301 10.0007 1.83301 9.33398 1.83301H6.66732C6.00065 1.83301 5.33398 1.83301 5.33398 3.16634C5.33398 4.49967 6.00065 4.49967 6.66732 4.49967Z" stroke="#4F4F4F" stroke-miterlimit="10" stroke-linecap="round" stroke-linejoin="round"/>
<path d="M10.6667 3.17969C12.8867 3.29969 14 4.11969 14 7.16635V11.1664C14 13.833 13.3333 15.1664 10 15.1664H6C2.66667 15.1664 2 13.833 2 11.1664V7.16635C2 4.12635 3.11333 3.29969 5.33333 3.17969" stroke="#4F4F4F" stroke-miterlimit="10" stroke-linecap="round" stroke-linejoin="round"/>
</svg>
