<svg width="14" height="15" viewBox="0 0 14 15" fill="none" xmlns="http://www.w3.org/2000/svg">
<path d="M8.00985 2.54754L9.03651 4.60087C9.17651 4.88671 9.54985 5.16087 9.86485 5.21337L11.7257 5.52254C12.9157 5.72087 13.1957 6.58421 12.3382 7.43587L10.8915 8.88254C10.6465 9.12754 10.5123 9.60004 10.5882 9.93837L11.0023 11.7292C11.329 13.1467 10.5765 13.695 9.32235 12.9542L7.57818 11.9217C7.26318 11.735 6.74401 11.735 6.42318 11.9217L4.67901 12.9542C3.43068 13.695 2.67235 13.1409 2.99901 11.7292L3.41318 9.93837C3.48901 9.60004 3.35485 9.12754 3.10985 8.88254L1.66318 7.43587C0.811513 6.58421 1.08568 5.72087 2.27568 5.52254L4.13651 5.21337C4.44568 5.16087 4.81901 4.88671 4.95901 4.60087L5.98568 2.54754C6.54568 1.43337 7.45568 1.43337 8.00985 2.54754Z" fill="#FCAF20"/>
</svg>
