<svg width="16" height="16" viewBox="0 0 16 16" fill="none" xmlns="http://www.w3.org/2000/svg">
<path d="M8.00098 15.501C6.51762 15.501 5.06757 15.0611 3.8342 14.237C2.60084 13.4129 1.63954 12.2416 1.07188 10.8711C0.504226 9.50066 0.355701 7.99266 0.64509 6.5378C0.93448 5.08294 1.64879 3.74657 2.69768 2.69768C3.74657 1.64878 5.08294 0.93448 6.5378 0.64509C7.99266 0.355701 9.50066 0.504226 10.8711 1.07188C12.2416 1.63954 13.4129 2.60083 14.237 3.8342C15.0611 5.06757 15.501 6.51762 15.501 8.00098C15.4986 9.98937 14.7077 11.8956 13.3017 13.3016C11.8956 14.7077 9.98937 15.4986 8.00098 15.501ZM8.00098 1.50098C6.7154 1.50098 5.45869 1.8822 4.38977 2.59643C3.32085 3.31066 2.48773 4.32582 1.99576 5.51354C1.50379 6.70126 1.37507 8.00819 1.62588 9.26907C1.87668 10.5299 2.49574 11.6881 3.40479 12.5972C4.31383 13.5062 5.47202 14.1253 6.73289 14.3761C7.99377 14.6269 9.3007 14.4982 10.4884 14.0062C11.6761 13.5142 12.6913 12.6811 13.4055 11.6122C14.1198 10.5433 14.501 9.28656 14.501 8.00098C14.4989 6.27772 13.8134 4.62565 12.5948 3.40712C11.3763 2.1886 9.72424 1.5031 8.00098 1.50098Z" fill="#FFBA33"/>
<path d="M8.00098 12.18C7.86837 12.18 7.74119 12.1273 7.64742 12.0336C7.55365 11.9398 7.50098 11.8126 7.50098 11.68V6.99701C7.50098 6.8644 7.55365 6.73722 7.64742 6.64346C7.74119 6.54969 7.86837 6.49701 8.00098 6.49701C8.13358 6.49701 8.26076 6.54969 8.35453 6.64346C8.4483 6.73722 8.50098 6.8644 8.50098 6.99701V11.68C8.50098 11.8126 8.4483 11.9398 8.35453 12.0336C8.26076 12.1273 8.13358 12.18 8.00098 12.18Z" fill="#FFBA33"/>
<path d="M8.00098 5.50497C7.93568 5.50119 7.87131 5.4877 7.80998 5.46497C7.74982 5.43992 7.69563 5.40244 7.65098 5.35497C7.60173 5.31148 7.56395 5.25652 7.54098 5.19497C7.51344 5.13548 7.49976 5.07051 7.50098 5.00497C7.49908 4.93776 7.51147 4.87092 7.53733 4.80886C7.56319 4.7468 7.60193 4.69094 7.65098 4.64497C7.69827 4.60066 7.75185 4.56359 7.80998 4.53497C7.93201 4.48468 8.06896 4.48468 8.19098 4.53497C8.24926 4.56334 8.30288 4.60043 8.34998 4.64497C8.39932 4.69077 8.43831 4.74658 8.46435 4.80866C8.49039 4.87074 8.50288 4.93767 8.50098 5.00497C8.5022 5.07051 8.48853 5.13548 8.46098 5.19497C8.43335 5.25422 8.39581 5.30833 8.34998 5.35497C8.30552 5.40265 8.25128 5.44017 8.19098 5.46497C8.13 5.48771 8.06596 5.50119 8.00098 5.50497Z" fill="#FFBA33"/>
</svg>
