<svg width="15" height="14" viewBox="0 0 15 14" fill="none" xmlns="http://www.w3.org/2000/svg">
<path fill-rule="evenodd" clip-rule="evenodd" d="M0.416595 7.00013C0.416595 3.31866 3.58836 0.333466 7.49993 0.333466C11.412 0.333466 14.5833 3.31843 14.5833 7.00013C14.5833 10.6818 11.412 13.6668 7.49993 13.6668C3.58836 13.6668 0.416595 10.6816 0.416595 7.00013ZM13.5208 7.00013C13.5208 3.8707 10.8251 1.33347 7.49993 1.33347C4.17516 1.33347 1.4791 3.87094 1.4791 7.00013C1.4791 10.1293 4.17516 12.6668 7.49993 12.6668C10.8251 12.6668 13.5208 10.1296 13.5208 7.00013ZM7.49646 3.96953C7.76541 3.96953 7.98768 4.15763 8.02286 4.40169L8.02771 4.46953V7.41553C8.02771 7.69167 7.78986 7.91553 7.49646 7.91553C7.22751 7.91553 7.00524 7.72743 6.97006 7.48338L6.96521 7.41553V4.46953C6.96521 4.19339 7.20306 3.96953 7.49646 3.96953ZM8.03479 9.53073C8.03479 9.25459 7.79694 9.03073 7.50354 9.03073L7.42437 9.0353C7.16507 9.06841 6.96521 9.2776 6.96521 9.53073C6.96521 9.80687 7.20306 10.0307 7.49646 10.0307L7.57563 10.0262C7.83493 9.99306 8.03479 9.78386 8.03479 9.53073Z" fill="#E0AD70"/>
</svg>
