<svg width="16" height="16" viewBox="0 0 16 16" fill="none" xmlns="http://www.w3.org/2000/svg">
<path d="M14 4.66927V11.3359C14 13.3359 13 14.6693 10.6667 14.6693H5.33333C3 14.6693 2 13.3359 2 11.3359V4.66927C2 2.66927 3 1.33594 5.33333 1.33594H10.6667C13 1.33594 14 2.66927 14 4.66927Z" stroke="#AAAAAE" stroke-miterlimit="10" stroke-linecap="round" stroke-linejoin="round"/>
<path d="M10.3327 1.33594V6.57593C10.3327 6.86926 9.986 7.01592 9.77266 6.82259L8.22603 5.39596C8.09937 5.27596 7.89933 5.27596 7.77266 5.39596L6.22603 6.82259C6.0127 7.01592 5.66602 6.86926 5.66602 6.57593V1.33594H10.3327Z" stroke="#AAAAAE" stroke-miterlimit="10" stroke-linecap="round" stroke-linejoin="round"/>
<path d="M8.83398 9.33594H11.6673" stroke="#AAAAAE" stroke-miterlimit="10" stroke-linecap="round" stroke-linejoin="round"/>
<path d="M6 12H11.6667" stroke="#AAAAAE" stroke-miterlimit="10" stroke-linecap="round" stroke-linejoin="round"/>
</svg>
