<svg width="14" height="14" viewBox="0 0 14 14" fill="none" xmlns="http://www.w3.org/2000/svg">
<path d="M3.66375 12.8334C4.66891 12.8334 5.48375 12.0185 5.48375 11.0134C5.48375 10.0082 4.66891 9.19336 3.66375 9.19336C2.65859 9.19336 1.84375 10.0082 1.84375 11.0134C1.84375 12.0185 2.65859 12.8334 3.66375 12.8334Z" stroke="#666666" stroke-linecap="round" stroke-linejoin="round"/>
<path d="M12.1567 9.79999V2.68333C12.1567 1.16666 11.2059 0.95666 10.2434 1.21916L6.6034 2.21083C5.9384 2.39166 5.4834 2.91666 5.4834 3.67499V4.94083V5.79249V11.0075" stroke="#666666" stroke-linecap="round" stroke-linejoin="round"/>
<path d="M10.3366 11.62C11.3418 11.62 12.1566 10.8051 12.1566 9.79998C12.1566 8.79482 11.3418 7.97998 10.3366 7.97998C9.33144 7.97998 8.5166 8.79482 8.5166 9.79998C8.5166 10.8051 9.33144 11.62 10.3366 11.62Z" stroke="#666666" stroke-linecap="round" stroke-linejoin="round"/>
<path d="M5.4834 5.55328L12.1567 3.73328" stroke="#666666" stroke-linecap="round" stroke-linejoin="round"/>
</svg>
