<svg width="16" height="16" viewBox="0 0 16 16" fill="none" xmlns="http://www.w3.org/2000/svg">
<path d="M8.10671 7.24146C8.04004 7.23479 7.96004 7.23479 7.88671 7.24146C6.30004 7.18813 5.04004 5.88813 5.04004 4.28813C5.04004 2.65479 6.36004 1.32812 8.00004 1.32812C9.63337 1.32812 10.96 2.65479 10.96 4.28813C10.9534 5.88813 9.69337 7.18813 8.10671 7.24146Z" stroke="#318FA8" stroke-linecap="round" stroke-linejoin="round"/>
<path d="M4.77348 9.71188C3.16014 10.7919 3.16014 12.5519 4.77348 13.6252C6.60681 14.8519 9.61348 14.8519 11.4468 13.6252C13.0601 12.5452 13.0601 10.7852 11.4468 9.71188C9.62014 8.49188 6.61348 8.49188 4.77348 9.71188Z" stroke="#318FA8" stroke-linecap="round" stroke-linejoin="round"/>
</svg>
