<svg width="16" height="16" viewBox="0 0 16 16" fill="none" xmlns="http://www.w3.org/2000/svg">
<path d="M14.0538 5.72006V10.28C14.0538 11.0267 13.6538 11.7201 13.0071 12.1001L9.0471 14.3867C8.40043 14.7601 7.60044 14.7601 6.9471 14.3867L2.9871 12.1001C2.34043 11.7267 1.94043 11.0334 1.94043 10.28V5.72006C1.94043 4.9734 2.34043 4.28004 2.9871 3.90004L6.9471 1.61337C7.59377 1.24004 8.39377 1.24004 9.0471 1.61337L13.0071 3.90004C13.6538 4.28004 14.0538 4.96673 14.0538 5.72006Z" stroke="#318FA8" stroke-width="1.25" stroke-linecap="round" stroke-linejoin="round"/>
<path d="M6.5 8.00002V7.20001C6.5 6.17334 7.22668 5.75337 8.11334 6.2667L8.80666 6.66668L9.5 7.06667C10.3867 7.58 10.3867 8.42003 9.5 8.93337L8.80666 9.33335L8.11334 9.73333C7.22668 10.2467 6.5 9.82669 6.5 8.80003V8.00002Z" stroke="#318FA8" stroke-width="1.25" stroke-miterlimit="10" stroke-linecap="round" stroke-linejoin="round"/>
</svg>
