<svg width="27" height="26" viewBox="0 0 27 26" fill="none" xmlns="http://www.w3.org/2000/svg">
<path d="M2.3 9H24.7M2.3 17H24.7M1.5 13C1.5 14.5759 1.81039 16.1363 2.41345 17.5922C3.0165 19.0481 3.90042 20.371 5.01472 21.4853C6.12902 22.5996 7.45189 23.4835 8.9078 24.0866C10.3637 24.6896 11.9241 25 13.5 25C15.0759 25 16.6363 24.6896 18.0922 24.0866C19.5481 23.4835 20.871 22.5996 21.9853 21.4853C23.0996 20.371 23.9835 19.0481 24.5866 17.5922C25.1896 16.1363 25.5 14.5759 25.5 13C25.5 9.8174 24.2357 6.76516 21.9853 4.51472C19.7348 2.26428 16.6826 1 13.5 1C10.3174 1 7.26516 2.26428 5.01472 4.51472C2.76428 6.76516 1.5 9.8174 1.5 13Z" stroke="#2B39A1" stroke-width="1.25" stroke-linecap="round" stroke-linejoin="round"/>
<path d="M12.8335 1C10.5873 4.59948 9.39648 8.75715 9.39648 13C9.39648 17.2428 10.5873 21.4005 12.8335 25M14.1669 1C16.4131 4.59948 17.6039 8.75715 17.6039 13C17.6039 17.2428 16.4131 21.4005 14.1669 25" stroke="#2B39A1" stroke-width="1.25" stroke-linecap="round" stroke-linejoin="round"/>
</svg>
