<svg width="20" height="20" viewBox="0 0 20 20" fill="none" xmlns="http://www.w3.org/2000/svg">
<path d="M17.7085 15.3917L16.3335 15.7167C16.0252 15.7917 15.7835 16.025 15.7169 16.3333L15.4252 17.5583C15.2669 18.225 14.4169 18.4333 13.9752 17.9083L11.4835 15.0417C11.2835 14.8083 11.3919 14.4417 11.6919 14.3667C13.1669 14.0083 14.4919 13.1833 15.4669 12.0083C15.6252 11.8167 15.9085 11.7917 16.0835 11.9667L17.9335 13.8167C18.5669 14.45 18.3419 15.2417 17.7085 15.3917Z" fill="white"/>
<path d="M2.25014 15.3917L3.62514 15.7167C3.93347 15.7917 4.17514 16.025 4.2418 16.3333L4.53347 17.5583C4.6918 18.225 5.5418 18.4333 5.98347 17.9083L8.47514 15.0417C8.67514 14.8083 8.5668 14.4417 8.2668 14.3667C6.7918 14.0083 5.4668 13.1833 4.4918 12.0083C4.33347 11.8167 4.05014 11.7917 3.87514 11.9667L2.02514 13.8167C1.3918 14.45 1.6168 15.2417 2.25014 15.3917Z" fill="white"/>
<path d="M9.99984 1.66675C6.77484 1.66675 4.1665 4.27508 4.1665 7.50008C4.1665 8.70842 4.52484 9.81675 5.1415 10.7417C6.0415 12.0751 7.4665 13.0167 9.12484 13.2584C9.40817 13.3084 9.69984 13.3334 9.99984 13.3334C10.2998 13.3334 10.5915 13.3084 10.8748 13.2584C12.5332 13.0167 13.9582 12.0751 14.8582 10.7417C15.4748 9.81675 15.8332 8.70842 15.8332 7.50008C15.8332 4.27508 13.2248 1.66675 9.99984 1.66675ZM12.5498 7.31675L11.8582 8.00841C11.7415 8.12508 11.6748 8.35008 11.7165 8.51675L11.9165 9.37508C12.0748 10.0501 11.7165 10.3167 11.1165 9.95842L10.2832 9.46675C10.1332 9.37508 9.88317 9.37508 9.73317 9.46675L8.89984 9.95842C8.29984 10.3084 7.9415 10.0501 8.09984 9.37508L8.29984 8.51675C8.33317 8.35842 8.27484 8.12508 8.15817 8.00841L7.44984 7.31675C7.0415 6.90841 7.17484 6.50008 7.7415 6.40841L8.63317 6.25842C8.78317 6.23342 8.95817 6.10008 9.02484 5.96675L9.5165 4.98341C9.78317 4.45008 10.2165 4.45008 10.4832 4.98341L10.9748 5.96675C11.0415 6.10008 11.2165 6.23342 11.3748 6.25842L12.2665 6.40841C12.8248 6.50008 12.9582 6.90841 12.5498 7.31675Z" fill="white"/>
</svg>
