<svg width="21" height="20" viewBox="0 0 21 20" fill="none" xmlns="http://www.w3.org/2000/svg">
<path d="M16.3332 7.50008C16.3332 8.70842 15.9748 9.81676 15.3582 10.7418C14.4582 12.0751 13.0332 13.0168 11.3748 13.2584C11.0915 13.3084 10.7998 13.3334 10.4998 13.3334C10.1998 13.3334 9.90817 13.3084 9.62484 13.2584C7.9665 13.0168 6.5415 12.0751 5.6415 10.7418C5.02484 9.81676 4.6665 8.70842 4.6665 7.50008C4.6665 4.27508 7.27484 1.66675 10.4998 1.66675C13.7248 1.66675 16.3332 4.27508 16.3332 7.50008Z" stroke="white" stroke-linecap="round" stroke-linejoin="round"/>
<path d="M18.2082 15.3919L16.8332 15.7169C16.5249 15.7919 16.2832 16.0253 16.2166 16.3336L15.9249 17.5586C15.7666 18.2253 14.9166 18.4253 14.4749 17.9003L10.4999 13.3336L6.5249 17.9086C6.08324 18.4336 5.23324 18.2336 5.0749 17.5669L4.78324 16.3419C4.70824 16.0336 4.46657 15.7919 4.16657 15.7252L2.79157 15.4003C2.15824 15.2503 1.93324 14.4586 2.39157 14.0002L5.64157 10.7502C6.54157 12.0836 7.96657 13.0253 9.6249 13.2669C9.90824 13.3169 10.1999 13.3419 10.4999 13.3419C10.7999 13.3419 11.0916 13.3169 11.3749 13.2669C13.0332 13.0253 14.4582 12.0836 15.3582 10.7502L18.6082 14.0002C19.0666 14.4502 18.8416 15.2419 18.2082 15.3919Z" stroke="white" stroke-linecap="round" stroke-linejoin="round"/>
<path d="M10.9827 4.98325L11.4743 5.96658C11.541 6.09991 11.716 6.23325 11.8743 6.25825L12.766 6.40824C13.3327 6.49991 13.466 6.91658 13.0577 7.32492L12.366 8.01657C12.2493 8.13324 12.1827 8.35825 12.2243 8.52492L12.4243 9.38325C12.5827 10.0583 12.2243 10.3249 11.6243 9.96657L10.791 9.47491C10.641 9.38324 10.391 9.38324 10.241 9.47491L9.40766 9.96657C8.80766 10.3166 8.44933 10.0583 8.60766 9.38325L8.80766 8.52492C8.84099 8.36659 8.78266 8.13324 8.66599 8.01657L7.97433 7.32492C7.56599 6.91658 7.69933 6.50824 8.26599 6.40824L9.15766 6.25825C9.30766 6.23325 9.48266 6.09991 9.54933 5.96658L10.041 4.98325C10.2827 4.44992 10.716 4.44992 10.9827 4.98325Z" stroke="white" stroke-linecap="round" stroke-linejoin="round"/>
</svg>
