<svg width="20" height="20" viewBox="0 0 20 20" fill="none" xmlns="http://www.w3.org/2000/svg">
<path d="M6.9082 5.24175C6.5582 5.24175 6.2832 4.95841 6.2832 4.61675V2.29175C6.2832 1.95008 6.5582 1.66675 6.9082 1.66675C7.2582 1.66675 7.5332 1.95008 7.5332 2.29175V4.60842C7.5332 4.95842 7.2582 5.24175 6.9082 5.24175Z" fill="white"/>
<path d="M13.0918 5.24175C12.7418 5.24175 12.4668 4.95841 12.4668 4.61675V2.29175C12.4668 1.94175 12.7501 1.66675 13.0918 1.66675C13.4418 1.66675 13.7168 1.95008 13.7168 2.29175V4.60842C13.7168 4.95842 13.4418 5.24175 13.0918 5.24175Z" fill="white"/>
<path d="M16.3085 3.75008C15.7585 3.34175 14.9668 3.73341 14.9668 4.42508V4.50841C14.9668 5.48341 14.2668 6.38341 13.2918 6.48342C12.1668 6.60008 11.2168 5.71675 11.2168 4.61675V3.75008C11.2168 3.29175 10.8418 2.91675 10.3835 2.91675H9.61683C9.1585 2.91675 8.7835 3.29175 8.7835 3.75008V4.61675C8.7835 5.27508 8.44183 5.85841 7.92516 6.18341C7.85016 6.23341 7.76683 6.27508 7.6835 6.31675C7.6085 6.35841 7.52516 6.39175 7.4335 6.41675C7.3335 6.45008 7.22516 6.47508 7.1085 6.48342C6.97516 6.50008 6.84183 6.50008 6.7085 6.48342C6.59183 6.47508 6.4835 6.45008 6.3835 6.41675C6.30016 6.39175 6.21683 6.35841 6.1335 6.31675C6.05016 6.27508 5.96683 6.23341 5.89183 6.18341C5.36683 5.81675 5.0335 5.18341 5.0335 4.50841V4.42508C5.0335 3.78341 4.35016 3.40008 3.8085 3.67508C3.80016 3.68341 3.79183 3.68341 3.7835 3.69175C3.75016 3.70841 3.72516 3.72508 3.69183 3.75008C3.66683 3.77508 3.6335 3.79175 3.6085 3.81675C3.37516 4.00008 3.16683 4.20841 2.99183 4.43341C2.90016 4.53341 2.82516 4.64175 2.7585 4.75008C2.75016 4.75841 2.74183 4.76675 2.7335 4.78341C2.6585 4.89175 2.59183 5.01675 2.5335 5.13341C2.51683 5.15008 2.5085 5.15841 2.5085 5.17508C2.4585 5.27508 2.4085 5.37508 2.37516 5.48341C2.35016 5.52508 2.34183 5.55841 2.32516 5.60008C2.27516 5.72508 2.24183 5.85008 2.2085 5.97508C2.17516 6.09175 2.15016 6.21675 2.1335 6.34175C2.11683 6.43341 2.1085 6.52508 2.10016 6.62508C2.09183 6.74175 2.0835 6.85841 2.0835 6.97508V14.2751C2.0835 16.5167 3.90016 18.3334 6.14183 18.3334H13.8585C16.1002 18.3334 17.9168 16.5167 17.9168 14.2751V6.97508C17.9168 5.65008 17.2835 4.49175 16.3085 3.75008ZM10.0002 14.5167H6.1335C5.79183 14.5167 5.5085 14.2334 5.5085 13.8917C5.5085 13.5417 5.79183 13.2584 6.1335 13.2584H10.0002C10.3502 13.2584 10.6252 13.5417 10.6252 13.8917C10.6252 14.2334 10.3502 14.5167 10.0002 14.5167ZM12.3168 11.4251H6.1335C5.79183 11.4251 5.5085 11.1417 5.5085 10.8001C5.5085 10.4501 5.79183 10.1667 6.1335 10.1667H12.3168C12.6668 10.1667 12.9502 10.4501 12.9502 10.8001C12.9502 11.1417 12.6668 11.4251 12.3168 11.4251Z" fill="white"/>
</svg>
