<svg width="18" height="18" viewBox="0 0 18 18" fill="none" xmlns="http://www.w3.org/2000/svg">
<path d="M9.09493 9.62462C9.03893 9.61662 8.96693 9.61662 8.90293 9.62462C7.49497 9.57662 6.375 8.42466 6.375 7.00869C6.375 5.56073 7.54297 4.38477 8.99893 4.38477C10.4469 4.38477 11.6229 5.56073 11.6229 7.00869C11.6149 8.42466 10.5029 9.57662 9.09493 9.62462Z" stroke="#B9976C" stroke-width="1.25" stroke-linecap="round" stroke-linejoin="round"/>
<path d="M14.3892 14.904C12.9652 16.2079 11.0773 16.9999 8.99732 16.9999C6.91738 16.9999 5.02943 16.2079 3.60547 14.904C3.68547 14.152 4.16545 13.416 5.02143 12.84C7.21337 11.3841 10.7973 11.3841 12.9732 12.84C13.8292 13.416 14.3092 14.152 14.3892 14.904Z" stroke="#B9976C" stroke-width="1.25" stroke-linecap="round" stroke-linejoin="round"/>
<path d="M8.99978 16.9996C13.4179 16.9996 16.9996 13.4179 16.9996 8.99978C16.9996 4.58162 13.4179 1 8.99978 1C4.58162 1 1 4.58162 1 8.99978C1 13.4179 4.58162 16.9996 8.99978 16.9996Z" stroke="#B9976C" stroke-width="1.25" stroke-linecap="round" stroke-linejoin="round"/>
</svg>
