<svg width="29" height="26" viewBox="0 0 29 26" fill="none" xmlns="http://www.w3.org/2000/svg">
<path d="M28.3473 3.07417V19.9183C28.3473 21.2925 27.2282 22.5533 25.854 22.7233L25.4148 22.78C23.0915 23.0917 19.819 24.055 17.184 25.16C16.2632 25.5425 15.2432 24.8483 15.2432 23.8425V4.13667C15.2432 3.6125 15.5407 3.13083 16.0082 2.87583C18.6007 1.47333 22.5248 0.226667 25.1882 0H25.2732C26.9732 0 28.3473 1.37417 28.3473 3.07417Z" fill="#2B39A1"/>
<path d="M12.3533 2.87583C9.76083 1.47333 5.83667 0.226667 3.17333 0H3.07417C1.37417 0 0 1.37417 0 3.07417V19.9183C0 21.2925 1.11917 22.5533 2.49333 22.7233L2.9325 22.78C5.25583 23.0917 8.52833 24.055 11.1633 25.16C12.0842 25.5425 13.1042 24.8483 13.1042 23.8425V4.13667C13.1042 3.59833 12.8208 3.13083 12.3533 2.87583ZM4.26417 7.16833H7.45167C8.0325 7.16833 8.51417 7.65 8.51417 8.23083C8.51417 8.82583 8.0325 9.29333 7.45167 9.29333H4.26417C3.68333 9.29333 3.20167 8.82583 3.20167 8.23083C3.20167 7.65 3.68333 7.16833 4.26417 7.16833ZM8.51417 13.5433H4.26417C3.68333 13.5433 3.20167 13.0758 3.20167 12.4808C3.20167 11.9 3.68333 11.4183 4.26417 11.4183H8.51417C9.095 11.4183 9.57667 11.9 9.57667 12.4808C9.57667 13.0758 9.095 13.5433 8.51417 13.5433Z" fill="#2B39A1"/>
</svg>
