<svg width="29" height="27" viewBox="0 0 29 27" fill="none" xmlns="http://www.w3.org/2000/svg">
<path d="M15.1466 24.7287C15.5358 24.8192 15.5714 25.329 15.1924 25.4554L12.954 26.192C7.32985 28.0054 4.36902 26.4895 2.54152 20.8654L0.728185 15.2695C-1.08515 9.64535 0.416518 6.67035 6.04068 4.85702L7.20635 4.47099C7.60921 4.33757 7.99613 4.73967 7.87217 5.14554C7.74581 5.55923 7.62788 6.00139 7.51402 6.47202L6.12568 12.4079C4.56735 19.0804 6.84818 22.7637 13.5207 24.3504L15.1466 24.7287Z" fill="#2B39A1"/>
<path d="M21.5106 1.00377L19.1448 0.45127C14.4131 -0.667897 11.594 0.252936 9.93645 3.68127C9.51145 4.54544 9.17145 5.59377 8.88812 6.79794L7.49979 12.7338C6.11145 18.6554 7.93895 21.5738 13.8465 22.9763L16.2265 23.5429C17.0481 23.7413 17.8131 23.8688 18.5215 23.9254C22.9415 24.3504 25.2931 22.2821 26.4831 17.1679L27.8715 11.2463C29.2598 5.3246 27.4465 2.3921 21.5106 1.00377ZM18.8473 15.3404C18.7198 15.8221 18.2948 16.1338 17.8131 16.1338C17.7281 16.1338 17.6431 16.1196 17.544 16.1054L13.4215 15.0571C12.8548 14.9154 12.5148 14.3346 12.6565 13.7679C12.7981 13.2013 13.379 12.8613 13.9456 13.0029L18.0681 14.0513C18.649 14.1929 18.989 14.7738 18.8473 15.3404ZM22.9981 10.5521C22.8706 11.0338 22.4456 11.3454 21.964 11.3454C21.879 11.3454 21.794 11.3313 21.6948 11.3171L14.824 9.5746C14.2573 9.43294 13.9173 8.8521 14.059 8.28544C14.2006 7.71877 14.7815 7.37877 15.3481 7.52044L22.219 9.26294C22.7998 9.39044 23.1398 9.97127 22.9981 10.5521Z" fill="#2B39A1"/>
</svg>
