<svg width="29" height="29" viewBox="0 0 29 29" fill="none" xmlns="http://www.w3.org/2000/svg">
<path d="M9.97331 0C6.26164 0 3.24414 3.0175 3.24414 6.72917C3.24414 10.37 6.09164 13.3167 9.80331 13.4442C9.91664 13.43 10.03 13.43 10.115 13.4442C10.1433 13.4442 10.1575 13.4442 10.1858 13.4442C10.2 13.4442 10.2 13.4442 10.2141 13.4442C13.8408 13.3167 16.6883 10.37 16.7025 6.72917C16.7025 3.0175 13.685 0 9.97331 0Z" fill="#2B39A1"/>
<path d="M17.17 17.2126C13.2175 14.5776 6.77167 14.5776 2.79083 17.2126C0.991667 18.4167 0 20.0459 0 21.7884C0 23.5309 0.991667 25.1459 2.77667 26.3359C4.76 27.6676 7.36667 28.3334 9.97333 28.3334C12.58 28.3334 15.1867 27.6676 17.17 26.3359C18.955 25.1317 19.9467 23.5167 19.9467 21.7601C19.9325 20.0176 18.955 18.4026 17.17 17.2126Z" fill="#2B39A1"/>
<path d="M25.5424 7.56514C25.7691 10.3135 23.8141 12.7218 21.1082 13.0476C21.0941 13.0476 21.0941 13.0476 21.0799 13.0476H21.0374C20.9524 13.0476 20.8674 13.0476 20.7966 13.076C19.4224 13.1468 18.1616 12.7076 17.2124 11.9001C18.6716 10.5968 19.5074 8.64181 19.3374 6.51681C19.2382 5.36931 18.8416 4.32097 18.2466 3.42847C18.7849 3.15931 19.4082 2.98931 20.0457 2.93264C22.8224 2.69181 25.3016 4.76014 25.5424 7.56514Z" fill="#2B39A1"/>
<path d="M28.3758 20.6692C28.2625 22.0434 27.3841 23.2334 25.9108 24.0409C24.4941 24.8201 22.7091 25.1884 20.9383 25.1459C21.9583 24.2251 22.5533 23.0776 22.6666 21.8592C22.8083 20.1026 21.9725 18.4167 20.3008 17.0709C19.3516 16.3201 18.2466 15.7251 17.0425 15.2859C20.1733 14.3792 24.1116 14.9884 26.5341 16.9434C27.8375 17.9917 28.5033 19.3092 28.3758 20.6692Z" fill="#2B39A1"/>
</svg>
