<svg width="16" height="16" viewBox="0 0 16 16" fill="none" xmlns="http://www.w3.org/2000/svg">
<path d="M14.6667 5.51325V2.81992C14.6667 1.75992 14.24 1.33325 13.18 1.33325H10.4867C9.42667 1.33325 9 1.75992 9 2.81992V5.51325C9 6.57325 9.42667 6.99992 10.4867 6.99992H13.18C14.24 6.99992 14.6667 6.57325 14.6667 5.51325Z" stroke="#2B39A1" stroke-width="1.25" stroke-linecap="round" stroke-linejoin="round"/>
<path d="M6.99967 5.67992V2.65325C6.99967 1.71325 6.57301 1.33325 5.51301 1.33325H2.81967C1.75967 1.33325 1.33301 1.71325 1.33301 2.65325V5.67325C1.33301 6.61992 1.75967 6.99325 2.81967 6.99325H5.51301C6.57301 6.99992 6.99967 6.61992 6.99967 5.67992Z" stroke="#2B39A1" stroke-width="1.25" stroke-linecap="round" stroke-linejoin="round"/>
<path d="M6.99967 13.18V10.4867C6.99967 9.42667 6.57301 9 5.51301 9H2.81967C1.75967 9 1.33301 9.42667 1.33301 10.4867V13.18C1.33301 14.24 1.75967 14.6667 2.81967 14.6667H5.51301C6.57301 14.6667 6.99967 14.24 6.99967 13.18Z" stroke="#2B39A1" stroke-width="1.25" stroke-linecap="round" stroke-linejoin="round"/>
<path d="M10 10.3333H14" stroke="#2B39A1" stroke-width="1.25" stroke-linecap="round"/>
<path d="M10 13H14" stroke="#2B39A1" stroke-width="1.25" stroke-linecap="round"/>
</svg>
