<svg width="16" height="16" viewBox="0 0 16 16" fill="none" xmlns="http://www.w3.org/2000/svg">
<path d="M13.3332 7.00008C13.1564 7.00008 12.9868 7.07032 12.8618 7.19534C12.7367 7.32037 12.6665 7.48994 12.6665 7.66675V12.3334C12.6665 12.5102 12.5963 12.6798 12.4712 12.8048C12.3462 12.9298 12.1766 13.0001 11.9998 13.0001H2.6665C2.48969 13.0001 2.32012 12.9298 2.1951 12.8048C2.07008 12.6798 1.99984 12.5102 1.99984 12.3334V7.00008C1.99984 6.82327 2.07008 6.6537 2.1951 6.52868C2.32012 6.40365 2.48969 6.33342 2.6665 6.33342H3.99984C4.14521 6.341 4.28908 6.3008 4.40946 6.21894C4.52984 6.13708 4.62012 6.01807 4.6665 5.88008L5.0265 4.78675C5.07123 4.65433 5.15644 4.53932 5.27008 4.45798C5.38373 4.37663 5.52007 4.33305 5.65984 4.33341H9.33317C9.50998 4.33341 9.67955 4.26318 9.80457 4.13815C9.9296 4.01313 9.99984 3.84356 9.99984 3.66675C9.99984 3.48994 9.9296 3.32037 9.80457 3.19534C9.67955 3.07032 9.50998 3.00008 9.33317 3.00008H5.6265C5.20754 3.00087 4.79939 3.1332 4.45968 3.37842C4.11997 3.62363 3.86584 3.96934 3.73317 4.36675L3.51984 5.03341H2.6665C2.13607 5.03341 1.62736 5.24413 1.25229 5.6192C0.877218 5.99427 0.666504 6.50298 0.666504 7.03341V12.3667C0.666504 12.8972 0.877218 13.4059 1.25229 13.781C1.62736 14.156 2.13607 14.3667 2.6665 14.3667H11.9998C12.5303 14.3667 13.039 14.156 13.4141 13.781C13.7891 13.4059 13.9998 12.8972 13.9998 12.3667V7.70008C14.0044 7.60977 13.9905 7.51948 13.959 7.43471C13.9275 7.34994 13.8791 7.27246 13.8168 7.20698C13.7544 7.1415 13.6794 7.08939 13.5962 7.05382C13.5131 7.01825 13.4236 6.99997 13.3332 7.00008ZM7.33317 6.33342C6.80575 6.33342 6.29018 6.48981 5.85165 6.78283C5.41312 7.07585 5.07133 7.49232 4.86949 7.97959C4.66766 8.46686 4.61485 9.00304 4.71774 9.52032C4.82064 10.0376 5.07461 10.5128 5.44755 10.8857C5.82049 11.2586 6.29565 11.5126 6.81293 11.6155C7.33021 11.7184 7.86639 11.6656 8.35366 11.4638C8.84093 11.2619 9.25741 10.9201 9.55042 10.4816C9.84344 10.0431 9.99984 9.5275 9.99984 9.00008C9.99984 8.29284 9.71889 7.61456 9.21879 7.11446C8.71869 6.61437 8.04041 6.33342 7.33317 6.33342ZM7.33317 10.3334C7.06946 10.3334 6.81168 10.2552 6.59241 10.1087C6.37314 9.9622 6.20225 9.75396 6.10133 9.51033C6.00041 9.26669 5.97401 8.9986 6.02546 8.73996C6.0769 8.48132 6.20389 8.24374 6.39036 8.05727C6.57683 7.8708 6.81441 7.74381 7.07305 7.69237C7.33169 7.64092 7.59978 7.66733 7.84341 7.76824C8.08705 7.86916 8.29529 8.04006 8.4418 8.25932C8.5883 8.47859 8.6665 8.73637 8.6665 9.00008C8.6665 9.3537 8.52603 9.69284 8.27598 9.94289C8.02593 10.1929 7.68679 10.3334 7.33317 10.3334ZM14.6665 3.00008H13.9998V2.33341C13.9998 2.1566 13.9296 1.98703 13.8046 1.86201C13.6796 1.73699 13.51 1.66675 13.3332 1.66675C13.1564 1.66675 12.9868 1.73699 12.8618 1.86201C12.7367 1.98703 12.6665 2.1566 12.6665 2.33341V3.00008H11.9998C11.823 3.00008 11.6535 3.07032 11.5284 3.19534C11.4034 3.32037 11.3332 3.48994 11.3332 3.66675C11.3332 3.84356 11.4034 4.01313 11.5284 4.13815C11.6535 4.26318 11.823 4.33341 11.9998 4.33341H12.6665V5.00008C12.6665 5.17689 12.7367 5.34646 12.8618 5.47149C12.9868 5.59651 13.1564 5.66675 13.3332 5.66675C13.51 5.66675 13.6796 5.59651 13.8046 5.47149C13.9296 5.34646 13.9998 5.17689 13.9998 5.00008V4.33341H14.6665C14.8433 4.33341 15.0129 4.26318 15.1379 4.13815C15.2629 4.01313 15.3332 3.84356 15.3332 3.66675C15.3332 3.48994 15.2629 3.32037 15.1379 3.19534C15.0129 3.07032 14.8433 3.00008 14.6665 3.00008Z" fill="#2B39A1" stroke="#2B39A1" stroke-width="0.2"/>
</svg>
