<svg width="16" height="17" viewBox="0 0 16 17" fill="none" xmlns="http://www.w3.org/2000/svg">
<path d="M8.67367 2.44663L12.607 4.1933C13.7403 4.6933 13.7403 5.51996 12.607 6.01996L8.67367 7.76663C8.22701 7.96663 7.49367 7.96663 7.04701 7.76663L3.11367 6.01996C1.98034 5.51996 1.98034 4.6933 3.11367 4.1933L7.04701 2.44663C7.49367 2.24663 8.22701 2.24663 8.67367 2.44663Z" stroke="#2B39A1" stroke-width="1.25" stroke-linecap="round" stroke-linejoin="round"/>
<path d="M2 7.83325C2 8.39325 2.42 9.03992 2.93333 9.26658L7.46 11.2799C7.80667 11.4333 8.2 11.4333 8.54 11.2799L13.0667 9.26658C13.58 9.03992 14 8.39325 14 7.83325" stroke="#2B39A1" stroke-width="1.25" stroke-linecap="round" stroke-linejoin="round"/>
<path d="M2 11.1667C2 11.7867 2.36667 12.3467 2.93333 12.6001L7.46 14.6134C7.80667 14.7667 8.2 14.7667 8.54 14.6134L13.0667 12.6001C13.6333 12.3467 14 11.7867 14 11.1667" stroke="#2B39A1" stroke-width="1.25" stroke-linecap="round" stroke-linejoin="round"/>
</svg>
