<svg width="18" height="18" viewBox="0 0 18 18" fill="none" xmlns="http://www.w3.org/2000/svg">
<path d="M14.0173 8.6476C13.5898 8.5351 13.0873 8.4751 12.4873 8.4751C11.6548 8.4751 11.3473 8.6776 10.9198 9.0001C10.8973 9.0151 10.8748 9.0376 10.8523 9.0601L10.1398 9.8176C9.54727 10.4551 8.45976 10.4551 7.85977 9.8176L7.14727 9.0676C7.12477 9.0376 7.10226 9.0151 7.07977 9.0001C6.64476 8.6776 6.33727 8.4751 5.51227 8.4751C4.91227 8.4751 4.40977 8.5276 3.98227 8.6476C2.19727 9.1276 2.19727 10.5451 2.19727 11.7901V12.4876C2.19727 14.3701 2.19727 16.5001 6.20977 16.5001H11.7898C14.4523 16.5001 15.8023 15.1501 15.8023 12.4876V11.7901C15.8023 10.5451 15.8023 9.1276 14.0173 8.6476Z" fill="#2B39A1"/>
<path d="M11.0923 1.5H6.90729C3.59229 1.5 3.59229 3.2625 3.59229 4.815V7.59C3.62229 7.575 3.65979 7.5675 3.68979 7.56C4.21479 7.4175 4.80729 7.35 5.51229 7.35C6.66728 7.35 7.21479 7.6875 7.75479 8.1C7.82979 8.1525 7.90479 8.22 7.97229 8.295L8.67729 9.0375C8.75229 9.12 8.87229 9.165 8.99979 9.165C9.12729 9.165 9.24729 9.12 9.31479 9.045L10.0348 8.2875C10.0948 8.2275 10.1623 8.16 10.2373 8.1075C10.7923 7.6875 11.3323 7.35 12.4873 7.35C13.1923 7.35 13.7848 7.4175 14.3098 7.56C14.3398 7.5675 14.3773 7.575 14.4073 7.59V4.815C14.4073 3.2625 14.4073 1.5 11.0923 1.5ZM10.1623 6.375H7.83729C7.55228 6.375 7.31229 6.135 7.31229 5.85C7.31229 5.5575 7.55228 5.325 7.83729 5.325H10.1623C10.4473 5.325 10.6873 5.5575 10.6873 5.85C10.6873 6.135 10.4473 6.375 10.1623 6.375ZM10.7473 4.2825H7.25229C6.96729 4.2825 6.73478 4.0425 6.73478 3.7575C6.73478 3.465 6.96729 3.2325 7.25229 3.2325H10.7473C11.0323 3.2325 11.2648 3.465 11.2648 3.7575C11.2648 4.0425 11.0323 4.2825 10.7473 4.2825Z" fill="#2B39A1"/>
</svg>
