<svg width="16" height="16" viewBox="0 0 16 16" fill="none" xmlns="http://www.w3.org/2000/svg">
<g clip-path="url(#clip0_1148_2177)">
<path d="M3.33203 4.66667C3.33203 5.37391 3.61298 6.05219 4.11308 6.55229C4.61318 7.05238 5.29145 7.33333 5.9987 7.33333C6.70594 7.33333 7.38422 7.05238 7.88432 6.55229C8.38441 6.05219 8.66536 5.37391 8.66536 4.66667C8.66536 3.95942 8.38441 3.28115 7.88432 2.78105C7.38422 2.28095 6.70594 2 5.9987 2C5.29145 2 4.61318 2.28095 4.11308 2.78105C3.61298 3.28115 3.33203 3.95942 3.33203 4.66667Z" stroke="#2B39A1" stroke-width="1.25" stroke-linecap="round" stroke-linejoin="round"/>
<path d="M2 14V12.6667C2 11.9594 2.28095 11.2811 2.78105 10.781C3.28115 10.281 3.95942 10 4.66667 10H7.33333C8.04058 10 8.71885 10.281 9.21895 10.781C9.71905 11.2811 10 11.9594 10 12.6667V14" stroke="#2B39A1" stroke-width="1.25" stroke-linecap="round" stroke-linejoin="round"/>
<path d="M10.668 2.08667C11.2416 2.23354 11.75 2.56714 12.1131 3.03488C12.4761 3.50262 12.6732 4.07789 12.6732 4.67C12.6732 5.26212 12.4761 5.83739 12.1131 6.30513C11.75 6.77287 11.2416 7.10647 10.668 7.25334" stroke="#2B39A1" stroke-width="1.25" stroke-linecap="round" stroke-linejoin="round"/>
<path d="M14 14.0001V12.6668C13.9966 12.0782 13.7986 11.5073 13.4368 11.043C13.0751 10.5788 12.5699 10.2472 12 10.1001" stroke="#2B39A1" stroke-width="1.25" stroke-linecap="round" stroke-linejoin="round"/>
</g>
<defs>
<clipPath id="clip0_1148_2177">
<rect width="16" height="16" fill="white"/>
</clipPath>
</defs>
</svg>
