<svg width="16" height="17" viewBox="0 0 16 17" fill="none" xmlns="http://www.w3.org/2000/svg">
<g clip-path="url(#clip0_1148_1810)">
<path d="M5.33301 5.16667C5.33301 5.87391 5.61396 6.55219 6.11406 7.05229C6.61415 7.55238 7.29243 7.83333 7.99967 7.83333C8.70692 7.83333 9.3852 7.55238 9.88529 7.05229C10.3854 6.55219 10.6663 5.87391 10.6663 5.16667C10.6663 4.45942 10.3854 3.78115 9.88529 3.28105C9.3852 2.78095 8.70692 2.5 7.99967 2.5C7.29243 2.5 6.61415 2.78095 6.11406 3.28105C5.61396 3.78115 5.33301 4.45942 5.33301 5.16667Z" stroke="#2B39A1" stroke-width="1.25" stroke-linecap="round" stroke-linejoin="round"/>
<path d="M4 14.5V13.1667C4 12.4594 4.28095 11.7811 4.78105 11.281C5.28115 10.781 5.95942 10.5 6.66667 10.5H9.33333C10.0406 10.5 10.7189 10.781 11.219 11.281C11.719 11.7811 12 12.4594 12 13.1667V14.5" stroke="#2B39A1" stroke-width="1.25" stroke-linecap="round" stroke-linejoin="round"/>
</g>
<defs>
<clipPath id="clip0_1148_1810">
<rect width="16" height="16" fill="white" transform="translate(0 0.5)"/>
</clipPath>
</defs>
</svg>
