<svg width="12" height="13" viewBox="0 0 12 13" fill="none" xmlns="http://www.w3.org/2000/svg">
<path fill-rule="evenodd" clip-rule="evenodd" d="M3.21959 6.78222C3.07899 6.64157 3 6.45084 3 6.25197C3 6.05309 3.07899 5.86236 3.21959 5.72172L7.46234 1.47897C7.53152 1.40733 7.61428 1.3502 7.70579 1.31089C7.79729 1.27158 7.8957 1.25089 7.99529 1.25003C8.09487 1.24916 8.19363 1.26814 8.2858 1.30585C8.37798 1.34356 8.46172 1.39925 8.53214 1.46967C8.60256 1.54009 8.65825 1.62383 8.69596 1.716C8.73367 1.80817 8.75264 1.90693 8.75178 2.00652C8.75091 2.1061 8.73022 2.20452 8.69092 2.29602C8.65161 2.38752 8.59447 2.47028 8.52284 2.53947L4.81034 6.25197L8.52284 9.96447C8.65946 10.1059 8.73505 10.2954 8.73335 10.492C8.73164 10.6887 8.65276 10.8768 8.5137 11.0158C8.37465 11.1549 8.18654 11.2338 7.98989 11.2355C7.79324 11.2372 7.60379 11.1616 7.46234 11.025L3.21959 6.78222Z" fill="#838383"/>
</svg>
