<svg width="12" height="12" viewBox="0 0 12 12" fill="none" xmlns="http://www.w3.org/2000/svg">
<path d="M6 0C5.20069 0.000113241 4.40954 0.160619 3.67338 0.472012C2.93723 0.783405 2.27105 1.23935 1.71429 1.81286V0H0.857143V3.42857H4.28571V2.57143H2.17714C2.98115 1.67798 4.07271 1.09437 5.26222 0.921945C6.45174 0.74952 7.66408 0.999178 8.68868 1.62756C9.71329 2.25594 10.4854 3.22335 10.871 4.36177C11.2566 5.50019 11.2313 6.73771 10.7994 7.85939C10.3676 8.98108 9.55649 9.91608 8.50703 10.502C7.45757 11.0879 6.23603 11.2878 5.05457 11.0668C3.8731 10.8459 2.80635 10.2181 2.03957 9.29247C1.27279 8.36687 0.854429 7.20194 0.857143 6H0C0 7.18669 0.351894 8.34672 1.01118 9.33342C1.67047 10.3201 2.60754 11.0891 3.7039 11.5433C4.80026 11.9974 6.00665 12.1162 7.17054 11.8847C8.33443 11.6532 9.40352 11.0818 10.2426 10.2426C11.0818 9.40352 11.6532 8.33443 11.8847 7.17054C12.1162 6.00665 11.9974 4.80026 11.5433 3.7039C11.0891 2.60754 10.3201 1.67047 9.33342 1.01118C8.34672 0.351894 7.18669 0 6 0Z" fill="#2B39A1"/>
</svg>
