<svg width="15" height="14" viewBox="0 0 15 14" fill="none" xmlns="http://www.w3.org/2000/svg">
<path d="M8.50936 2.04754L9.53602 4.10087C9.67602 4.38671 10.0494 4.66087 10.3644 4.71337L12.2252 5.02254C13.4152 5.22087 13.6952 6.08421 12.8377 6.93587L11.391 8.38254C11.146 8.62754 11.0119 9.10004 11.0877 9.43837L11.5019 11.2292C11.8285 12.6467 11.076 13.195 9.82186 12.4542L8.07769 11.4217C7.76269 11.235 7.24352 11.235 6.92269 11.4217L5.17852 12.4542C3.93019 13.195 3.17186 12.6409 3.49852 11.2292L3.91269 9.43837C3.98852 9.10004 3.85436 8.62754 3.60936 8.38254L2.16269 6.93587C1.31102 6.08421 1.58519 5.22087 2.77519 5.02254L4.63602 4.71337C4.94519 4.66087 5.31852 4.38671 5.45852 4.10087L6.48519 2.04754C7.04519 0.933372 7.95519 0.933372 8.50936 2.04754Z" fill="#FCAF20"/>
</svg>
