<svg width="65" height="73" viewBox="0 0 65 73" fill="none" xmlns="http://www.w3.org/2000/svg">
<path d="M59.8471 35.5022H5.1527C3.17986 35.5022 1.58057 37.1015 1.58057 39.0743V67.6369C1.58057 69.6097 3.17987 71.209 5.1527 71.209H59.8471C61.8199 71.209 63.4192 69.6097 63.4192 67.6369V39.0743C63.4192 37.1015 61.8199 35.5022 59.8471 35.5022Z" stroke="#BE9966" stroke-width="3" stroke-linecap="round" stroke-linejoin="round"/>
<path d="M23.4468 71.1249V57.2716C23.4468 52.2717 27.5 48.2186 32.4998 48.2186C37.4997 48.2186 41.5528 52.2717 41.5528 57.2716V71.1249H23.4468Z" stroke="#BE9966" stroke-width="3" stroke-linecap="round" stroke-linejoin="round"/>
<path d="M11.4953 35.2495C6.31335 19.0192 16.5833 7.71146 32.4998 2.15332C48.4162 7.71146 58.6863 19.0192 53.5044 35.2495H11.4953Z" stroke="#BE9966" stroke-width="3" stroke-linecap="round" stroke-linejoin="round"/>
</svg>
