<svg width="57" height="76" viewBox="0 0 57 76" fill="none" xmlns="http://www.w3.org/2000/svg">
<path d="M15.9624 55.7696C15.8724 54.4713 15.5168 36.6713 25.1215 20.8994C29.534 13.7011 36.0306 6.85993 45.5957 2.3172C41.0633 10.8643 37.0407 25.8454 37.0407 25.8454L26.1283 32.7793L35.8559 31.7012C33.9716 38.4628 27.0377 46.5516 16.4942 46.5516" stroke="#BE9966" stroke-width="3" stroke-miterlimit="10" stroke-linecap="round" stroke-linejoin="round"/>
<path d="M27.6873 56.9845L35.8095 63.3398C37.8198 64.9127 38.6337 67.5738 37.8471 70.0022C37.0348 72.5102 34.6988 74.2091 32.0625 74.2091H7.9728C5.33647 74.2091 3.00048 72.5102 2.18814 70.0022C1.40163 67.5738 2.2155 64.9127 4.22578 63.3398L12.348 56.9845H27.6873Z" fill="white" stroke="#BE9966" stroke-width="3" stroke-linecap="round" stroke-linejoin="round"/>
<path d="M35.9133 56.9845L4.12228 56.9845" stroke="#BE9966" stroke-width="3" stroke-linecap="round" stroke-linejoin="round"/>
</svg>
