<svg width="197" height="137" viewBox="0 0 197 137" fill="none" xmlns="http://www.w3.org/2000/svg">
<path d="M-19.9038 2.45299C-16.5809 6.78708 -13.8012 10.4742 -11.2322 13.9698C-9.7505 15.3875 -8.27927 16.8239 -6.8289 18.2975C-4.22986 20.9533 -1.54141 23.5368 1.43914 26.2105C3.29784 27.7416 5.1416 29.3868 6.89818 31.0564C6.98086 31.1273 7.0531 31.2167 7.1358 31.2875L8.34645 31.966C11.7609 33.9528 14.9398 36.2727 17.9882 38.5196C19.2167 39.4283 20.437 40.3079 21.6491 41.1585C32.1535 48.8807 44.1923 58.3196 53.9003 69.9521C62.5543 80.6269 73.1466 90.332 81.3881 97.5938C88.0479 103.529 95.8488 108.781 103.381 113.859L105.53 115.308C110.209 118.664 115.935 124.125 112.026 133.022C111.681 133.856 111.618 135.192 111.617 136.635C113.595 135.027 114.93 133.474 115.911 131.723C118.907 126.378 118.986 117.807 118.088 102.814L117.964 100.763L119.922 101.419C121.098 101.809 122.184 102.099 123.222 102.387C124.411 102.711 125.544 103.004 126.663 103.41C142.534 108.413 156.124 108.27 168.103 102.966C175.456 99.6708 182.564 95.5039 189.456 91.4605L193.565 89.0639C194.218 88.5976 194.904 87.416 195.76 85.8887C196 85.4603 196.251 85.0133 196.522 84.529C196.051 84.5833 195.617 84.6584 195.223 84.7067C193.511 84.9223 192.655 85.0539 192.184 85.5001C183.999 92.6369 175.007 89.3354 168.949 86.2583C161.107 82.4757 153.316 78.4279 145.815 74.5181C140.338 71.6692 134.675 68.7159 129.165 65.9706L127.157 64.9677L128.941 63.6181C130.428 62.4933 131.942 61.4081 133.456 60.3229C137.136 57.6861 140.946 54.9504 144.409 51.6534C146.483 49.8299 148.043 47.963 149.087 46.1004C150.705 43.2134 151.109 40.3074 150.335 37.2789C142.111 46.058 140.692 46.144 126.83 43.9319L125.483 43.7154C117.569 42.6825 109.477 42.186 101.426 42.2267C86.9445 41.8207 72.8234 45.9244 59.1672 49.8971C56.9189 50.5462 54.6892 51.2058 52.4513 51.8362C47.9137 52.9891 44.0724 53.1616 39.9995 50.3407C36.0518 47.2962 31.9067 44.3859 27.9105 41.5591C20.1663 36.1178 12.174 30.4642 5.23496 23.7609C-1.40977 17.1002 -8.35091 9.83279 -16.5531 0.928685C-17.6561 1.41195 -18.7404 1.90567 -19.8434 2.38894L-19.9038 2.45299ZM135.166 54.8689C107.011 74.4079 78.3419 75.6458 54.4679 58.3264L52.4989 56.9048L54.7153 55.9196C73.5072 46.6258 117.838 41.8539 135.03 52.4918L136.967 53.5773L135.166 54.8689ZM113.212 116.407C97.0996 107.598 65.0951 81.0718 55.8923 66.8343L53.5849 63.265L57.5382 64.7707C62.0362 66.4837 64.2146 67.9247 68.3878 69.4312C76.4152 72.3144 84.9299 75.2015 91.9458 79.0598C105.286 86.4379 115.718 99.3568 115.152 114.997L115.065 117.249L113.212 116.407ZM110.076 88.8529C106.982 85.9444 103.798 82.936 100.492 80.2755C99.2386 79.2796 97.996 78.2651 96.7638 77.2319L92.755 74.4714L95.0682 73.6628C111.452 70.0196 121.378 67.5054 137.916 74.9866C147.247 79.2122 172.075 93.7376 178.95 93.6987C178.95 93.6987 142.468 119.316 110.087 88.8343L110.076 88.8529Z" fill="#1D266C"/>
</svg>
