<svg width="194" height="92" viewBox="0 0 194 92" fill="none" xmlns="http://www.w3.org/2000/svg">
<path d="M167.203 42.9057C168.221 43.4452 169.156 44.1996 169.97 44.6191C183.828 52.1554 191.169 64.1349 193.06 79.515C193.49 83.6718 192.921 87.2945 190.045 90.2171C188.361 91.9353 186.385 92.2106 185.085 89.1742C185.714 88.4618 186.361 87.7549 186.889 87.252C190.807 83.2998 190.676 78.533 186.076 75.3218C179.932 71.0568 172.81 68.6184 166.096 67.4372C165.089 71.8686 164.178 75.5699 162.95 79.3974C162.297 81.14 160.5 82.5655 158.356 81.1754C156.104 79.4743 158.62 78.181 159.057 76.8335C159.159 76.6241 158.865 76.1984 158.878 75.6833C151.302 70.6572 143.708 65.6256 136.635 61.1268C133.891 63.8692 131.752 66.9294 128.811 68.5162C121.689 72.1025 114.112 72.5623 106.601 68.8721C102.996 67.2306 99.6243 65.1994 96.1146 63.3669C93.8082 64.7618 94.1371 69.128 89.5979 67.81C90.4903 63.5643 88.0598 61.2519 84.5739 59.4064C83.2471 58.6961 82.035 57.8001 80.9924 56.7347C74.1595 50.2716 66.5212 43.2919 59.8082 36.6249C57.5687 34.4086 54.5993 32.6151 51.6883 33.6922C46.3221 35.7213 28.1737 45.2648 -3.25306 71.0548C-3.82357 69.8094 -4.39408 68.5639 -4.94624 67.3238C26.937 35.7317 62.2078 22.1311 94.1836 8.19454C97.4362 6.49998 101.396 5.45271 101.905 0.475751C102.42 0.487944 102.839 0.691222 103.349 0.721769L106.648 7.93857C108.942 7.05876 111.446 6.2806 113.74 5.40078C118.995 3.4785 124.725 3.19253 130.152 4.61265C140.37 7.10585 144.609 14.0414 143.284 23.5459C143.158 24.7855 142.93 26.2346 142.786 27.4689C149.842 28.0325 156.142 28.4532 162.486 28.9268C166.529 29.2208 170.547 30.545 173.818 27.2997C176.877 34.9246 175.505 38.0912 167.185 42.9003L167.203 42.9057ZM102.526 63.3416C109.618 66.8286 116.541 69.6675 124.381 66.6917C127.52 65.7217 130.03 63.9079 130.827 60.3922C131.846 55.4458 131.236 50.6776 128.068 46.6714C125.739 43.6107 122.565 41.179 118.282 42.3103C110.046 44.531 100.391 45.8145 91.4603 45.3167C95.4096 50.5307 94.0416 59.1648 102.508 63.3362L102.526 63.3416ZM77.1182 30.8946C77.1182 30.8946 69.9073 33.8846 60.379 31.0759C69.2948 41.5045 86.0706 57.7129 92.3652 59.708C93.2576 55.4624 87.6562 44.7539 84.5844 42.1128C93.1584 42.8048 105.856 43.8546 116.639 38.8136C116.759 38.6096 102.713 29.6811 89.9496 27.2955C92.5733 26.3133 101.15 15.6943 101.108 10.6944C93.1196 12.21 71.4638 19.4334 67.7253 24.5358C71.1546 29.1367 77.1182 30.8946 77.1182 30.8946ZM134.035 10.8644L133.998 10.8536C129.166 8.43167 124.879 6.86862 119.652 8.22074C115.172 9.27418 110.053 10.5983 106.465 13.4309C103.41 15.7422 100.562 22.2242 98.2194 25.7033C101.915 27.6504 120.37 36.4423 126.205 35.3292C132.128 33.9829 136.361 30.3829 138.974 24.4299C141.232 19.0706 139.185 13.5597 134.035 10.8644ZM126.787 39.5109C139.718 41.3276 150.625 46.0188 161.208 51.3329C164.089 52.8606 166.843 54.5501 167.393 58.5029C156.236 50.8051 143.156 44.8944 130.308 42.8629C134.366 59.9592 147.992 66.0505 160.91 72.8509C161.791 69.6592 162.481 66.5711 159.924 64.9594C157.157 63.2461 153.628 62.2256 150.892 60.5415C149.144 59.3677 147.084 58.3016 145.359 57.1149L146.12 55.6834C153.145 56.7567 158.7 61.1272 165.389 63.3386C172.493 65.7716 179.371 68.6969 187.319 71.0397C185.684 64.6726 182.241 60.2462 178.264 55.8022C174.373 51.2037 169.369 47.6737 163.729 45.5526C158.465 43.5819 152.805 42.4122 148.043 40.9687C148.323 40.4926 148.721 40.0912 149.189 39.7901C149.657 39.4891 150.189 39.307 150.744 39.2511C155.524 39.1439 157.921 39.4714 162.701 39.3642C165.815 39.4244 170.492 38.1097 171.792 34.1041C156.155 31.9283 142.844 28.0845 126.756 39.4817L126.787 39.5109Z" fill="#1D266C"/>
</svg>
