<svg width="173" height="150" viewBox="0 0 173 150" fill="none" xmlns="http://www.w3.org/2000/svg">
<path d="M189.825 0.924931C189.068 6.22869 188.247 11.5684 187.506 16.351C183.87 17.2703 181.058 17.6998 178.5 18.8332C177.092 19.3426 176.216 21.2553 175.782 22.776C174.536 27.9866 178.132 30.2535 181.962 32.0276C183.195 38.1213 179.073 41.9843 176.125 45.8307C171.359 52.3147 166.127 58.5833 159.663 63.1139C151.691 68.9739 142.26 73.0222 133.548 77.3779C129.721 79.3705 125.479 80.3138 121.066 81.714C121.643 64.8376 111.992 58.0744 97.3222 64.602C93.5512 60.2265 88.9376 55.7559 82.2591 57.0084C78.1579 57.7122 73.6799 58.5365 70.0881 60.6481C62.8957 64.8259 61.9084 70.763 65.818 84.2C59.2148 88.3809 57.5192 94.55 59.7498 102.263C60.8664 106.307 60.0194 110.545 60.1821 115.858C56.3116 116.658 51.9963 118.44 47.5214 118.675C37.4019 119.184 27.1633 119.929 17.1372 116.441C11.0828 114.487 7.77443 110.916 5.95813 105.454C5.05537 102.993 4.97691 100.654 3.98218 98.4455C3.5888 97.3919 2.51422 96.5885 0.678261 94.8973C0.541257 97.7023 -0.022596 98.9187 0.251709 100.207C2.31183 114.546 10.7539 124.534 22.988 131.383C37.1348 139.108 52.198 142.346 68.0946 138.735C69.9681 138.441 71.6306 138.635 73.5041 138.341C73.9729 142.324 73.9728 146.679 77.7273 149.881C83.4517 143.846 90.9336 141.519 98.3776 138.634C104.663 136.328 110.351 132.89 116.639 129.995C117.013 134.82 116.606 140.715 122.68 143.253C123.89 140.639 124.75 137.553 126.453 135.173C127.802 132.909 130.34 131.191 132.296 128.903C143.037 117.065 151.607 104.237 160.18 90.82C167.95 78.4774 175.254 65.9193 180.618 52.4673C187.264 35.6813 192.709 19.0115 194.248 1.02958C192.766 1.03545 191.28 1.01863 189.784 0.95644L189.825 0.924931ZM62.8589 100.575C61.1211 97.4516 61.7587 91.6531 64.1612 88.9959C66.5638 86.3387 69.6144 85.4391 73.2062 87.6833C73.6719 87.8988 74.4993 87.4317 76.507 87.4648C73.5363 82.604 67.7094 81.3362 67.0854 75.8303C66.6921 70.4208 66.9076 65.5993 71.8875 62.3935C74.3337 60.9286 77.2186 59.6609 79.9617 59.4803C82.795 59.3999 85.5976 60.0082 88.1475 61.2544C91.0188 62.5793 93.5644 64.6504 93.8945 68.2827C94.208 70.7411 92.0601 74.1021 95.9096 76.461C97.2149 73.0049 97.8434 69.8218 99.6341 67.1659C101.663 64.0399 105.318 63.7054 108.875 64.8027C114.464 66.5407 117.299 70.4626 116.988 76.1267C116.797 81.5558 113.339 83.9945 104.525 85.4035C97.4665 78.6539 93.6985 78.045 88.149 81.8325C82.958 85.5268 81.6286 92.7312 84.9325 100.635C79.5382 101.591 74.4031 103.273 69.3403 104.117C66.4131 104.804 64.2413 103.202 62.8501 100.529L62.8589 100.575ZM86.9837 90.6062C87.8564 84.9268 90.5559 83.5539 94.0722 82.8697C96.6767 82.3393 98.4975 83.4684 98.4734 87.2167C95.3082 88.3742 91.6727 89.2935 87.0064 90.6017L86.9837 90.6062ZM168.917 60.8188C165.497 65.6282 162.564 70.0368 159.27 74.0446C155.845 78.1016 152.158 81.9033 148.206 85.4272C144.534 88.9436 140.489 91.991 136.564 95.4154C147.113 93.3627 153.104 84.8273 161.287 78.4789C154.148 95.7609 129.968 127.708 118.507 134.27C119.366 131.183 119.499 128.356 120.751 126.323C122.311 123.57 124.949 121.032 127.255 118.606C130.577 115.228 134.264 112.274 136.922 106.577C126.551 114.504 118.174 122.515 108.544 128.203C98.9101 133.869 87.9674 137.528 77.7048 142.021C76.2971 138.175 78.1117 136.126 80.3184 134.52C81.8212 133.168 83.7955 132.666 85.437 131.664C88.56 129.926 91.3333 128.327 94.2438 126.465C94.1052 126.116 93.7541 125.642 93.4811 124.966C80.745 129.21 69.0699 136.85 54.8811 135.443C41.1668 134.297 27.858 131.001 16.5071 121.672C24.7727 122.042 32.238 122.897 39.521 122.209C46.8084 121.545 53.9602 119.941 61.1075 118.315C68.1402 116.947 75.4276 116.282 81.9117 112.336C75.8586 110.995 64.5193 117.698 64.2194 109.139C69.7283 107.926 72.4464 108.221 76.8084 107.043C81.0242 106.081 85.2292 104.58 89.3108 103.292C93.7421 101.864 98.1778 100.46 102.493 98.678C106.34 97.2703 111.05 97.1543 115.071 93.4993C104.912 92.839 94.6667 98.3879 88.2269 99.0524C89.0529 97.9734 87.8564 94.4861 88.1834 94.3518C101.859 89.9721 115.909 86.6731 129.067 81.4521C142.584 76.1378 156.262 71.1688 167.019 60.5052C167.673 60.3545 168.352 60.4578 168.912 60.7961L168.917 60.8188ZM185.333 21.7652C183.592 23.5873 181.989 25.1472 180.271 26.9649C178.592 21.2405 179.63 20.285 185.333 21.7652Z" fill="#1D266C"/>
</svg>
