<svg width="192" height="112" viewBox="0 0 192 112" fill="none" xmlns="http://www.w3.org/2000/svg">
<path d="M106.884 9.00393C97.1311 12.7265 87.1666 16.1429 79.4363 23.8079C78.2431 24.9275 76.7339 26.0081 75.2335 27.3618C73.3167 24.4469 74.44 20.7118 69.9877 18.9611C70.0726 25.2566 65.3573 26.8536 61.1228 28.8161C58.5002 29.9076 55.9362 31.1838 53.4559 32.6006C46.4835 37.0113 39.7819 41.4587 33.0575 45.9049C30.6979 47.6231 28.6811 48.8593 25.8308 46.873C14.6658 39.1898 5.76399 29.8969 -0.633514 18.28C-1.59487 18.8664 -2.53359 19.4541 -3.51644 20.0167C0.877826 28.1919 5.88202 35.9897 13.5165 42.1059C20.77 47.6801 28.5776 53.0784 32.7517 61.5603C32.9561 62.0023 33.2534 62.4037 33.6221 62.7406C39.67 71.0009 47.4067 76.8952 55.6382 82.8831C60.3132 86.485 64.186 90.2273 61.0775 96.7901C61.5857 97.066 62.0677 97.4088 62.5021 97.7946C67.0782 95.3727 67.1692 89.6313 69.8969 85.6154C80.3551 92.4674 90.2947 99.2473 102.374 102.412C106.628 103.585 111.211 104.571 112.252 111.256C118.309 104.345 115.712 97.4208 115.979 92.2335C120.979 90.4013 126.12 89.3712 130.119 87.1241C135.014 84.2418 136.354 78.9508 136.913 73.8239C148.693 70.4328 155.004 66.9646 154.283 49.6212C160.733 46.9778 166.95 44.0045 173.166 41.0538C178.509 38.7396 184.025 37.0248 189.445 40.7104C189.658 40.9939 190.518 40.6066 191.852 40.2891C191.04 38.8619 190.453 37.469 189.549 36.4913C184.004 31.7091 177.63 28.9055 170.534 29.0855C162.671 29.1806 154.714 29.7706 147.543 33.626C144.111 35.448 140.443 36.9854 136.787 38.7505C135.113 29.3525 129.886 24.1097 120.149 24.4264C122.394 11.7097 120.694 4.12737 117.245 0.974674C114.938 4.62609 111.461 7.30889 106.815 9.02307L106.884 9.00393ZM33.8454 57.9599C39.1719 59.0516 44.3199 61.406 50.0488 59.9746C44.7842 56.7967 37.6725 57.2938 33.1077 51.1084C42.5673 38.9674 57.2359 35.4978 69.6575 28.0288C70.4386 31.9754 70.1358 35.0638 68.7492 37.2939C65.6079 42.2878 61.4783 45.3004 55.7838 46.5064C54.1795 46.7872 52.941 47.9045 51.7618 48.7523C51.6908 49.2483 51.8667 49.8025 51.772 50.3199C62.1706 49.0608 72.1872 50.371 81.3156 55.701C78.9372 62.642 73.383 64.6501 67.7239 65.6081C62.619 66.3902 56.9509 65.7579 51.4801 65.7035C51.408 66.2222 51.0664 66.6816 50.9943 67.2002C58.3452 70.4401 67.1826 72.5982 64.4334 83.6536C56.1147 81.5677 38.5346 66.5818 33.843 58.0052L33.8454 57.9599ZM98.9014 47.1805C102.605 46.7124 105.773 48.2608 107.867 51.7072C109.961 55.1535 111.17 59.0086 108.536 62.5297C105.867 66.2988 102.233 69.3823 97.1536 68.3488C91.5779 67.2443 86.359 65.3859 80.8578 63.7174C83.2793 59.9129 85.0745 56.8029 87.1899 53.2097C85.7299 52.4533 84.7518 52.0395 82.1012 50.5859C88.5851 49.4886 93.4903 48.1739 98.9014 47.1805ZM110.961 101.037C95.5373 98.8811 83.0863 91.4723 71.2872 82.8707C69.8853 81.8674 68.8744 79.8849 68.0976 78.2097C66.9335 75.6742 66.0895 72.6555 64.9382 69.8709C78.4427 63.8657 90.1066 68.0316 100.161 77.4292C106.834 83.7003 112 91.0068 110.96 101.06L110.961 101.037ZM177.033 34.7572C171.371 37.532 165.511 39.7515 160.286 42.8667C153.679 46.7966 147.858 45.6113 142.69 40.1217C152.93 33.1082 168.28 30.514 177.033 34.7572ZM128.227 30.3155C132.135 33.8098 132.424 38.7985 128.412 42.6121C127.232 43.4826 126.512 44.672 125.602 45.579L126.472 46.7594C127.338 46.7131 128.167 46.4832 128.937 46.0913C132.512 43.2546 136.402 43.591 140.407 44.751C147.925 46.9547 151.358 53.5134 148.908 60.9503C148.37 62.5806 147.521 64.0813 146.366 65.3392C145.211 66.597 143.819 67.6156 142.261 68.3076C140.704 68.9997 139.004 69.3665 137.302 69.347C135.599 69.3502 133.891 68.9898 132.338 68.274C130.594 67.7301 128.922 66.6901 127.093 68.2539C132.365 74.8164 131.697 80.7325 126.105 84.8054C120.795 88.6885 114.914 87.7727 110.206 82.602C107.063 79.2379 104.475 75.698 101.367 72.0859C106.181 68.1319 113.764 66.4326 113.762 58.0745C113.878 50.5175 110.419 45.7972 103.384 43.9362C107.504 39.3333 111.588 35.0011 115.4 30.6549C118.529 27.2274 124.341 26.8224 128.25 30.3167L128.227 30.3155ZM116.522 12.8157C117.56 21.3406 114.072 28.6561 108.256 33.9893C103.321 38.5276 97.6152 42.1631 91.3977 44.7049C83.861 47.7239 75.7714 50.8961 68.1751 45.8039C75.8062 23.7346 94.3462 15.6493 115.218 9.47812C115.846 10.5098 116.289 11.6227 116.522 12.8157Z" fill="#1D266C"/>
</svg>
