<svg width="179" height="160" viewBox="0 0 179 160" fill="none" xmlns="http://www.w3.org/2000/svg">
<path d="M181.07 0.918757C180.785 6.26872 180.439 11.6601 180.124 16.4895C176.584 17.7268 173.821 18.4035 171.374 19.7587C170.016 20.3906 169.313 22.3734 169.016 23.9265C168.235 29.2269 172.018 31.1668 175.989 32.5951C177.756 38.5559 173.992 42.7684 171.396 46.8605C167.222 53.7407 162.566 60.4475 156.527 65.5323C149.105 72.0745 140.07 76.9412 131.777 82.0506C128.142 84.3739 123.999 85.6889 119.727 87.474C118.809 70.6126 108.598 64.7298 94.5631 72.5296C90.4198 68.5048 85.4289 64.46 78.8873 66.2983C74.8645 67.3622 70.477 68.5794 67.0861 71.0005C60.2915 75.7982 59.8332 81.7994 64.9162 94.8378C58.7088 99.5865 57.5656 105.881 60.4698 113.366C61.9398 117.296 61.4711 121.593 62.1031 126.87C58.3186 128.01 54.1778 130.166 49.7412 130.796C39.7065 132.199 29.5739 133.846 19.2786 131.259C13.075 129.849 9.46377 126.584 7.17137 121.304C6.05439 118.932 5.7693 116.609 4.58313 114.498C4.09808 113.483 2.95665 112.778 0.978274 111.256C1.08996 114.062 0.635918 115.323 1.02316 116.583C4.34366 130.683 13.6363 139.885 26.4283 145.625C41.2031 152.068 56.4937 153.961 72.0085 148.957C73.8486 148.499 75.5218 148.546 77.3619 148.087C78.1811 152.012 78.5664 156.351 82.5894 159.208C87.7575 152.69 95.0042 149.71 102.164 146.178C108.22 143.325 113.582 139.398 119.59 135.957C120.389 140.73 120.505 146.638 126.78 148.629C127.754 145.918 128.337 142.768 129.823 140.247C130.966 137.872 133.342 135.936 135.088 133.484C144.74 120.743 152.141 107.207 159.494 93.084C166.141 80.1024 172.306 66.9474 176.459 53.0735C181.594 35.7654 185.542 18.6793 185.485 0.631678C184.009 0.768652 182.527 0.883411 181.032 0.953764L181.07 0.918757ZM63.4174 111.41C61.4101 108.453 61.5322 102.621 63.6903 99.7615C65.8483 96.9022 68.8074 95.7362 72.5836 97.6539C73.0666 97.8273 73.8494 97.2888 75.8522 97.1442C72.4631 92.5652 66.5469 91.8179 65.4383 86.3888C64.5679 81.0354 64.356 76.2136 69.0328 72.5798C71.3399 70.9043 74.1012 69.3863 76.8177 68.9638C79.6327 68.633 82.4781 68.9911 85.1283 70.0068C88.1055 71.0725 90.8244 72.9102 91.4745 76.4991C92.0043 78.9201 90.1622 82.458 94.2053 84.4671C95.1997 80.909 95.5441 77.6828 97.0928 74.8789C98.8371 71.5857 102.448 70.9292 106.088 71.7075C111.809 72.9442 114.98 76.5999 115.171 82.2693C115.461 87.6941 112.233 90.4291 103.578 92.6123C95.95 86.5136 92.1429 86.2404 86.9502 90.5041C82.1064 94.6431 81.4196 101.937 85.4098 109.518C80.1212 110.947 75.155 113.076 70.1867 114.365C67.3318 115.308 65.0267 113.904 63.4046 111.366L63.4174 111.41ZM86.5657 99.3464C86.9325 93.6121 89.5 92.0058 92.942 91.0131C95.4894 90.2545 97.4029 91.218 97.7105 94.9538C94.66 96.3867 91.1202 97.624 86.5879 99.34L86.5657 99.3464ZM165.542 62.4275C162.561 67.5206 160.03 72.1714 157.104 76.4548C154.051 80.7989 150.715 84.9119 147.089 88.7717C143.743 92.599 139.983 95.9925 136.377 99.7506C146.703 96.7727 151.916 87.7407 159.505 80.6934C153.923 98.5391 132.664 132.5 121.828 140.05C122.411 136.9 122.293 134.071 123.361 131.935C124.671 129.056 127.074 126.294 129.156 123.673C132.166 120.015 135.577 116.746 137.722 110.836C128.092 119.651 120.457 128.371 111.368 134.889C102.273 141.384 91.6966 145.998 81.8717 151.381C80.1292 147.674 81.7555 145.473 83.8114 143.677C85.1888 142.198 87.1109 141.523 88.6573 140.38C91.6143 138.372 94.2352 136.534 96.9697 134.423C96.8006 134.087 96.4091 133.646 96.0773 132.996C83.7666 138.351 72.8132 146.993 58.5555 146.848C44.7936 146.92 31.2454 144.813 19.1138 136.526C27.3796 136.163 34.8913 136.354 42.0849 135.025C49.2849 133.718 56.2668 131.488 63.2423 129.236C70.1264 127.251 77.3264 125.944 83.436 121.44C77.2879 120.639 66.5861 128.32 65.5302 119.821C70.9102 118.125 73.6437 118.178 77.8844 116.619C81.9986 115.288 86.0543 113.421 90.0059 111.776C94.2935 109.962 98.5876 108.171 102.728 106.015C106.435 104.272 111.116 103.74 114.799 99.7435C104.621 99.9844 94.907 106.418 88.5512 107.65C89.2786 106.502 87.7782 103.134 88.0921 102.971C101.326 97.3989 115.029 92.8698 127.674 86.5052C140.668 80.016 153.853 73.8564 163.624 62.283C164.262 62.0751 164.948 62.1179 165.536 62.4053L165.542 62.4275ZM178.44 22.0747C176.867 24.0436 175.407 25.7393 173.857 27.7019C171.678 22.1485 172.628 21.1049 178.44 22.0747Z" fill="#BE9966"/>
</svg>
