<svg width="126" height="74" viewBox="0 0 126 74" fill="none" xmlns="http://www.w3.org/2000/svg">
<path d="M160.348 2.34601C156.288 1.78242 152.86 1.27819 149.645 0.765145C148.106 0.788887 146.563 0.797164 145.011 0.774549C142.222 0.725967 139.424 0.763137 136.423 0.906064C134.622 1.06799 132.77 1.16115 130.952 1.19522C130.87 1.20098 130.784 1.19128 130.703 1.19704L129.699 1.47283C126.827 2.21144 123.906 2.64796 121.093 3.05478C119.958 3.21696 118.842 3.39037 117.746 3.57497C108.064 4.98731 96.6567 6.29161 85.3383 5.19528C75.0879 4.05493 64.3132 4.45445 56.0824 4.91983C49.3959 5.26027 42.4596 6.56667 35.7593 7.82488L33.8471 8.18377C29.5786 8.85733 23.6408 8.95896 21.0388 2.14571C20.7833 1.51793 20.113 0.771388 19.3528 -0.000283884C19.1438 1.90163 19.2491 3.43478 19.6479 4.8873C20.8657 9.32214 25.3415 13.9425 33.7253 21.478L34.8725 22.509L33.4809 23.1902C32.6468 23.602 31.9139 24.0193 31.2077 24.4126C30.4017 24.8666 29.6422 25.3078 28.8305 25.6802C17.7149 31.3746 10.5302 38.6152 6.92707 47.7637C4.73592 53.4005 3.13563 59.3735 1.58562 65.1666L0.65416 68.6129C0.551185 69.2062 0.807287 70.1994 1.15521 71.4665C1.2528 71.8219 1.35464 72.1927 1.46496 72.5945C1.68794 72.3172 1.88002 72.0485 2.06513 71.8148C2.86587 70.7973 3.25427 70.2752 3.2703 69.7889C3.88025 61.6617 10.4244 58.6849 15.2831 57.1347C21.4662 55.0215 27.7619 53.0768 33.8302 51.2111C38.2577 49.8458 42.8398 48.438 47.2307 46.9997L48.832 46.4769L48.5903 48.1386C48.3889 49.5233 48.1524 50.901 47.9159 52.2787C47.3398 55.6275 46.7471 59.0971 46.6352 62.6839C46.4884 64.7516 46.6392 66.5714 47.0635 68.1166C47.7211 70.5117 49.0369 72.2775 51.0473 73.4869C50.8124 64.4616 51.525 63.6677 60.096 57.5421L60.9298 56.9475C65.702 53.3273 70.2866 49.3266 74.5658 45.0607C82.5161 37.6431 87.8963 28.0066 93.0972 18.6852C93.956 17.1532 94.7995 15.6255 95.6626 14.1089C97.4788 11.101 99.44 8.98381 103.103 8.34363C106.817 7.88887 110.565 7.25839 114.19 6.66183C121.196 5.48602 128.446 4.29289 135.686 4.21571C142.747 4.27096 150.286 4.49405 159.362 4.92668C159.696 4.08706 160.015 3.25167 160.35 2.41205L160.348 2.34601ZM49.8774 56.0939C54.6178 30.8132 69.28 15.0386 91.1639 11.705L92.9651 11.4264L92.3005 13.1211C87.1613 27.9924 65.9953 53.9115 51.2034 57.2918L49.5963 57.7331L49.8774 56.0939ZM29.1646 11.6464C42.4154 7.85835 73.4961 5.15673 85.9178 7.91096L89.0321 8.60128L86.1265 9.88102C82.8206 11.3371 80.8972 11.7157 77.8737 13.1109C72.0655 15.8025 65.9949 18.749 60.213 20.3865C49.197 23.4778 36.8141 22.0755 28.8711 13.422L27.7305 12.1731L29.1646 11.6464ZM45.3651 24.7128C48.5511 24.6356 51.8382 24.5639 55.0069 24.2422C56.2013 24.1136 57.4 24.0005 58.6029 23.9028L62.1997 23.2642L61.3902 24.9156C54.5584 35.499 50.5812 42.0749 37.8027 46.7968C30.5904 49.4585 9.66998 54.7875 6.01795 58.4325C6.01795 58.4325 12.0015 25.5154 45.3693 24.7283L45.3651 24.7128Z" fill="#BE9966"/>
</svg>
