<svg width="117" height="76" viewBox="0 0 117 76" fill="none" xmlns="http://www.w3.org/2000/svg">
<path d="M61.638 67.9927C66.7015 63.0019 71.9805 58.1441 74.7035 51.2483C75.1411 50.2235 75.7865 49.1366 76.3518 47.8817C78.3449 49.1749 78.6666 51.8116 81.9223 51.6849C80.1464 47.7821 82.6499 45.4956 84.7535 43.1128C86.0903 41.7143 87.3399 40.2167 88.499 38.6543C91.6399 33.9954 94.602 29.3877 97.5786 24.7746C98.5798 23.0572 99.4992 21.7343 101.82 22.1929C110.886 23.9286 118.981 27.2875 126.15 32.7811C126.589 32.1523 127.013 31.5289 127.472 30.909C122.494 27.0134 117.24 23.5202 110.805 21.7955C104.756 20.3045 98.409 19.0749 93.4845 14.9278C93.2361 14.7081 92.9408 14.5391 92.6186 14.4299C86.5863 10.9339 80.1483 9.37553 73.376 7.89424C69.4748 6.92753 66.0353 5.65372 66.1777 0.710265C65.7853 0.67724 65.3908 0.595409 65.0144 0.473744C62.8234 3.2365 64.3381 6.84187 63.7362 10.0928C55.3388 8.68212 47.2847 7.17444 38.8858 8.50643C35.9113 8.93957 32.7839 9.57933 30.3047 5.69518C28.4193 11.6624 31.9336 15.2701 33.1868 18.578C30.5702 21.0891 27.6464 23.1384 25.7674 25.6343C23.5036 28.7716 24.1162 32.4378 25.1708 35.788C18.7525 41.127 15.7663 45.017 20.9621 55.6357C17.6633 59.0494 14.6 62.6052 11.5312 66.1466C8.83276 69.052 5.86197 71.6312 1.47309 70.8162C1.26297 70.6976 0.832477 71.1746 0.0876944 71.7376C0.984897 72.4053 1.73218 73.1133 2.56326 73.4757C7.3304 74.9403 12.0727 74.9441 16.4482 72.8899C21.3259 70.6785 26.1264 68.1329 29.5432 63.7659C31.185 61.6903 33.0514 59.7277 34.8486 57.6262C38.4648 63.0288 43.159 64.8679 49.1446 62.0055C51.2255 70.5501 54.3605 74.8135 57.3742 75.8357C57.814 72.927 59.2478 70.3024 61.6758 67.9619L61.638 67.9927ZM93.7879 17.4724C90.1673 18.2494 86.3125 18.1902 83.1316 20.6507C87.2845 21.1917 91.5835 18.9353 96.1231 21.5433C93.5468 31.7037 85.3487 37.8822 79.6465 45.9397C78.0793 43.6923 77.4228 41.6834 77.6771 39.9132C78.2694 35.9391 80.0201 32.9301 83.2413 30.6195C84.1649 30.0053 84.6315 28.9695 85.1348 28.1181C85.0433 27.7893 84.782 27.4919 84.6994 27.1432C78.5592 30.7745 71.954 32.6989 64.8025 31.8734C64.3861 26.8938 67.3002 24.1214 70.5671 21.9751C73.5367 20.0902 77.2445 18.9332 80.6711 17.4698C80.5741 17.1266 80.6614 16.7467 80.5644 16.4035C75.0935 16.3949 68.9916 17.4678 67.6802 9.82093C73.4389 8.84502 88.5038 13.379 93.7769 17.4435L93.7879 17.4724ZM56.1676 42.0001C53.9862 43.3056 51.5867 43.207 49.3377 41.6309C47.0887 40.0547 45.2791 37.9817 45.9581 35.065C46.5913 31.9839 48.0133 29.0664 51.464 28.3207C55.2434 27.4835 59.0067 27.214 62.894 26.7488C62.4252 29.7842 62.1568 32.215 61.8211 35.0347C62.9386 35.1069 63.6618 35.0972 65.7126 35.2783C61.9694 37.7372 59.2702 39.8996 56.1676 42.0001ZM33.9067 11.7143C44.1155 8.83765 53.908 10.0502 63.6203 12.185C64.7692 12.427 65.9422 13.3867 66.8852 14.2188C68.3051 15.4814 69.6576 17.1329 71.1377 18.5543C64.3596 25.9954 55.9455 26.5898 47.1031 23.4811C41.2256 21.3965 36.0044 18.2539 33.9012 11.6999L33.9067 11.7143ZM10.843 71.1316C13.6144 67.8516 16.6615 64.8636 19.0673 61.4908C22.112 57.2318 26.0667 56.3777 30.7923 58.3866C26.3256 65.5631 17.4628 71.3822 10.843 71.1316ZM42.4953 60.5437C39.1017 59.4342 37.5564 56.4021 39.0145 52.9259C39.5124 52.06 39.6358 51.1212 39.9548 50.3065L39.0889 49.8087C38.5619 50.0744 38.1076 50.4448 37.7349 50.8998C36.2815 53.6474 33.7641 54.5021 30.9486 54.875C25.6572 55.5583 21.7214 52.4077 21.2135 47.0994C21.1029 45.9355 21.2218 44.7671 21.5978 43.6666C21.9737 42.5661 22.5633 41.5498 23.3451 40.692C24.1268 39.8342 25.0863 39.1403 26.1533 38.6865C27.2148 38.2183 28.3783 37.9757 29.5427 37.997C30.7788 37.8591 32.1065 38.0498 32.8193 36.5739C27.7354 33.9244 26.5326 30.0522 28.9053 25.9817C31.154 22.1068 35.0719 21.0684 39.423 23.0045C42.3037 24.2422 44.8869 25.7413 47.8133 27.1434C45.8934 30.9268 41.63 34.0617 43.9185 39.2736C45.9143 44.0181 49.3634 46.0151 54.2604 45.25C52.9505 49.2483 51.5894 53.0677 50.4016 56.8214C49.3885 59.8152 45.8746 61.6586 42.4809 60.5491L42.4953 60.5437ZM54.5842 68.2535C51.6039 63.2211 51.7769 57.7045 53.9442 52.7867C55.7796 48.6059 58.343 44.777 61.5247 41.4902C65.3985 37.5447 69.5751 33.3524 75.706 34.449C76.9873 50.3005 67.6383 60.4169 56.3112 69.9778C55.6371 69.5064 55.0566 68.9335 54.5842 68.2535Z" fill="#BE9966"/>
</svg>
