<svg width="115" height="72" viewBox="0 0 115 72" fill="none" xmlns="http://www.w3.org/2000/svg">
<path d="M55.3173 64.735C49.8249 60.6462 44.1444 56.7129 40.6317 50.4963C40.0782 49.5768 39.3183 48.6256 38.6126 47.5036C36.8829 49.0017 36.926 51.5596 33.8035 51.8708C34.9797 47.9122 32.2881 46.0633 29.9652 44.0695C28.5044 42.9129 27.1136 41.6502 25.8006 40.3136C22.1861 36.2863 18.749 32.2841 15.2974 28.2786C14.1144 26.7732 13.0618 25.6333 10.9085 26.3788C2.49106 29.2377 -4.78487 33.5161 -10.8945 39.708C-11.3967 39.1663 -11.8845 38.628 -12.4045 38.0976C-8.17307 33.721 -3.62393 29.6913 2.28556 27.192C7.85797 24.967 13.7488 22.9517 17.8959 18.3422C18.1038 18.0997 18.363 17.8993 18.6558 17.7524C23.9462 13.6169 29.8807 11.2759 36.1442 8.96411C39.7374 7.52421 42.8492 5.85263 42.0574 1.15589C42.4273 1.07231 42.7927 0.941904 43.1357 0.775879C45.5923 3.12054 44.626 6.76076 45.6316 9.78201C53.4547 7.32186 60.9376 4.81475 69.1262 4.97068C72.021 4.9891 75.0892 5.18432 76.9387 1.15014C79.5291 6.59215 76.6556 10.4999 75.8991 13.8217C78.7284 15.8698 81.7894 17.4366 83.9131 19.5682C86.489 22.2604 86.3911 25.839 85.8298 29.1747C92.6608 33.4158 96.0257 36.7302 92.4786 47.5491C96.0784 50.3677 99.4724 53.3531 102.87 56.3239C105.83 58.7374 109.006 60.8034 113.084 59.4435C113.269 59.3025 113.743 59.7003 114.528 60.1385C113.761 60.8946 113.142 61.6691 112.397 62.1251C108.044 64.1549 103.521 64.7879 99.0743 63.4091C94.128 61.9469 89.2109 60.1558 85.372 56.4435C83.5304 54.6814 81.4896 53.057 79.4962 51.2909C76.7638 56.9244 72.5299 59.3017 66.4404 57.3656C65.5893 65.7926 63.1646 70.2756 60.4255 71.6506C59.62 68.9343 57.9039 66.621 55.2771 64.7106L55.3173 64.735ZM17.9443 20.8098C21.5011 21.0705 25.1704 20.5024 28.5312 22.4274C24.6415 23.4946 20.2412 21.9127 16.257 25.003C20.063 34.3532 28.7032 39.1589 35.2119 46.0883C36.4087 43.7365 36.7683 41.7331 36.2908 40.0782C35.1984 36.3659 33.129 33.7279 29.7496 31.9513C28.787 31.4879 28.2045 30.5619 27.6114 29.8165C27.6551 29.4907 27.8649 29.1723 27.8973 28.8288C34.2365 31.4778 40.7927 32.4369 47.505 30.7003C47.2414 25.895 44.0937 23.637 40.6924 22.0233C37.6096 20.6193 33.9191 20.0077 30.4562 19.0665C30.5032 18.7263 30.3695 18.3754 30.4165 18.0352C35.6341 17.3009 41.5971 17.5146 41.8332 10.0461C36.2104 9.87942 22.4416 16.2038 17.9509 20.7808L17.9443 20.8098ZM57.0859 39.2143C59.3401 40.1701 61.6159 39.7577 63.5521 37.9557C65.4883 36.1537 66.9393 33.936 65.9045 31.2438C64.8916 28.3887 63.1479 25.7945 59.7573 25.5411C56.041 25.244 52.4154 25.4864 48.6454 25.5586C49.4955 28.3919 50.0741 30.675 50.7686 33.3203C49.7122 33.5374 49.021 33.6241 47.0888 34.0691C50.9858 35.9178 53.8476 37.6223 57.0859 39.2143ZM74.3016 7.36993C64.1814 5.9807 55.0012 8.43696 46.0198 11.7624C44.956 12.1457 43.9644 13.2168 43.1753 14.1357C41.9884 15.5286 40.9174 17.2835 39.6941 18.8359C47.1475 25.0344 55.2526 24.4847 63.275 20.3458C68.6049 17.5772 73.1684 13.8865 74.3049 7.35543L74.3016 7.36993ZM104.188 60.9879C101.109 58.2269 97.8057 55.781 95.0631 52.883C91.5935 49.2243 87.7077 48.9344 83.4665 51.4779C88.6798 57.7308 97.9064 62.1055 104.188 60.9879ZM72.5891 55.0887C75.6792 53.58 76.7508 50.4825 74.8985 47.36C74.3087 46.6001 74.0664 45.721 73.6539 44.9862L74.4138 44.3964C74.9518 44.5799 75.4344 44.8729 75.8503 45.2576C77.6013 47.6856 80.1162 48.1668 82.8514 48.1489C87.9897 48.0984 91.3259 44.5707 91.1059 39.4396C91.057 38.3146 90.7884 37.2159 90.2837 36.216C89.7791 35.2161 89.0818 34.3249 88.2222 33.6104C87.3626 32.8959 86.3553 32.3613 85.2773 32.07C84.2025 31.7642 83.0605 31.6872 81.9526 31.8622C80.755 31.8946 79.5139 32.2528 78.6381 30.9395C83.1361 27.7374 83.7695 23.884 80.9659 20.316C78.3066 16.9181 74.4314 16.4476 70.5378 18.8719C67.9542 20.4349 65.6889 22.2077 63.0835 23.9336C65.417 27.2877 69.9 29.7124 68.4087 34.9878C67.1346 39.7786 64.1094 42.1412 59.3366 42.0613C61.1167 45.7014 62.922 49.1642 64.5532 52.5873C65.917 55.3087 69.5136 56.6007 72.6036 55.092L72.5891 55.0887ZM62.0806 64.0476C64.2557 58.8516 63.3586 53.6122 60.6384 49.2087C58.3328 45.4641 55.3794 42.1519 51.9081 39.4388C47.6892 36.1894 43.1486 32.7445 37.4458 34.6042C38.3273 49.8952 48.5882 58.3047 60.6621 65.9217C61.2426 65.3825 61.7203 64.7589 62.0806 64.0476Z" fill="#BE9966"/>
</svg>
