<svg width="18" height="17" viewBox="0 0 18 17" fill="none" xmlns="http://www.w3.org/2000/svg">
<path d="M17 12.2621V2.60607C17 1.64607 16.216 0.934073 15.264 1.01407H15.216C13.536 1.15807 10.984 2.01407 9.56 2.91007L9.424 2.99807C9.192 3.14207 8.808 3.14207 8.576 2.99807L8.376 2.87807C6.952 1.99007 4.408 1.14207 2.728 1.00607C1.776 0.926073 1 1.64607 1 2.59807V12.2621C1 13.0301 1.624 13.7501 2.392 13.8461L2.624 13.8781C4.36 14.1101 7.04 14.9901 8.576 15.8301L8.608 15.8461C8.824 15.9661 9.168 15.9661 9.376 15.8461C10.912 14.9981 13.6 14.1101 15.344 13.8781L15.608 13.8461C16.376 13.7501 17 13.0301 17 12.2621Z" stroke="#AAAAAA" stroke-width="1.25" stroke-linecap="round" stroke-linejoin="round"/>
<path d="M9 3.26562V15.2656" stroke="#AAAAAA" stroke-width="1.25" stroke-linecap="round" stroke-linejoin="round"/>
<path d="M5.59883 5.66406H3.79883" stroke="#AAAAAA" stroke-width="1.25" stroke-linecap="round" stroke-linejoin="round"/>
<path d="M6.19883 8.0625H3.79883" stroke="#AAAAAA" stroke-width="1.25" stroke-linecap="round" stroke-linejoin="round"/>
</svg>
