<svg width="18" height="18" viewBox="0 0 18 18" fill="none" xmlns="http://www.w3.org/2000/svg">
<path d="M6.6 17H11.4C15.4 17 17 15.4 17 11.4V6.6C17 2.6 15.4 1 11.4 1H6.6C2.6 1 1 2.6 1 6.6V11.4C1 15.4 2.6 17 6.6 17Z" stroke="#AAAAAA" stroke-width="1.25" stroke-linecap="round" stroke-linejoin="round"/>
<path d="M1 9.79706H4.008C4.616 9.79706 5.168 10.1411 5.44 10.6851L6.152 12.1171C6.6 12.9971 7.4 12.9971 7.592 12.9971H10.416C11.024 12.9971 11.576 12.6531 11.848 12.1091L12.56 10.6771C12.832 10.1331 13.384 9.78906 13.992 9.78906H16.984" stroke="#AAAAAA" stroke-width="1.25" stroke-linecap="round" stroke-linejoin="round"/>
<path d="M7.67383 5H10.3378" stroke="#AAAAAA" stroke-width="1.25" stroke-linecap="round" stroke-linejoin="round"/>
<path d="M7 7.39844H11" stroke="#AAAAAA" stroke-width="1.25" stroke-linecap="round" stroke-linejoin="round"/>
</svg>
