<svg width="14" height="15" viewBox="0 0 14 15" fill="none" xmlns="http://www.w3.org/2000/svg">
<path d="M4.66675 1.66663V3.41663" stroke="#787878" stroke-miterlimit="10" stroke-linecap="round" stroke-linejoin="round"/>
<path d="M9.33325 1.66663V3.41663" stroke="#787878" stroke-miterlimit="10" stroke-linecap="round" stroke-linejoin="round"/>
<path d="M9.33333 2.54163C11.2758 2.64663 12.25 3.38746 12.25 6.12913V9.73413C12.25 12.1375 11.6667 13.3391 8.75 13.3391H5.25C2.33333 13.3391 1.75 12.1375 1.75 9.73413V6.12913C1.75 3.38746 2.72417 2.65246 4.66667 2.54163H9.33333Z" stroke="#787878" stroke-miterlimit="10" stroke-linecap="round" stroke-linejoin="round"/>
<path d="M12.1041 10.7667H1.89575" stroke="#787878" stroke-miterlimit="10" stroke-linecap="round" stroke-linejoin="round"/>
<path d="M7.00008 5.3125C6.28258 5.3125 5.67591 5.70333 5.67591 6.46167C5.67591 6.82333 5.84508 7.0975 6.10175 7.2725C5.74591 7.4825 5.54175 7.82083 5.54175 8.2175C5.54175 8.94083 6.09591 9.39 7.00008 9.39C7.89841 9.39 8.45842 8.94083 8.45842 8.2175C8.45842 7.82083 8.25425 7.47667 7.89258 7.2725C8.15508 7.09167 8.31841 6.82333 8.31841 6.46167C8.31841 5.70333 7.71758 5.3125 7.00008 5.3125ZM7.00008 6.96917C6.69675 6.96917 6.47508 6.78833 6.47508 6.5025C6.47508 6.21083 6.69675 6.04167 7.00008 6.04167C7.30341 6.04167 7.52508 6.21083 7.52508 6.5025C7.52508 6.78833 7.30341 6.96917 7.00008 6.96917ZM7.00008 8.66667C6.61508 8.66667 6.33508 8.47417 6.33508 8.12417C6.33508 7.77417 6.61508 7.5875 7.00008 7.5875C7.38508 7.5875 7.66508 7.78 7.66508 8.12417C7.66508 8.47417 7.38508 8.66667 7.00008 8.66667Z" fill="#787878"/>
</svg>
