<svg width="16" height="17" viewBox="0 0 16 17" fill="none" xmlns="http://www.w3.org/2000/svg">
<path d="M11.6665 15.1666L11.6665 11.1666" stroke="#1D266C" stroke-width="1.253" stroke-miterlimit="10" stroke-linecap="round" stroke-linejoin="round"/>
<path d="M11.6665 4.50004L11.6665 1.83337" stroke="#1D266C" stroke-width="1.253" stroke-miterlimit="10" stroke-linecap="round" stroke-linejoin="round"/>
<path d="M9.33333 7.16671C9.33333 8.45537 10.378 9.50004 11.6667 9.50004C12.9553 9.50004 14 8.45537 14 7.16671C14 5.87804 12.9553 4.83337 11.6667 4.83337C10.378 4.83337 9.33333 5.87804 9.33333 7.16671Z" stroke="#1D266C" stroke-width="1.253" stroke-miterlimit="10" stroke-linecap="round" stroke-linejoin="round"/>
<path d="M4.3335 15.1667L4.3335 12.5" stroke="#1D266C" stroke-width="1.253" stroke-miterlimit="10" stroke-linecap="round" stroke-linejoin="round"/>
<path d="M4.3335 5.83337L4.3335 1.83337" stroke="#1D266C" stroke-width="1.253" stroke-miterlimit="10" stroke-linecap="round" stroke-linejoin="round"/>
<path d="M1.99984 9.83333C1.99984 11.122 3.04451 12.1667 4.33317 12.1667C5.62183 12.1667 6.6665 11.122 6.6665 9.83333C6.6665 8.54467 5.62184 7.5 4.33317 7.5C3.04451 7.5 1.99984 8.54467 1.99984 9.83333Z" stroke="#1D266C" stroke-width="1.253" stroke-miterlimit="10" stroke-linecap="round" stroke-linejoin="round"/>
</svg>
