<svg width="18" height="18" viewBox="0 0 18 18" fill="none" xmlns="http://www.w3.org/2000/svg">
<path d="M13.5 8.19726V11.2847C13.5 11.4854 13.4922 11.6784 13.469 11.8636C13.2909 13.9477 12.0596 14.982 9.79059 14.982H9.48084C9.28724 14.982 9.10137 15.0746 8.98521 15.229L8.05593 16.464C7.6455 17.012 6.9795 17.012 6.56907 16.464L5.63977 15.229C5.5391 15.0978 5.31453 14.982 5.14416 14.982H4.83441C2.36405 14.982 1.125 14.3722 1.125 11.2847V8.19726C1.125 5.93568 2.17045 4.70841 4.2536 4.53088C4.43946 4.50773 4.63306 4.5 4.83441 4.5H9.79059C12.2609 4.5 13.5 5.735 13.5 8.19726Z" stroke="#B9976C" stroke-width="1.25" stroke-miterlimit="10" stroke-linecap="round" stroke-linejoin="round"/>
<path d="M16.875 4.70689V7.69803C16.875 9.89651 15.8269 11.078 13.7385 11.25C13.7618 11.0705 13.7696 10.8836 13.7696 10.6892V7.69803C13.7696 5.3126 12.5274 4.11614 10.0509 4.11614H5.08226C4.88041 4.11614 4.68632 4.12362 4.5 4.14605C4.67856 2.13451 5.91295 1.125 8.18766 1.125H13.1563C15.6328 1.125 16.875 2.32146 16.875 4.70689Z" stroke="#B9976C" stroke-width="1.25" stroke-miterlimit="10" stroke-linecap="round" stroke-linejoin="round"/>
<path d="M10.1216 9.9375H10.1284" stroke="#B9976C" stroke-width="1.75" stroke-linecap="round" stroke-linejoin="round"/>
<path d="M7.49662 9.9375H7.50337" stroke="#B9976C" stroke-width="1.75" stroke-linecap="round" stroke-linejoin="round"/>
<path d="M4.87162 9.9375H4.87837" stroke="#B9976C" stroke-width="1.75" stroke-linecap="round" stroke-linejoin="round"/>
</svg>
