<svg width="18" height="18" viewBox="0 0 18 18" fill="none" xmlns="http://www.w3.org/2000/svg">
<path d="M9.09493 9.62267C9.03893 9.61467 8.96693 9.61467 8.90293 9.62267C7.49497 9.57467 6.375 8.4227 6.375 7.00674C6.375 5.55878 7.54297 4.38281 8.99893 4.38281C10.4469 4.38281 11.6229 5.55878 11.6229 7.00674C11.6149 8.4227 10.5029 9.57467 9.09493 9.62267Z" stroke="#B9976C" stroke-width="1.25" stroke-linecap="round" stroke-linejoin="round"/>
<path d="M14.3892 14.9059C12.9652 16.2099 11.0773 17.0019 8.99732 17.0019C6.91738 17.0019 5.02943 16.2099 3.60547 14.9059C3.68547 14.1539 4.16545 13.418 5.02143 12.842C7.21337 11.386 10.7973 11.386 12.9732 12.842C13.8292 13.418 14.3092 14.1539 14.3892 14.9059Z" stroke="#B9976C" stroke-width="1.25" stroke-linecap="round" stroke-linejoin="round"/>
<path d="M8.99978 16.9996C13.4179 16.9996 16.9996 13.4179 16.9996 8.99978C16.9996 4.58162 13.4179 1 8.99978 1C4.58162 1 1 4.58162 1 8.99978C1 13.4179 4.58162 16.9996 8.99978 16.9996Z" stroke="#B9976C" stroke-width="1.25" stroke-linecap="round" stroke-linejoin="round"/>
</svg>
