<svg width="27" height="29" viewBox="0 0 27 29" fill="none" xmlns="http://www.w3.org/2000/svg">
<path d="M23.4508 10.0352L11.1311 2.04491C10.1689 1.42169 9.03034 1.04631 7.84167 0.960389C6.65299 0.874467 5.46064 1.08135 4.39676 1.55812C3.33289 2.03488 2.43905 2.7629 1.81433 3.66148C1.18961 4.56005 0.858405 5.59409 0.85743 6.64897V22.6375C0.855574 23.6934 1.18505 24.7291 1.80917 25.6292C2.4333 26.5293 3.32759 27.2585 4.39251 27.7358C5.45743 28.213 6.65118 28.4195 7.8409 28.3322C9.03062 28.245 10.1696 27.8674 11.1311 27.2416L23.4508 19.2513C24.2682 18.7207 24.933 18.0273 25.3911 17.2272C25.8493 16.4272 26.088 15.5429 26.088 14.6461C26.088 13.7492 25.8493 12.865 25.3911 12.065C24.933 11.2649 24.2682 10.5715 23.4508 10.0409V10.0352Z" fill="#E8E9F0"/>
</svg>
