<svg width="14" height="16" viewBox="0 0 14 16" fill="none" xmlns="http://www.w3.org/2000/svg">
<path fill-rule="evenodd" clip-rule="evenodd" d="M11.0833 14.7692C10.1167 14.7692 9.33333 13.9428 9.33333 12.9231C9.33333 11.9034 10.1167 11.0769 11.0833 11.0769C12.0499 11.0769 12.8333 11.9034 12.8333 12.9231C12.8333 13.9428 12.0499 14.7692 11.0833 14.7692ZM2.91667 9.84615C1.95008 9.84615 1.16667 9.01969 1.16667 8C1.16667 6.98092 1.95008 6.15385 2.91667 6.15385C3.88325 6.15385 4.66667 6.98092 4.66667 8C4.66667 9.01969 3.88325 9.84615 2.91667 9.84615ZM11.0833 1.23077C12.0499 1.23077 12.8333 2.05723 12.8333 3.07692C12.8333 4.09662 12.0499 4.92308 11.0833 4.92308C10.1167 4.92308 9.33333 4.09662 9.33333 3.07692C9.33333 2.05723 10.1167 1.23077 11.0833 1.23077ZM11.0833 9.84615C10.0508 9.84615 9.14958 10.4154 8.63099 11.2689L5.50726 9.38586C5.70909 8.96739 5.83333 8.50092 5.83333 8C5.83333 7.69046 5.77676 7.39753 5.69626 7.11569L8.946 5.15693C9.47858 5.76616 10.2357 6.15385 11.0833 6.15385C12.6945 6.15385 14 4.77662 14 3.07692C14 1.37723 12.6945 0 11.0833 0C9.47217 0 8.16667 1.37723 8.16667 3.07692C8.16667 3.38646 8.22324 3.67938 8.30374 3.96184L5.054 5.92C4.52142 5.31138 3.76425 4.92308 2.91667 4.92308C1.3055 4.92308 0 6.30031 0 8C0 9.69969 1.3055 11.0769 2.91667 11.0769C3.58167 11.0769 4.18774 10.8332 4.67833 10.4381L4.66667 10.4615L8.19875 12.5908C8.18708 12.7016 8.16667 12.8086 8.16667 12.9231C8.16667 14.6228 9.47217 16 11.0833 16C12.6945 16 14 14.6228 14 12.9231C14 11.2234 12.6945 9.84615 11.0833 9.84615Z" fill="#B9976C"/>
</svg>
