<svg width="14" height="13" viewBox="0 0 14 13" fill="none" xmlns="http://www.w3.org/2000/svg">
<path d="M10.8462 8.16456C10.6798 8.32583 10.6034 8.55906 10.6413 8.7878L11.2125 11.949C11.2607 12.2169 11.1476 12.488 10.9233 12.6429C10.7036 12.8035 10.4113 12.8228 10.1716 12.6943L7.32591 11.2101C7.22696 11.1574 7.11709 11.1291 7.00465 11.1259H6.83053C6.77014 11.1349 6.71103 11.1542 6.65706 11.1837L3.81073 12.675C3.67002 12.7457 3.51067 12.7707 3.35454 12.7457C2.97418 12.6737 2.72038 12.3113 2.78271 11.929L3.35454 8.76788C3.39245 8.53722 3.31599 8.3027 3.14958 8.13886L0.829471 5.89007C0.635432 5.70181 0.567968 5.41911 0.656635 5.16403C0.742732 4.9096 0.962471 4.72391 1.22783 4.68215L4.42111 4.21889C4.66398 4.19384 4.8773 4.04606 4.98652 3.8276L6.39363 0.942725C6.42704 0.878474 6.47008 0.819363 6.52213 0.769247L6.57995 0.724271C6.61015 0.690861 6.64485 0.663233 6.6834 0.640745L6.75343 0.615044L6.86266 0.570068H7.13316C7.37474 0.595126 7.58741 0.739692 7.69857 0.955576L9.1243 3.8276C9.2271 4.03771 9.42693 4.18356 9.65759 4.21889L12.8509 4.68215C13.1207 4.7207 13.3462 4.90702 13.4356 5.16403C13.5197 5.42168 13.4471 5.70438 13.2492 5.89007L10.8462 8.16456Z" fill="#B9976C"/>
</svg>
