<svg width="14" height="13" viewBox="0 0 14 13" fill="none" xmlns="http://www.w3.org/2000/svg">
<path fill-rule="evenodd" clip-rule="evenodd" d="M2.43973 12.2637C2.60936 12.5804 2.94025 12.7783 3.30006 12.7777C3.45169 12.7783 3.60204 12.743 3.73696 12.6749L6.66168 11.1457C6.66939 11.1412 6.67838 11.1386 6.68738 11.1393L9.59218 12.6556C9.73289 12.7314 9.8903 12.7706 10.0496 12.77C10.1004 12.77 10.1518 12.7655 10.2019 12.7584C10.7249 12.6729 11.0822 12.1834 11.0051 11.6597L10.4397 8.44072C10.437 8.43688 10.4359 8.43602 10.4354 8.43554C10.4352 8.43522 10.4352 8.43507 10.4352 8.43429C10.4352 8.43237 10.4397 8.42787 10.4397 8.42787L12.7977 6.14695C13.1459 5.81092 13.1902 5.26928 12.9005 4.8812C12.7431 4.67817 12.5124 4.54453 12.258 4.50855L9.00556 4.03951C8.99978 4.03951 8.99336 4.03309 8.98693 4.02666L7.53421 1.10966C7.37037 0.780048 7.03498 0.571874 6.66682 0.569946C6.56016 0.569946 6.45351 0.586652 6.35199 0.621347C6.10848 0.704231 5.90737 0.878995 5.793 1.10966L4.34221 4.01831C4.34221 4.0318 4.32872 4.03758 4.31587 4.03758L1.07118 4.50662C0.872646 4.54003 0.687603 4.6287 0.537897 4.76362C0.348356 4.94931 0.241699 5.20439 0.241699 5.47039C0.242342 5.72289 0.343859 5.96448 0.524405 6.14053L2.9017 8.42787C2.90684 8.43301 2.90877 8.44008 2.90877 8.44714L2.33629 11.6533C2.30224 11.8627 2.33886 12.0773 2.43973 12.2637ZM6.64819 1.51251L6.65461 1.50801H6.66682L6.6726 1.5138C6.67839 1.5138 6.68353 1.51508 6.68802 1.51894C6.69188 1.52279 6.69381 1.52793 6.69316 1.53371L8.14524 4.43723C8.28467 4.72314 8.55581 4.92232 8.87064 4.97051L12.123 5.4434C12.1288 5.4434 12.1346 5.44469 12.1397 5.44726C12.143 5.4479 12.1455 5.4479 12.1487 5.44726L12.1552 5.45304L12.1487 5.46717L9.79071 7.75387C9.5562 7.97361 9.45147 8.29872 9.51379 8.6142L10.0798 11.8146L10.067 11.8268H10.0535C10.0509 11.828 10.0484 11.828 10.0458 11.8268C10.0394 11.8261 10.0329 11.8235 10.0272 11.8203H10.0214L7.13007 10.3104C6.99129 10.2385 6.83709 10.1999 6.68031 10.2006C6.51904 10.2006 6.3597 10.241 6.21706 10.3169L3.30712 11.8428C3.30391 11.8435 3.30006 11.8435 3.29684 11.8428C3.28335 11.8428 3.27179 11.8338 3.26857 11.821V11.8081L3.83398 8.60841C3.88667 8.29551 3.78387 7.97618 3.5577 7.75387L1.18041 5.47296C1.17977 5.46332 1.18105 5.45497 1.18619 5.44661L1.22539 5.43376L4.45722 4.97051C4.77205 4.92168 5.04255 4.72314 5.18262 4.43723L6.63534 1.52665C6.63855 1.52086 6.6424 1.51572 6.64819 1.51251Z" fill="#B9976C"/>
</svg>
