<svg width="18" height="16" viewBox="0 0 18 16" fill="none" xmlns="http://www.w3.org/2000/svg">
<path d="M13.932 9.93343C13.7162 10.1426 13.617 10.4451 13.6662 10.7418L14.407 14.8418C14.4695 15.1893 14.3228 15.5409 14.032 15.7418C13.747 15.9501 13.3678 15.9751 13.057 15.8084L9.36616 13.8834C9.23782 13.8151 9.09532 13.7784 8.94949 13.7743H8.72366C8.64532 13.7859 8.56866 13.8109 8.49866 13.8493L4.80699 15.7834C4.62449 15.8751 4.41782 15.9076 4.21532 15.8751C3.72199 15.7818 3.39282 15.3118 3.47366 14.8159L4.21532 10.7159C4.26449 10.4168 4.16532 10.1126 3.94949 9.9001L0.940323 6.98343C0.688656 6.73927 0.601156 6.3726 0.716156 6.04177C0.827823 5.71177 1.11282 5.47093 1.45699 5.41677L5.59866 4.81593C5.91366 4.78343 6.19032 4.59177 6.33199 4.30843L8.15699 0.566768C8.20032 0.483435 8.25616 0.406768 8.32366 0.341768L8.39866 0.283435C8.43782 0.240102 8.48282 0.204268 8.53282 0.175102L8.62366 0.141768L8.76532 0.0834351H9.11616C9.42949 0.115935 9.70532 0.303435 9.84949 0.583435L11.6987 4.30843C11.832 4.58094 12.0912 4.7701 12.3903 4.81593L16.532 5.41677C16.882 5.46677 17.1745 5.70844 17.2903 6.04177C17.3995 6.37594 17.3053 6.7426 17.0487 6.98343L13.932 9.93343Z" fill="#B9976C"/>
</svg>
