<svg width="16" height="17" viewBox="0 0 16 17" fill="none" xmlns="http://www.w3.org/2000/svg">
<path d="M9.33333 11.2733L6.69333 8.6333" stroke="#4F4F4F" stroke-miterlimit="10" stroke-linecap="round" stroke-linejoin="round"/>
<path d="M9.30667 8.66016L6.66667 11.3002" stroke="#4F4F4F" stroke-miterlimit="10" stroke-linecap="round" stroke-linejoin="round"/>
<path d="M6.66666 4.50016H9.33333C10.6667 4.50016 10.6667 3.8335 10.6667 3.16683C10.6667 1.8335 10 1.8335 9.33333 1.8335H6.66666C5.99999 1.8335 5.33333 1.8335 5.33333 3.16683C5.33333 4.50016 5.99999 4.50016 6.66666 4.50016Z" stroke="#4F4F4F" stroke-miterlimit="10" stroke-linecap="round" stroke-linejoin="round"/>
<path d="M10.6667 3.18018C12.8867 3.30018 14 4.12018 14 7.16684V11.1668C14 13.8335 13.3333 15.1668 10 15.1668H6C2.66667 15.1668 2 13.8335 2 11.1668V7.16684C2 4.12684 3.11333 3.30018 5.33333 3.18018" stroke="#4F4F4F" stroke-miterlimit="10" stroke-linecap="round" stroke-linejoin="round"/>
</svg>
