<svg width="18" height="18" viewBox="0 0 18 18" fill="none" xmlns="http://www.w3.org/2000/svg">
<path d="M8.11073 1.23486H6.53057C2.58016 1.23486 1 2.80761 1 6.73947V11.4577C1 15.3896 2.58016 16.9623 6.53057 16.9623H11.2711C15.2215 16.9623 16.8016 15.3896 16.8016 11.4577V9.88496" stroke="#1D266C" stroke-width="1.75" stroke-linecap="round" stroke-linejoin="round"/>
<path d="M12.0927 2.03726L5.86686 8.23387C5.62984 8.46978 5.39282 8.93374 5.34541 9.27188L5.00568 11.6389C4.87926 12.496 5.48763 13.0936 6.34881 12.9757L8.72696 12.6376C9.05879 12.5904 9.52494 12.3545 9.76987 12.1185L15.9957 5.92193C17.0702 4.85247 17.5759 3.61 15.9957 2.03726C14.4155 0.464513 13.1672 0.967791 12.0927 2.03726Z" stroke="#1D266C" stroke-width="1.75" stroke-miterlimit="10" stroke-linecap="round" stroke-linejoin="round"/>
<path d="M11.2 2.92627C11.7293 4.8057 13.2068 6.27621 15.103 6.81095" stroke="#1D266C" stroke-width="1.75" stroke-miterlimit="10" stroke-linecap="round" stroke-linejoin="round"/>
</svg>
