<svg width="15" height="14" viewBox="0 0 15 14" fill="none" xmlns="http://www.w3.org/2000/svg">
<path d="M7.8534 1.03616L13.2776 3.20583C13.4885 3.2902 13.6573 3.54333 13.6573 3.76632V5.76726C13.6573 6.09874 13.3861 6.36995 13.0546 6.36995H2.2062C1.87473 6.36995 1.60352 6.09874 1.60352 5.76726V3.76632C1.60352 3.54333 1.77227 3.2902 1.98321 3.20583L7.40742 1.03616C7.52795 0.987946 7.73286 0.987946 7.8534 1.03616Z" stroke="#A8A8A8" stroke-miterlimit="10" stroke-linecap="round" stroke-linejoin="round"/>
<path d="M13.6573 13.0006H1.60352V11.1925C1.60352 10.8611 1.87473 10.5898 2.2062 10.5898H13.0546C13.3861 10.5898 13.6573 10.8611 13.6573 11.1925V13.0006Z" stroke="#A8A8A8" stroke-miterlimit="10" stroke-linecap="round" stroke-linejoin="round"/>
<path d="M2.8076 10.5889V6.37012" stroke="#A8A8A8" stroke-miterlimit="10" stroke-linecap="round" stroke-linejoin="round"/>
<path d="M5.21973 10.5889V6.37012" stroke="#A8A8A8" stroke-miterlimit="10" stroke-linecap="round" stroke-linejoin="round"/>
<path d="M7.62988 10.5889V6.37012" stroke="#A8A8A8" stroke-miterlimit="10" stroke-linecap="round" stroke-linejoin="round"/>
<path d="M10.041 10.5889V6.37012" stroke="#A8A8A8" stroke-miterlimit="10" stroke-linecap="round" stroke-linejoin="round"/>
<path d="M12.4512 10.5889V6.37012" stroke="#A8A8A8" stroke-miterlimit="10" stroke-linecap="round" stroke-linejoin="round"/>
<path d="M1 13H14.2592" stroke="#A8A8A8" stroke-miterlimit="10" stroke-linecap="round" stroke-linejoin="round"/>
</svg>
