<svg width="22" height="22" viewBox="0 0 22 22" fill="none" xmlns="http://www.w3.org/2000/svg">
<path d="M3.53571 6.87514C3.53571 6.71885 3.47362 6.56896 3.36311 6.45845C3.2526 6.34794 3.10271 6.28585 2.94642 6.28585C2.79013 6.28585 2.64024 6.34794 2.52973 6.45845C2.41922 6.56896 2.35713 6.71885 2.35713 6.87514V18.268C2.35713 19.027 2.97313 19.643 3.73213 19.643H18.2678C18.6325 19.643 18.9823 19.4981 19.2401 19.2403C19.498 18.9824 19.6428 18.6327 19.6428 18.268V6.87514C19.6428 6.71885 19.5808 6.56896 19.4703 6.45845C19.3597 6.34794 19.2099 6.28585 19.0536 6.28585C18.8973 6.28585 18.7474 6.34794 18.6369 6.45845C18.5264 6.56896 18.4643 6.71885 18.4643 6.87514V11.7859H15.9704C16.3098 11.0709 16.5 10.2726 16.5 9.42871C16.5 8.56993 16.1118 7.79835 15.6074 7.15407C15.0998 6.50664 14.4383 5.94093 13.8003 5.47893C13.0143 4.91483 12.1788 4.42306 11.3041 4.00964L11.2585 3.98843L11.2459 3.98293L11.2428 3.98135L11.2412 3.98057C11.1653 3.94653 11.0831 3.92894 11 3.92894C10.9168 3.92894 10.8346 3.94653 10.7588 3.98057H10.7572L10.7533 3.98293L10.7415 3.98843L10.6959 4.00885L10.5309 4.08743C10.3361 4.18295 10.1433 4.28249 9.95263 4.386C9.47728 4.64214 8.84006 5.01457 8.19892 5.47893C7.56171 5.94093 6.90013 6.50664 6.39256 7.15407C5.88735 7.79835 5.49999 8.56993 5.49999 9.42871C5.49999 10.2726 5.69013 11.0709 6.02956 11.7859H3.53571V6.87514ZM14.6221 11.7859H7.37785C6.92019 11.085 6.67715 10.2658 6.67856 9.42871C6.67856 8.93135 6.90485 8.41121 7.32049 7.88085C7.73378 7.35285 8.30028 6.861 8.89035 6.43357C9.55765 5.9554 10.2633 5.53308 11 5.17093C11.7368 5.53334 12.4424 5.95591 13.1096 6.43435C13.6997 6.861 14.2662 7.35285 14.6795 7.88007C15.0959 8.41121 15.3214 8.93135 15.3214 9.42871C15.3228 10.2658 15.0798 11.085 14.6221 11.7859ZM18.2678 18.4644H13.3571V16.5001C13.3571 16.1906 13.2962 15.8841 13.1777 15.5981C13.0592 15.3121 12.8856 15.0523 12.6667 14.8334C12.4479 14.6145 12.188 14.4409 11.902 14.3224C11.616 14.204 11.3095 14.143 11 14.143C10.6904 14.143 10.3839 14.204 10.098 14.3224C9.81197 14.4409 9.55212 14.6145 9.33324 14.8334C9.11436 15.0523 8.94073 15.3121 8.82227 15.5981C8.70382 15.8841 8.64285 16.1906 8.64285 16.5001V18.4644H3.73213C3.68004 18.4644 3.63008 18.4437 3.59324 18.4069C3.5564 18.3701 3.53571 18.3201 3.53571 18.268V12.9644H18.4643V18.268C18.4643 18.3201 18.4436 18.3701 18.4067 18.4069C18.3699 18.4437 18.3199 18.4644 18.2678 18.4644ZM9.82142 16.5001C9.82142 16.1876 9.94559 15.8878 10.1666 15.6668C10.3876 15.4457 10.6874 15.3216 11 15.3216C11.3126 15.3216 11.6123 15.4457 11.8334 15.6668C12.0544 15.8878 12.1786 16.1876 12.1786 16.5001V18.4644H9.82142V16.5001ZM2.94642 5.50014C3.1548 5.50014 3.35465 5.41736 3.502 5.27001C3.64935 5.12266 3.73213 4.92281 3.73213 4.71443C3.73213 4.50604 3.64935 4.30619 3.502 4.15884C3.35465 4.01149 3.1548 3.92871 2.94642 3.92871C2.73804 3.92871 2.53819 4.01149 2.39084 4.15884C2.24349 4.30619 2.16071 4.50604 2.16071 4.71443C2.16071 4.92281 2.24349 5.12266 2.39084 5.27001C2.53819 5.41736 2.73804 5.50014 2.94642 5.50014ZM19.8393 4.71443C19.8393 4.92281 19.7565 5.12266 19.6091 5.27001C19.4618 5.41736 19.2619 5.50014 19.0536 5.50014C18.8452 5.50014 18.6453 5.41736 18.498 5.27001C18.3506 5.12266 18.2678 4.92281 18.2678 4.71443C18.2678 4.50604 18.3506 4.30619 18.498 4.15884C18.6453 4.01149 18.8452 3.92871 19.0536 3.92871C19.2619 3.92871 19.4618 4.01149 19.6091 4.15884C19.7565 4.30619 19.8393 4.50604 19.8393 4.71443Z" fill="#5461CA"/>
</svg>
