<svg xmlns="http://www.w3.org/2000/svg" width="16" height="17" viewBox="0 0 16 17" fill="none">
  <path d="M3.59981 1.90088H12.3998C13.1331 1.90088 13.7331 2.50088 13.7331 3.23421V4.70088C13.7331 5.23421 13.3998 5.90088 13.0665 6.23421L10.1998 8.76754C9.79981 9.10088 9.53315 9.76755 9.53315 10.3009V13.1675C9.53315 13.5675 9.26648 14.1009 8.93315 14.3009L7.99981 14.9009C7.13315 15.4342 5.93315 14.8342 5.93315 13.7675V10.2342C5.93315 9.76755 5.66648 9.16754 5.39981 8.83421L2.86648 6.16755C2.53315 5.83421 2.26648 5.23421 2.26648 4.83421V3.30088C2.26648 2.50088 2.86648 1.90088 3.59981 1.90088Z" stroke="#1D256D" stroke-width="1.25" stroke-miterlimit="10" stroke-linecap="round" stroke-linejoin="round"/>
  <path d="M7.28667 1.90088L4 7.16755" stroke="#1D256D" stroke-width="1.25" stroke-miterlimit="10" stroke-linecap="round" stroke-linejoin="round"/>
</svg>