<svg width="15" height="15" viewBox="0 0 15 15" fill="none" xmlns="http://www.w3.org/2000/svg">
<path d="M10.75 7.5C10.75 9.294 9.294 10.75 7.5 10.75C5.706 10.75 4.61075 8.943 4.61075 8.943M4.61075 8.943H6.07975M4.61075 8.943V10.568M4.25 7.5C4.25 5.706 5.693 4.25 7.5 4.25C9.66775 4.25 10.75 6.057 10.75 6.057M10.75 6.057V4.432M10.75 6.057H9.307" stroke="#A8A8A8" stroke-width="0.75" stroke-linecap="round" stroke-linejoin="round"/>
<path d="M7.5 14.5C11.366 14.5 14.5 11.366 14.5 7.5C14.5 3.63401 11.366 0.5 7.5 0.5C3.63401 0.5 0.5 3.63401 0.5 7.5C0.5 11.366 3.63401 14.5 7.5 14.5Z" stroke="#A8A8A8" stroke-miterlimit="10" stroke-linecap="round" stroke-linejoin="round"/>
</svg>
