<svg xmlns="http://www.w3.org/2000/svg" width="18" height="19" viewBox="0 0 18 19" fill="none">
  <path d="M6 2V4.25" stroke="#1D256D" stroke-opacity="0.8" stroke-miterlimit="10" stroke-linecap="round" stroke-linejoin="round"/>
  <path d="M12 2V4.25" stroke="#1D256D" stroke-opacity="0.8" stroke-miterlimit="10" stroke-linecap="round" stroke-linejoin="round"/>
  <path d="M12 3.125C14.4975 3.26 15.75 4.2125 15.75 7.7375V12.3725C15.75 15.4625 15 17.0075 11.25 17.0075H6.75C3 17.0075 2.25 15.4625 2.25 12.3725V7.7375C2.25 4.2125 3.5025 3.2675 6 3.125H12Z" stroke="#1D256D" stroke-opacity="0.8" stroke-miterlimit="10" stroke-linecap="round" stroke-linejoin="round"/>
  <path d="M15.5625 13.7002H2.4375" stroke="#1D256D" stroke-opacity="0.8" stroke-miterlimit="10" stroke-linecap="round" stroke-linejoin="round"/>
  <path d="M9 6.6875C8.0775 6.6875 7.2975 7.19 7.2975 8.165C7.2975 8.63 7.515 8.9825 7.845 9.2075C7.3875 9.4775 7.125 9.9125 7.125 10.4225C7.125 11.3525 7.8375 11.93 9 11.93C10.155 11.93 10.875 11.3525 10.875 10.4225C10.875 9.9125 10.6125 9.47 10.1475 9.2075C10.485 8.975 10.695 8.63 10.695 8.165C10.695 7.19 9.9225 6.6875 9 6.6875ZM9 8.8175C8.61 8.8175 8.325 8.585 8.325 8.2175C8.325 7.8425 8.61 7.625 9 7.625C9.39 7.625 9.675 7.8425 9.675 8.2175C9.675 8.585 9.39 8.8175 9 8.8175ZM9 11C8.505 11 8.145 10.7525 8.145 10.3025C8.145 9.8525 8.505 9.6125 9 9.6125C9.495 9.6125 9.855 9.86 9.855 10.3025C9.855 10.7525 9.495 11 9 11Z" fill="#1D256D" fill-opacity="0.8"/>
</svg>