<svg width="25" height="24" viewBox="0 0 25 24" fill="none" xmlns="http://www.w3.org/2000/svg">
<path d="M18.8503 2H6.81693C5.15232 2 3.80859 3.33 3.80859 4.97V15.88C3.80859 17.52 5.15232 18.85 6.81693 18.85H7.57904C8.38126 18.85 9.14337 19.16 9.70493 19.72L11.4197 21.41C12.2018 22.18 13.4754 22.18 14.2575 21.41L15.9723 19.72C16.5338 19.16 17.306 18.85 18.0982 18.85H18.8503C20.5149 18.85 21.8586 17.52 21.8586 15.88V4.97C21.8586 3.33 20.5149 2 18.8503 2ZM11.2091 13.01C11.6202 13.01 11.9612 13.35 11.9612 13.76C11.9612 14.17 11.6202 14.51 11.2091 14.51H8.52165C8.08043 14.51 7.66929 14.3 7.40857 13.94C7.15787 13.6 7.09771 13.18 7.21804 12.78C7.56901 11.71 8.4314 11.13 9.19351 10.61C9.99573 10.07 10.447 9.73 10.447 9.15C10.447 8.63 10.0258 8.21 9.50437 8.21C8.98293 8.21 8.57179 8.64 8.57179 9.16C8.57179 9.57 8.23084 9.91 7.81971 9.91C7.40857 9.91 7.06762 9.57 7.06762 9.16C7.06762 7.82 8.16065 6.72 9.5144 6.72C10.8681 6.72 11.9612 7.81 11.9612 9.16C11.9612 10.57 10.8982 11.29 10.0459 11.87C9.5144 12.23 9.01301 12.57 8.76232 13.02H11.2091V13.01ZM17.8475 13.08H17.6369V13.77C17.6369 14.18 17.296 14.52 16.8848 14.52C16.4737 14.52 16.1327 14.18 16.1327 13.77V13.08H14.1673C14.1673 13.08 14.1673 13.08 14.1573 13.08C13.6659 13.08 13.2147 12.82 12.964 12.4C12.7133 11.97 12.7133 11.44 12.964 11.02C13.6458 9.85 14.438 8.52 15.16 7.36C15.4809 6.85 16.0926 6.62 16.6642 6.78C17.2358 6.95 17.6369 7.47 17.6269 8.07V11.59H17.8475C18.2586 11.59 18.5996 11.93 18.5996 12.34C18.5996 12.75 18.2586 13.08 17.8475 13.08Z" fill="#5462CA"/>
<path d="M16.1318 11.5799V8.63989C15.5402 9.59989 14.9285 10.6299 14.377 11.5699H16.1318V11.5799Z" fill="#5462CA"/>
</svg>
