<svg width="25" height="24" viewBox="0 0 25 24" fill="none" xmlns="http://www.w3.org/2000/svg">
<path d="M18.8503 18.86H18.0882C17.2859 18.86 16.5238 19.17 15.9623 19.73L14.2475 21.42C13.4653 22.19 12.1918 22.19 11.4097 21.42L9.69489 19.73C9.13334 19.17 8.36121 18.86 7.56901 18.86H6.81693C5.15232 18.86 3.80859 17.53 3.80859 15.89V4.97998C3.80859 3.33998 5.15232 2.01001 6.81693 2.01001H18.8503C20.5149 2.01001 21.8586 3.33998 21.8586 4.97998V15.89C21.8586 17.52 20.5149 18.86 18.8503 18.86Z" stroke="#292D32" stroke-width="1.5" stroke-miterlimit="10" stroke-linecap="round" stroke-linejoin="round"/>
<path d="M7.81934 9.15979C7.81934 8.22979 8.58145 7.46973 9.51403 7.46973C10.4466 7.46973 11.2087 8.22979 11.2087 9.15979C11.2087 11.0398 8.5313 11.2398 7.93966 13.0298C7.81933 13.3998 8.13019 13.7698 8.52128 13.7698H11.2087" stroke="#292D32" stroke-width="1.5" stroke-linecap="round" stroke-linejoin="round"/>
<path d="M16.884 13.7599V8.04991C16.884 7.78991 16.7135 7.55985 16.4628 7.48985C16.2121 7.41985 15.9414 7.51985 15.801 7.73985C15.079 8.89985 14.2968 10.2199 13.615 11.3799C13.5047 11.5699 13.5047 11.8199 13.615 12.0099C13.7253 12.1999 13.9358 12.3198 14.1665 12.3198H17.8467" stroke="#292D32" stroke-width="1.5" stroke-linecap="round" stroke-linejoin="round"/>
</svg>
