<svg width="25" height="24" viewBox="0 0 25 24" fill="none" xmlns="http://www.w3.org/2000/svg">
<path d="M21.0779 8.45C20.025 3.83 15.9838 1.75 12.4339 1.75C12.4339 1.75 12.4339 1.75 12.4239 1.75C8.88411 1.75 4.83289 3.82 3.77997 8.44C2.60672 13.6 5.7755 17.97 8.64344 20.72C9.70639 21.74 11.0702 22.25 12.4339 22.25C13.7977 22.25 15.1615 21.74 16.2144 20.72C19.0824 17.97 22.2511 13.61 21.0779 8.45ZM12.4339 13.46C10.6891 13.46 9.27519 12.05 9.27519 10.31C9.27519 8.57 10.6891 7.16 12.4339 7.16C14.1788 7.16 15.5927 8.57 15.5927 10.31C15.5927 12.05 14.1788 13.46 12.4339 13.46Z" fill="#5462CA"/>
</svg>
