<svg width="25" height="24" viewBox="0 0 25 24" fill="none" xmlns="http://www.w3.org/2000/svg">
<path d="M12.9272 14.92C14.5665 14.92 15.8954 13.5948 15.8954 11.96C15.8954 10.3252 14.5665 9 12.9272 9C11.2879 9 9.95898 10.3252 9.95898 11.96C9.95898 13.5948 11.2879 14.92 12.9272 14.92Z" fill="#5462CA"/>
<path d="M21.9516 14.92C23.5909 14.92 24.9198 13.5948 24.9198 11.96C24.9198 10.3252 23.5909 9 21.9516 9C20.3123 9 18.9834 10.3252 18.9834 11.96C18.9834 13.5948 20.3123 14.92 21.9516 14.92Z" fill="#5462CA"/>
<path d="M3.90182 14.92C5.54112 14.92 6.87004 13.5948 6.87004 11.96C6.87004 10.3252 5.54112 9 3.90182 9C2.26251 9 0.933594 10.3252 0.933594 11.96C0.933594 13.5948 2.26251 14.92 3.90182 14.92Z" fill="#5462CA"/>
</svg>
