<svg width="25" height="24" viewBox="0 0 25 24" fill="none" xmlns="http://www.w3.org/2000/svg">
<path d="M15.1454 11.96C15.1454 13.1786 14.1543 14.17 12.9272 14.17C11.7002 14.17 10.709 13.1786 10.709 11.96C10.709 10.7414 11.7002 9.75 12.9272 9.75C14.1543 9.75 15.1454 10.7414 15.1454 11.96Z" stroke="black" stroke-width="1.5"/>
<path d="M24.1698 11.96C24.1698 13.1786 23.1787 14.17 21.9516 14.17C20.7246 14.17 19.7334 13.1786 19.7334 11.96C19.7334 10.7414 20.7246 9.75 21.9516 9.75C23.1787 9.75 24.1698 10.7414 24.1698 11.96Z" stroke="black" stroke-width="1.5"/>
<path d="M6.12004 11.96C6.12004 13.1786 5.12887 14.17 3.90182 14.17C2.67476 14.17 1.68359 13.1786 1.68359 11.96C1.68359 10.7414 2.67476 9.75 3.90182 9.75C5.12887 9.75 6.12004 10.7414 6.12004 11.96Z" stroke="black" stroke-width="1.5"/>
</svg>
