<svg width="25" height="24" viewBox="0 0 25 24" fill="none" xmlns="http://www.w3.org/2000/svg">
<path d="M16.5781 2H8.55588C5.04616 2 3.54199 4 3.54199 7V17C3.54199 20 5.04616 22 8.55588 22H16.5781C20.0878 22 21.592 20 21.592 17V7C21.592 4 20.0878 2 16.5781 2ZM8.55588 12.25H12.567C12.9781 12.25 13.3191 12.59 13.3191 13C13.3191 13.41 12.9781 13.75 12.567 13.75H8.55588C8.14474 13.75 7.8038 13.41 7.8038 13C7.8038 12.59 8.14474 12.25 8.55588 12.25ZM16.5781 17.75H8.55588C8.14474 17.75 7.8038 17.41 7.8038 17C7.8038 16.59 8.14474 16.25 8.55588 16.25H16.5781C16.9892 16.25 17.3302 16.59 17.3302 17C17.3302 17.41 16.9892 17.75 16.5781 17.75ZM19.085 9.25H17.0795C15.5553 9.25 14.3219 8.02 14.3219 6.5V4.5C14.3219 4.09 14.6628 3.75 15.0739 3.75C15.4851 3.75 15.826 4.09 15.826 4.5V6.5C15.826 7.19 16.3876 7.75 17.0795 7.75H19.085C19.4962 7.75 19.8371 8.09 19.8371 8.5C19.8371 8.91 19.4962 9.25 19.085 9.25Z" fill="#5462CA"/>
</svg>
