<svg width="25" height="24" viewBox="0 0 25 24" fill="none" xmlns="http://www.w3.org/2000/svg">
<path d="M17.3141 3.5H7.28635C4.27802 3.5 2.27246 5 2.27246 8.5V15.5C2.27246 19 4.27802 20.5 7.28635 20.5H17.3141C20.3225 20.5 22.328 19 22.328 15.5V8.5C22.328 5 20.3225 3.5 17.3141 3.5ZM17.7854 9.59L14.6467 12.09C13.9849 12.62 13.1426 12.88 12.3002 12.88C11.4579 12.88 10.6055 12.62 9.95374 12.09L6.81504 9.59C6.49416 9.33 6.44402 8.85 6.69471 8.53C6.95543 8.21 7.42674 8.15 7.74763 8.41L10.8863 10.91C11.6484 11.52 12.942 11.52 13.7041 10.91L16.8428 8.41C17.1637 8.15 17.645 8.2 17.8957 8.53C18.1565 8.85 18.1063 9.33 17.7854 9.59Z" fill="#5462CA"/>
</svg>
