<svg width="25" height="24" viewBox="0 0 25 24" fill="none" xmlns="http://www.w3.org/2000/svg">
<path d="M22.0607 8.52V3.98C22.0607 2.57 21.4189 2 19.8245 2H15.7733C14.1789 2 13.5371 2.57 13.5371 3.98V8.51C13.5371 9.93 14.1789 10.49 15.7733 10.49H19.8245C21.4189 10.5 22.0607 9.93 22.0607 8.52Z" fill="#5462CA"/>
<path d="M22.0607 19.77V15.73C22.0607 14.14 21.4189 13.5 19.8245 13.5H15.7733C14.1789 13.5 13.5371 14.14 13.5371 15.73V19.77C13.5371 21.36 14.1789 22 15.7733 22H19.8245C21.4189 22 22.0607 21.36 22.0607 19.77Z" fill="#5462CA"/>
<path d="M10.5295 8.52V3.98C10.5295 2.57 9.88769 2 8.29328 2H4.24205C2.64764 2 2.00586 2.57 2.00586 3.98V8.51C2.00586 9.93 2.64764 10.49 4.24205 10.49H8.29328C9.88769 10.5 10.5295 9.93 10.5295 8.52Z" fill="#5462CA"/>
<path d="M10.5295 19.77V15.73C10.5295 14.14 9.88769 13.5 8.29328 13.5H4.24205C2.64764 13.5 2.00586 14.14 2.00586 15.73V19.77C2.00586 21.36 2.64764 22 4.24205 22H8.29328C9.88769 22 10.5295 21.36 10.5295 19.77Z" fill="#5462CA"/>
</svg>
