<svg width="25" height="24" viewBox="0 0 25 24" fill="none" xmlns="http://www.w3.org/2000/svg">
<path d="M12.7006 22C18.2388 22 22.7284 17.5228 22.7284 12C22.7284 6.47715 18.2388 2 12.7006 2C7.16244 2 2.67285 6.47715 2.67285 12C2.67285 17.5228 7.16244 22 12.7006 22Z" stroke="#292D32" stroke-width="1.5" stroke-linecap="round" stroke-linejoin="round"/>
<path d="M8.68937 3H9.69215C7.73673 8.84 7.73673 15.16 9.69215 21H8.68937" stroke="#292D32" stroke-width="1.5" stroke-linecap="round" stroke-linejoin="round"/>
<path d="M15.709 3C17.6644 8.84 17.6644 15.16 15.709 21" stroke="#292D32" stroke-width="1.5" stroke-linecap="round" stroke-linejoin="round"/>
<path d="M3.67578 16V15C9.532 16.95 15.8696 16.95 21.7258 15V16" stroke="#292D32" stroke-width="1.5" stroke-linecap="round" stroke-linejoin="round"/>
<path d="M3.67578 9.0001C9.532 7.0501 15.8696 7.0501 21.7258 9.0001" stroke="#292D32" stroke-width="1.5" stroke-linecap="round" stroke-linejoin="round"/>
</svg>
