<svg width="25" height="24" viewBox="0 0 25 24" fill="none" xmlns="http://www.w3.org/2000/svg">
<path d="M8.3381 20.9101C8.30802 20.9101 8.26791 20.9301 8.23782 20.9301C6.29244 19.9701 4.70805 18.3801 3.73535 16.4401C3.73535 16.4101 3.75541 16.3701 3.75541 16.3401C4.9788 16.7001 6.2423 16.9701 7.49577 17.1801C7.71638 18.4401 7.9771 19.6901 8.3381 20.9101Z" fill="#5462CA"/>
<path d="M21.6649 16.4501C20.6721 18.4401 19.0175 20.0501 17.002 21.0201C17.383 19.7501 17.7039 18.4701 17.9145 17.1801C19.178 16.9701 20.4214 16.7001 21.6448 16.3401C21.6348 16.3801 21.6649 16.4201 21.6649 16.4501Z" fill="#5462CA"/>
<path d="M21.7451 7.70998C20.4816 7.32998 19.2081 7.01998 17.9145 6.79998C17.7039 5.50998 17.393 4.22998 17.002 2.97998C19.0777 3.96998 20.7523 5.63998 21.7451 7.70998Z" fill="#5462CA"/>
<path d="M8.33825 3.09006C7.97725 4.31006 7.71652 5.55006 7.50594 6.81006C6.21236 7.01006 4.9288 7.33006 3.65527 7.71006C4.62797 5.70006 6.24244 4.05006 8.23797 3.06006C8.26805 3.06006 8.30816 3.09006 8.33825 3.09006Z" fill="#5462CA"/>
<path d="M16.1996 6.59C13.8731 6.33 11.5266 6.33 9.2002 6.59C9.45089 5.22 9.77178 3.85 10.223 2.53C10.2431 2.45 10.2331 2.39 10.2431 2.31C11.0353 2.12 11.8475 2 12.6999 2C13.5422 2 14.3645 2.12 15.1467 2.31C15.1567 2.39 15.1567 2.45 15.1768 2.53C15.628 3.86 15.9489 5.22 16.1996 6.59Z" fill="#5462CA"/>
<path d="M7.2756 15.49C5.89177 15.24 4.52799 14.92 3.20432 14.47C3.1241 14.45 3.06393 14.46 2.98371 14.45C2.79318 13.66 2.67285 12.85 2.67285 12C2.67285 11.16 2.79318 10.34 2.98371 9.56001C3.06393 9.55001 3.1241 9.55001 3.20432 9.53001C4.53802 9.09001 5.89177 8.76001 7.2756 8.51001C7.02491 10.83 7.02491 13.17 7.2756 15.49Z" fill="#5462CA"/>
<path d="M22.7278 12C22.7278 12.85 22.6074 13.66 22.4169 14.45C22.3367 14.46 22.2765 14.45 22.1963 14.47C20.8626 14.91 19.4988 15.24 18.125 15.49C18.3857 13.17 18.3857 10.83 18.125 8.51001C19.4988 8.76001 20.8726 9.08001 22.1963 9.53001C22.2765 9.55001 22.3367 9.56001 22.4169 9.56001C22.6074 10.35 22.7278 11.16 22.7278 12Z" fill="#5462CA"/>
<path d="M16.1996 17.4099C15.9489 18.7899 15.628 20.1499 15.1768 21.4699C15.1567 21.5499 15.1567 21.6099 15.1467 21.6899C14.3645 21.8799 13.5422 21.9999 12.6999 21.9999C11.8475 21.9999 11.0353 21.8799 10.2431 21.6899C10.2331 21.6099 10.2431 21.5499 10.223 21.4699C9.78181 20.1399 9.45089 18.7899 9.2002 17.4099C10.3634 17.5399 11.5266 17.6299 12.6999 17.6299C13.8731 17.6299 15.0464 17.5399 16.1996 17.4099Z" fill="#5462CA"/>
<path d="M16.4743 15.7633C13.9663 16.0789 11.4348 16.0789 8.92678 15.7633C8.61034 13.2622 8.61034 10.7378 8.92678 8.23667C11.4348 7.92111 13.9663 7.92111 16.4743 8.23667C16.7908 10.7378 16.7908 13.2622 16.4743 15.7633Z" fill="#5462CA"/>
</svg>
