<svg width="18" height="18" viewBox="0 0 18 18" fill="none" xmlns="http://www.w3.org/2000/svg">
<path fill-rule="evenodd" clip-rule="evenodd" d="M5.60702 0.93835C6.68058 0.48424 7.83435 0.25017 9 0.25C10.7306 0.25 12.4223 0.76318 13.8612 1.72464C15.3002 2.6861 16.4217 4.05267 17.0839 5.65152C17.7462 7.25037 17.9195 9.0097 17.5819 10.707C17.2442 12.4044 16.4109 13.9635 15.1872 15.1872C13.9635 16.4109 12.4044 17.2442 10.707 17.5819C9.0097 17.9195 7.25037 17.7462 5.65152 17.0839C4.05267 16.4217 2.6861 15.3002 1.72464 13.8612C0.76318 12.4223 0.25 10.7306 0.25 9H1.5C1.49604 10.7528 2.10615 12.4517 3.22437 13.8015C4.34259 15.1514 5.89827 16.0669 7.62124 16.3891C9.3442 16.7113 11.1256 16.4199 12.6561 15.5654C14.1866 14.711 15.3694 13.3474 15.9992 11.7116C16.629 10.0758 16.6659 8.27111 16.1036 6.61091C15.5413 4.95072 14.4152 3.53991 12.921 2.62352C11.4268 1.70714 9.6588 1.34305 7.92408 1.5945C6.18936 1.84596 4.59752 2.69706 3.425 4H6.5V5.25H1.5V0.25H2.75V2.89375C3.56194 2.05739 4.53346 1.39247 5.60702 0.93835ZM8.375 9.2563L11.8687 12.75L12.75 11.8687C12.75 11.8687 10.3481 10.3065 9.625 8.7375C8.74846 6.83558 9.625 3.375 9.625 3.375H8.375V9.2563Z" fill="#A9ACB1"/>
</svg>
