<svg width="18" height="19" viewBox="0 0 18 19" fill="none" xmlns="http://www.w3.org/2000/svg">
<path d="M16.2451 8.32988L15.5101 11.4649C14.8801 14.1724 13.6351 15.2674 11.2951 15.0424C10.9201 15.0124 10.5151 14.9449 10.0801 14.8399L8.82013 14.5399C5.69263 13.7974 4.72513 12.2524 5.46013 9.11738L6.19513 5.97488C6.34513 5.33738 6.52513 4.78238 6.75013 4.32488C7.62763 2.50988 9.12013 2.02238 11.6251 2.61488L12.8776 2.90738C16.0201 3.64238 16.9801 5.19488 16.2451 8.32988Z" stroke="#3A3A3A" stroke-linecap="round" stroke-linejoin="round"/>
<path d="M11.2948 15.0425C10.8298 15.3575 10.2448 15.62 9.53227 15.8525L8.34727 16.2425C5.36977 17.2025 3.80227 16.4 2.83477 13.4225L1.87477 10.46C0.914768 7.48245 1.70977 5.90745 4.68727 4.94745L5.87227 4.55745C6.17977 4.45995 6.47227 4.37745 6.74977 4.32495C6.52477 4.78245 6.34477 5.33745 6.19477 5.97495L5.45977 9.11745C4.72477 12.2525 5.69227 13.7975 8.81977 14.54L10.0798 14.84C10.5148 14.945 10.9198 15.0125 11.2948 15.0425Z" stroke="#3A3A3A" stroke-linecap="round" stroke-linejoin="round"/>
<path d="M9.47998 6.89746L13.1175 7.81996" stroke="#3A3A3A" stroke-linecap="round" stroke-linejoin="round"/>
<path d="M8.74512 9.80005L10.9201 10.355" stroke="#3A3A3A" stroke-linecap="round" stroke-linejoin="round"/>
</svg>
