<svg width="18" height="19" viewBox="0 0 18 19" fill="none" xmlns="http://www.w3.org/2000/svg">
<path d="M1.71729 6.33498V13.6325C1.71729 15.0575 2.72979 15.6425 3.95979 14.9375L5.72229 13.9325C6.10479 13.715 6.74229 13.6925 7.13979 13.895L11.0773 15.8675C11.4748 16.0625 12.1123 16.0475 12.4948 15.83L15.7423 13.97C16.1548 13.73 16.4998 13.145 16.4998 12.665V5.36748C16.4998 3.94248 15.4873 3.35748 14.2573 4.06248L12.4948 5.06748C12.1123 5.28498 11.4748 5.30748 11.0773 5.10498L7.13979 3.13998C6.74229 2.94498 6.10479 2.95998 5.72229 3.17748L2.47479 5.03748C2.05479 5.27748 1.71729 5.86248 1.71729 6.33498Z" stroke="#3A3A3A" stroke-linecap="round" stroke-linejoin="round"/>
<path d="M6.41992 3.5V13.25" stroke="#3A3A3A" stroke-linecap="round" stroke-linejoin="round"/>
<path d="M11.7974 5.46509V15.5001" stroke="#3A3A3A" stroke-linecap="round" stroke-linejoin="round"/>
</svg>
