<svg width="18" height="19" viewBox="0 0 18 19" fill="none" xmlns="http://www.w3.org/2000/svg">
<path d="M7.3125 6.125V14.824C7.3125 14.9166 7.28964 15.0077 7.24594 15.0894C7.20225 15.171 7.13907 15.2406 7.06202 15.292L6.28913 15.8072C6.21413 15.8572 6.12821 15.8885 6.03861 15.8983C5.94901 15.9082 5.85836 15.8964 5.77428 15.8639C5.6902 15.8314 5.61517 15.7791 5.5555 15.7116C5.49583 15.644 5.45327 15.5631 5.43141 15.4756L4.5 11.75" stroke="#3A3A3A" stroke-linecap="round" stroke-linejoin="round"/>
<path d="M4.5 11.75C3.75408 11.75 3.03871 11.4537 2.51126 10.9263C1.98382 10.3988 1.6875 9.68344 1.6875 8.93752C1.6875 8.1916 1.98382 7.47623 2.51126 6.94878C3.03871 6.42133 3.75408 6.12502 4.5 6.12502H7.3125C7.3125 6.12502 11.1411 6.12502 14.8255 3.03495C14.9074 2.96598 15.0073 2.92185 15.1135 2.90774C15.2197 2.89362 15.3277 2.91012 15.4248 2.95528C15.5219 3.00045 15.6041 3.0724 15.6617 3.16269C15.7193 3.25297 15.7499 3.35783 15.75 3.46493V14.4101C15.7499 14.5172 15.7193 14.6221 15.6617 14.7124C15.6041 14.8026 15.5219 14.8746 15.4248 14.9198C15.3277 14.9649 15.2197 14.9814 15.1135 14.9673C15.0073 14.9532 14.9074 14.9091 14.8255 14.8401C11.1411 11.75 7.3125 11.75 7.3125 11.75H4.5Z" stroke="#3A3A3A" stroke-linecap="round" stroke-linejoin="round"/>
</svg>
