<svg width="18" height="19" viewBox="0 0 18 19" fill="none" xmlns="http://www.w3.org/2000/svg">
<path d="M14.25 7.25C14.25 8.3375 13.9275 9.33501 13.3725 10.1675C12.5625 11.3675 11.28 12.215 9.7875 12.4325C9.5325 12.4775 9.27 12.5 9 12.5C8.73 12.5 8.4675 12.4775 8.2125 12.4325C6.72 12.215 5.4375 11.3675 4.6275 10.1675C4.0725 9.33501 3.75 8.3375 3.75 7.25C3.75 4.3475 6.0975 2 9 2C11.9025 2 14.25 4.3475 14.25 7.25Z" stroke="#3A3A3A" stroke-linecap="round" stroke-linejoin="round"/>
<path d="M15.9373 14.3526L14.6998 14.645C14.4223 14.7125 14.2048 14.9226 14.1448 15.2001L13.8823 16.3026C13.7398 16.9026 12.9748 17.0826 12.5773 16.6101L8.99982 12.5001L5.42231 16.6175C5.02481 17.09 4.25981 16.91 4.11731 16.31L3.85481 15.2075C3.78731 14.93 3.56981 14.7125 3.29981 14.6525L2.06231 14.3601C1.49231 14.2251 1.28981 13.5125 1.70231 13.1L4.62731 10.175C5.43731 11.375 6.71982 12.2226 8.21232 12.4401C8.46732 12.4851 8.72982 12.5076 8.99982 12.5076C9.26982 12.5076 9.53232 12.4851 9.78732 12.4401C11.2798 12.2226 12.5623 11.375 13.3723 10.175L16.2973 13.1C16.7098 13.505 16.5073 14.2176 15.9373 14.3526Z" stroke="#3A3A3A" stroke-linecap="round" stroke-linejoin="round"/>
<path d="M9.43498 4.985L9.87748 5.86999C9.93748 5.98999 10.095 6.11 10.2375 6.1325L11.04 6.26749C11.55 6.34999 11.67 6.725 11.3025 7.0925L10.68 7.71499C10.575 7.81999 10.515 8.0225 10.5525 8.1725L10.7325 8.945C10.875 9.5525 10.5525 9.79249 10.0125 9.46999L9.26248 9.02749C9.12748 8.94499 8.90248 8.94499 8.76748 9.02749L8.01748 9.46999C7.47748 9.78499 7.15498 9.5525 7.29748 8.945L7.47748 8.1725C7.50748 8.03 7.45498 7.81999 7.34998 7.71499L6.72748 7.0925C6.35998 6.725 6.47998 6.35749 6.98998 6.26749L7.79248 6.1325C7.92748 6.11 8.08498 5.98999 8.14498 5.86999L8.58748 4.985C8.80498 4.505 9.19498 4.505 9.43498 4.985Z" stroke="#3A3A3A" stroke-linecap="round" stroke-linejoin="round"/>
</svg>
