<svg width="18" height="19" viewBox="0 0 18 19" fill="none" xmlns="http://www.w3.org/2000/svg">
<path d="M16.5 13.055V4.00252C16.5 3.10252 15.765 2.43502 14.8725 2.51002H14.8275C13.2525 2.64502 10.86 3.44752 9.525 4.28752L9.3975 4.37002C9.18 4.50502 8.82 4.50502 8.6025 4.37002L8.415 4.25752C7.08 3.42502 4.695 2.63002 3.12 2.50252C2.2275 2.42752 1.5 3.10252 1.5 3.99502V13.055C1.5 13.775 2.085 14.45 2.805 14.54L3.0225 14.57C4.65 14.7875 7.1625 15.6125 8.6025 16.4L8.6325 16.415C8.835 16.5275 9.1575 16.5275 9.3525 16.415C10.7925 15.62 13.3125 14.7875 14.9475 14.57L15.195 14.54C15.915 14.45 16.5 13.775 16.5 13.055Z" stroke="#3A3A3A" stroke-linecap="round" stroke-linejoin="round"/>
<path d="M9 4.61743V15.8674" stroke="#3A3A3A" stroke-linecap="round" stroke-linejoin="round"/>
<path d="M5.8125 6.86743H4.125" stroke="#3A3A3A" stroke-linecap="round" stroke-linejoin="round"/>
<path d="M6.375 9.11743H4.125" stroke="#3A3A3A" stroke-linecap="round" stroke-linejoin="round"/>
</svg>
