<svg width="411" height="475" viewBox="0 0 411 475" fill="none" xmlns="http://www.w3.org/2000/svg">
<path fill-rule="evenodd" clip-rule="evenodd" d="M410.984 441.406C390.692 441.406 389.992 455.71 377.543 455.71C365.095 455.71 364.265 435.434 336.259 439.434C308.254 439.434 305.423 445.6 291.981 445.6C275.383 445.6 269.606 436.829 256.23 436.829C239.86 436.829 233.855 450.304 215.874 450.304C197.893 450.304 176.673 443 165.591 443C142.305 443 149.221 448.533 128.457 448.533C116.692 448.533 109.141 435.157 92.0873 435.157C78.462 435.157 73.1022 439.371 73.1022 447.492C73.1022 455.612 75.7838 462.537 75.7838 466.961C75.7838 471.386 72.3931 474.774 68.8083 474.804C65.4092 474.834 61.8062 472.001 61.8062 466.961C61.8062 461.921 65.1171 453.676 64.6609 447.867C64.2047 442.058 61.5375 436.157 53.595 436.157C42.7967 436.157 40.1285 450.461 27.6799 450.461C15.2313 450.461 11.5374 439.774 0 439.774V0H411V441.406H410.984Z" fill="#1D266C"/>
</svg>
