<svg width="237" height="50" viewBox="0 0 237 50" fill="none" xmlns="http://www.w3.org/2000/svg">
<path fill-rule="evenodd" clip-rule="evenodd" d="M181.398 18.6922C179.598 21.0809 178.284 20.8538 177.375 21.7984C180.066 22.2072 183.27 19.6549 183.144 16.8302C182.919 16.3398 182.064 16.3852 181.209 15.7676C181.398 14.0328 182.973 13.5514 182.712 11.8711C181.461 12.3797 179.445 15.922 179.778 17.2662C180.03 18.2562 180.705 18.1018 181.389 18.7013" fill="white"/>
<path fill-rule="evenodd" clip-rule="evenodd" d="M201.246 35.9128C198.536 35.2497 196.682 34.4414 195.728 34.4959C193.649 34.7683 193.199 37.0481 191.659 38.0563C190.03 39.0554 186.502 38.9736 185.962 34.5867C185.601 31.9436 185.962 27.6475 186.592 25.1862C186.898 23.7965 187.924 23.3878 188.851 22.4523C194.279 17.802 209.833 9.21888 213.451 4.19618C213.856 3.65122 215.027 0.472297 214.549 0C211.39 3.94187 205.08 7.80198 199.265 11.5713C194.864 14.4232 190.498 17.2661 187.321 21.544C186.511 22.7338 185.854 24.3687 185.223 25.9218C183.954 29.2098 183.864 33.4968 183.864 37.2388C183.774 39.0644 183.774 41.0717 182.505 42.1707C181.965 42.6248 180.876 42.9881 180.066 42.6248C179.076 42.2615 178.887 41.8982 177.626 42.2615C175.007 42.8973 172.379 47.3751 172.109 49.3823C172.379 49.2915 172.469 49.2007 172.829 48.7465C173.279 48.0199 174.278 47.1934 175.268 47.0117C177.167 46.6484 177.167 48.3832 179.607 47.4659C180.876 47.0117 182.046 45.9128 182.685 45.0045C183.774 43.4514 184.134 41.9891 184.584 41.3533C184.944 41.7166 185.673 44.2779 188.203 43.633C190.282 43.088 191.551 39.9818 192.541 38.8919C193.235 38.1925 193.523 38.4196 194.468 39.0099C196.358 40.1907 198.59 40.9082 200.895 41.2988C212.938 43.3333 221.138 37.4296 231.517 32.5976C233.326 31.7711 234.046 32.1435 235.225 30.1362C235.702 29.3188 235.846 28.7193 236.134 27.8565V27.1299C234.739 27.2661 232.012 28.6739 229.302 30.2089C220.958 34.9318 210.526 38.2107 201.237 35.9309" fill="white"/>
<path fill-rule="evenodd" clip-rule="evenodd" d="M156.123 40.4268C156.033 40.4268 156.123 40.6084 155.852 40.4268C155.943 40.1543 155.943 40.4268 156.033 40.2451C157.302 39.1461 158.652 35.5948 154.313 35.3132C151.874 35.1316 148.976 36.4122 148.435 38.692C150.155 38.7828 151.604 38.9645 151.964 40.5176C151.064 41.4259 147.805 42.1616 146.176 41.0626C144.547 40.0544 144.277 37.8655 144.367 35.4041C144.367 33.0335 144.637 30.7538 144.907 28.4649C144.997 27.3659 145.177 26.276 145.267 25.0862C145.357 24.2688 145.807 22.2615 145.267 21.7983C144.997 22.4341 144.907 23.2606 144.637 23.8055C143.368 27.9109 143.548 25.6311 143.008 30.3723C142.648 33.751 142.198 37.1207 142.378 40.5903C142.558 43.5149 143.278 46.9754 146.986 46.7937C149.426 46.6121 151.964 44.1507 153.224 42.1434C156.573 43.6965 159.012 41.2351 160.011 37.6747C160.371 38.2197 160.191 38.4013 161.01 39.4095C161.37 39.8637 162 40.227 162.549 40.4086C163.45 40.5903 164.179 40.4994 164.899 40.1361C167.068 38.8555 167.338 36.3941 169.057 36.3941C170.326 36.3941 170.957 37.4931 172.676 35.2951C173.306 34.4776 174.215 32.7429 175.025 32.3705C176.564 31.553 177.644 33.7419 179.004 32.1888C179.544 31.4622 180.813 29.9091 180.363 28.4468C180.183 27.7202 179.274 26.8936 178.734 26.0762C178.464 25.8037 178.374 25.6221 178.194 25.2588C177.833 25.6221 176.744 27.4477 176.564 28.2742C175.844 28.4558 175.565 28.5467 175.115 29.2824C174.116 30.6539 173.126 33.2061 171.587 33.2969C170.777 33.2969 170.317 32.7519 169.687 32.9336C168.877 33.1152 168.598 33.6602 168.238 34.0326C167.428 34.7592 166.159 35.4949 164.53 35.2224C161.541 34.8591 161.271 31.2987 161.451 28.1925C161.541 26.6393 161.631 25.0862 161.811 23.5421C161.991 22.534 162.531 19.7093 161.991 18.9827C161.721 19.346 161.361 20.9899 161.181 21.5349C160.911 22.3523 160.551 23.1788 160.191 23.9963C159.291 26.7302 159.651 34.4867 159.192 36.6847C158.742 38.3287 157.653 40.1543 156.114 40.4268" fill="white"/>
<path fill-rule="evenodd" clip-rule="evenodd" d="M127.067 44.0417C120.289 44.0417 119.613 38.1471 121.648 33.0154C122.071 31.9073 123.511 29.4277 123.259 28.8283L123.007 29.0826C121.99 30.881 121.144 32.3251 120.298 34.2052C119.451 36.3396 118.776 38.6466 118.776 41.2079C118.776 45.2224 120.64 48.3832 124.195 48.8101C135.717 49.9182 141.297 36.7574 141.135 26.6757L141.054 23.3424C141.054 22.4068 141.306 21.7166 141.306 20.9536C140.964 21.1262 140.631 22.0617 140.46 22.4068C139.362 25.059 139.02 24.8864 139.362 28.2197C139.614 36.0853 135.555 44.0235 127.084 44.0235" fill="white"/>
<path fill-rule="evenodd" clip-rule="evenodd" d="M218.699 23.733C218.249 22.5431 217.07 22.2707 215.9 21.6349C215.27 22.1798 214.811 23.0064 214.271 23.6422C214.001 24.0055 213.731 24.2779 213.46 24.6503C213.19 25.0136 213.01 25.3769 212.65 25.7493C213.01 26.0218 214.64 26.4759 215.45 27.3933C216.989 27.3933 218.348 25.7493 218.798 24.3778C219.608 24.6503 220.697 25.386 221.148 25.8401C223.317 25.8401 226.575 21.5531 221.598 20.1816C221.238 20.5449 219.878 22.2797 219.428 22.8247C219.158 23.188 218.978 23.4605 218.708 23.733" fill="white"/>
<path fill-rule="evenodd" clip-rule="evenodd" d="M127.373 30.3086C128.183 30.581 130.271 31.9525 130.811 32.4975C130.991 32.77 130.901 32.6791 131.171 32.9516C132.26 32.6791 133.88 30.1269 133.88 29.0279C133.88 28.3013 132.791 27.4748 132.431 27.1115C131.891 26.7481 130.982 26.2032 130.262 25.9216C129.992 26.1033 127.463 29.9362 127.364 30.2995" fill="white"/>
<path fill-rule="evenodd" clip-rule="evenodd" d="M193.334 49.3734C193.964 49.1009 195.593 47.2753 195.683 46.0855C195.863 44.6232 194.144 43.4425 192.973 43.1609C192.703 43.4334 192.433 43.7967 192.163 44.169C191.713 44.8048 190.084 46.7213 189.904 47.1845C190.624 47.3661 191.263 47.7295 191.803 48.0928C192.523 48.5469 192.892 49.001 193.343 49.3734" fill="white"/>
<path fill-rule="evenodd" clip-rule="evenodd" d="M149.245 25.7311C149.425 25.9128 150.875 26.2761 151.955 27.2842C152.315 27.5567 152.315 27.7384 152.675 28.0109C153.305 27.7384 154.934 25.9128 155.024 24.7229C155.204 23.079 153.215 21.9891 152.315 21.7983L150.776 23.7148C150.506 24.0781 150.326 24.3505 150.055 24.7229C149.785 25.0862 149.605 25.3587 149.245 25.7311Z" fill="white"/>
<path fill-rule="evenodd" clip-rule="evenodd" d="M159.372 47.1843C160.092 47.366 160.731 47.7293 161.271 48.0926C161.541 48.2742 161.721 48.4559 162.081 48.6375C162.351 48.91 162.531 49.1825 162.802 49.3641C163.432 49.0917 165.061 47.266 165.151 46.0762C165.331 44.6139 163.612 43.4332 162.441 43.1516C162.171 43.4241 161.901 43.7874 161.721 44.1598L159.372 47.1752V47.1843Z" fill="white"/>
<path fill-rule="evenodd" clip-rule="evenodd" d="M215.567 19.9998C217.106 20.5448 217.196 20.7264 218.276 21.553C219.365 21.008 220.445 19.909 220.985 18.8191C221.705 16.9935 219.896 16.4485 218.726 15.9944C218.366 16.2669 217.457 17.5475 217.097 17.9108C216.827 18.2741 216.647 18.5466 216.287 18.919C216.197 19.1915 215.657 19.8273 215.567 20.018" fill="white"/>
<path fill-rule="evenodd" clip-rule="evenodd" d="M156.123 40.4268C155.943 40.4268 156.033 40.4268 156.033 40.2451C155.943 40.4268 155.943 40.1543 155.853 40.4268C156.123 40.6084 156.033 40.4268 156.123 40.4268Z" fill="white"/>
<path fill-rule="evenodd" clip-rule="evenodd" d="M161.181 12.2342C160.614 12.5158 160.524 13.6148 159.435 13.5694C157.662 13.4876 158.184 12.1888 157.986 11.9527C157.428 11.5803 157.023 12.9427 156.879 13.3877C156.618 14.1688 156.339 14.9045 156.834 15.5857C157.23 16.1307 158.049 16.3123 158.886 16.167C159.813 16.0035 160.083 15.5494 160.47 14.9681C160.686 15.1407 160.758 15.2951 161.154 15.4313C161.46 15.5403 161.847 15.5403 162.199 15.4858C163.387 15.3042 164.179 14.1598 164.431 13.0698C164.746 11.6984 163.9 10.7265 163.666 11.4895C163.612 11.6711 163.567 11.8619 163.531 12.0617C163.441 12.5158 163.351 12.7701 163.009 12.9336C162.568 13.1425 161.739 13.1152 161.424 12.6884C161.379 12.6248 161.334 12.5521 161.298 12.4613C161.28 12.4159 161.28 12.3796 161.262 12.3432C161.181 12.1707 161.235 12.2887 161.172 12.2161" fill="white"/>
<path fill-rule="evenodd" clip-rule="evenodd" d="M201.255 30.0452C201.903 30.0907 203.055 28.8009 203.307 28.483C203.73 27.9653 204.153 27.0389 204.36 26.1579C204.819 24.2142 204.117 22.5702 202.398 21.6801C202.254 21.6075 202.236 21.6529 202.2 21.444C202.353 21.2805 208.87 17.4658 209.311 17.1933C209.923 16.8209 210.436 16.4939 211.012 16.0943C212.047 15.3858 212.974 14.3777 213.559 13.2696C213.74 12.9245 213.794 12.879 213.974 12.4158C214.1 12.0979 214.298 11.7619 213.902 11.4622C213.676 11.5257 211.516 13.2151 211.147 13.4967C210.211 14.2142 209.212 14.8318 208.24 15.5039C207.187 16.2214 204.801 17.7655 203.91 18.474C203.271 18.9735 201.714 20.1452 201.237 20.6447C200.805 21.0988 200.265 22.1888 199.914 22.6974C199.761 22.9154 199.635 23.1697 199.545 23.4603C199.149 24.7773 200.868 23.969 202.074 25.2314C202.443 25.622 202.785 26.4667 202.758 27.1206C202.713 27.9926 202.245 28.8009 201.624 29.3459C201.462 29.4912 201.21 29.6819 201.21 29.9181C201.21 30.1996 201.192 29.9453 201.255 30.0452Z" fill="white"/>
<path fill-rule="evenodd" clip-rule="evenodd" d="M13.426 23.4423V23.5966L13.651 23.524C14.8482 23.3696 16.2704 23.9055 16.7925 25.0317C16.2704 25.3314 15.0732 26.385 14.6232 26.8392C14.1731 27.2933 13.129 28.5013 12.7509 29.0281C11.8508 30.5358 10.3566 32.8791 11.1037 35.2134C12.0038 38.1561 15.8833 36.8755 15.2173 39.0644C14.9202 39.8909 13.651 41.2533 12.9039 41.7801C8.1963 45.4041 1.61641 45.0226 1.84144 38.0835C1.99446 34.841 3.63268 31.8255 5.12688 29.1825C5.49594 28.4286 6.32405 27.2206 6.02701 26.167C5.35192 26.9936 2.96659 31.3714 2.58854 32.2796C1.61641 34.3959 0.572264 36.8845 0.194213 39.5185C-0.480879 43.5875 0.491253 48.4922 4.90185 48.9463C6.39606 49.1007 7.74624 48.7919 8.86239 48.1198C11.2567 46.9844 12.5259 45.4767 13.9481 43.6693C15.1453 42.0072 16.4144 39.4458 16.8645 36.9572C17.6116 32.3523 15.5233 33.0335 14.3981 32.5067C13.9481 32.2796 13.354 31.8255 13.201 31.2987C12.9039 30.0181 14.1731 29.0371 15.0732 28.3559C15.4513 27.9745 16.0454 27.6748 16.4954 27.375C17.0175 27.0753 17.5396 26.7756 18.0616 26.5485C18.3587 26.4758 19.7809 27.8292 21.7972 26.5485C22.0222 26.3214 22.1752 26.167 22.3912 25.949C22.6163 25.7946 22.8413 25.5676 22.9853 25.3496C23.5074 24.8955 23.8854 24.3687 24.6325 24.5231C25.1546 24.6775 25.6767 25.2043 26.5048 24.9772C27.846 24.6775 28.8991 22.5612 29.4932 21.3532L29.7182 20.8991C30.0153 21.2806 30.2403 22.2524 31.2124 22.8609C33.0847 24.1416 35.173 23.1607 36.4422 21.5803C37.3423 20.3723 38.2334 18.4922 39.8086 18.9372C42.5 19.6184 43.9942 14.6412 43.9222 12.752C43.1751 12.9064 43.1031 14.9409 42.2749 15.3133C41.3748 15.7674 40.5557 14.5594 38.9085 16.0671C38.1614 16.821 38.0084 17.5022 36.7392 18.1834C34.4979 19.3187 32.1036 18.6375 31.2845 16.0671C30.5373 13.9599 31.2124 8.7556 31.5095 6.33962C31.5815 6.03989 31.5815 5.65843 31.6625 5.3587C31.6625 5.2043 31.6625 4.97722 31.5905 4.83189C31.5425 4.63208 31.4675 4.50494 31.3655 4.45044C31.0684 5.50403 30.7714 6.56667 30.3933 7.46586C30.0153 8.60119 29.6462 9.27332 29.4932 10.554C29.1152 12.8156 29.2682 14.5503 29.0431 16.2124C28.9711 16.8119 29.1152 17.4931 29.0431 18.1743C28.9711 19.455 28.8181 20.5085 28.143 21.2624C27.0179 22.4704 25.8297 21.1897 25.0826 21.4895C23.5164 22.2433 22.6883 25.1861 20.519 24.959C20.744 24.5776 22.0852 23.4513 21.7161 21.7892C20.969 18.3196 13.7141 20.2088 13.417 23.4513" fill="white"/>
<path fill-rule="evenodd" clip-rule="evenodd" d="M119.559 22.0526L116.778 24.5322C115.797 25.7674 115.554 26.4304 115.221 28.247C114.726 28.4105 114.564 28.574 114.24 28.91C113.916 29.1552 113.664 29.4913 113.34 29.7365C112.844 30.3178 112.115 30.8083 111.044 30.89C105.968 31.3896 106.544 25.0226 106.868 21.5531L107.363 16.8483C107.363 16.603 107.444 16.267 107.363 16.0217C107.363 15.613 107.363 15.5222 107.12 15.3587C106.877 16.3487 106.625 17.257 106.301 18.1653C105.977 19.0735 105.481 19.9818 105.238 20.8083C104.833 22.7066 104.743 25.5949 104.662 27.584C104.581 29.8183 104.986 34.1961 102.286 34.3596C101.548 34.3596 101.224 34.0326 100.729 34.0326C99.0906 34.0326 98.9286 36.267 95.8952 36.5122C94.671 36.5939 93.7709 36.1852 93.1948 35.5222C91.7996 34.0326 91.7996 32.0526 91.8806 29.5731C92.0426 26.1035 92.6187 21.4804 93.0238 17.8474C93.1048 17.2661 93.2668 16.5213 92.8617 16.1943C92.6997 16.4395 92.2047 18.2561 92.0426 18.6739C91.7996 19.5822 91.4666 20.3269 91.1425 21.0717C90.6474 22.3978 90.4854 25.286 90.3234 26.8573C89.9994 30.3269 89.0992 37.2661 90.9805 40.1543C91.3945 40.8174 91.3045 40.6539 91.7186 41.0626C92.0426 41.3078 92.2947 41.5621 92.7807 41.6439C95.2381 42.4704 96.7143 40.4904 97.9384 38.8373C98.3435 38.2561 98.9196 37.5113 100.063 37.7656C101.206 37.9291 101.62 38.2651 102.601 37.4386C103.663 36.5303 104.563 35.1225 105.22 33.3878C105.715 34.0508 106.121 35.5313 107.678 36.0308C108.335 36.276 109.154 36.3578 109.802 36.1125C110.378 35.9491 111.116 35.4495 111.44 35.2043C111.764 34.7956 112.178 34.2143 112.502 33.7147C113.322 32.5612 114.222 31.7347 115.698 31.8165C116.598 31.8982 117.012 32.2252 117.66 32.4795C118.398 32.1525 120.279 29.7547 119.379 28.6012C119.055 28.2742 117.003 27.366 117.003 25.9582C117.003 24.4686 125.104 21.4168 126.742 20.4268C126.904 20.2633 127.066 20.1816 127.318 20.0181C128.057 19.3551 129.2 17.9564 129.443 16.9663C128.543 16.9663 126.247 18.5376 125.185 18.7829C123.871 19.0281 118.884 18.0381 121.252 14.8228C121.576 14.4141 122.395 13.8328 123.133 13.6693C125.176 13.3424 125.59 15.1589 126.49 14.7411C126.814 14.5776 126.895 14.0781 126.895 13.5876C126.733 12.1798 124.852 10.9445 123.214 11.8528C122.476 12.2615 121.99 12.6793 121.495 13.1789L120.757 14.0054C119.694 15.4132 116.256 18.8828 117.561 20.9445C117.885 21.6076 118.623 21.8528 119.523 22.098" fill="white"/>
<path fill-rule="evenodd" clip-rule="evenodd" d="M63.2389 39.5277C60.6285 39.5277 52.3294 39.6094 52.2484 35.5404C52.2484 35.1407 52.2484 34.9773 52.0144 34.7411C51.6993 35.3769 51.3843 38.4922 51.3843 39.2915C51.3843 41.762 52.4914 43.0426 54.2287 43.7602C56.2809 44.5594 58.8913 44.5594 61.2676 44.5594C67.7485 44.5594 79.6121 42.8882 84.7518 38.8919C85.697 38.1743 86.336 37.2207 86.8041 36.1035C87.3532 34.9046 87.7492 33.5513 87.8302 32.1162C87.1191 32.5976 87.5962 33.4695 85.6159 34.9046C85.3819 35.0681 85.2199 35.1407 84.9859 35.3042C84.6708 35.5404 84.1937 35.8582 83.7167 36.0217C78.3429 38.574 69.2427 39.5367 63.2389 39.5367" fill="white"/>
<path fill-rule="evenodd" clip-rule="evenodd" d="M45.4074 36.2761C45.2543 36.6575 44.9573 37.1843 44.8133 37.5567C43.4721 40.118 41.0058 45.5495 43.1661 47.9655C43.9852 48.792 45.0383 48.8737 46.0825 48.3469C46.8296 47.9654 47.5047 47.1389 47.9547 46.3124C49.0799 44.1962 48.7738 41.6349 46.4605 41.1807L45.5604 43.297C43.3191 42.9155 45.6324 37.6385 46.2355 36.5849C46.7576 35.604 47.3606 34.6957 47.8017 33.6421C48.1797 32.8883 48.9268 30.6267 48.3958 29.7911C47.9457 30.0182 47.5767 32.1253 45.7044 31.2988C42.716 30.0182 46.3795 21.4169 45.4074 20.1362C45.1823 20.436 44.8133 21.644 44.5883 22.0254C44.2912 22.7066 44.0662 23.3061 43.6881 23.9146C43.3101 24.7411 42.941 27.4569 42.716 28.5195C42.1939 31.0808 41.6719 36.1398 45.4074 36.2852" fill="white"/>
<path fill-rule="evenodd" clip-rule="evenodd" d="M116.742 40.5538V39.2277C116.598 38.7827 116.598 36.1306 114.699 35.9853C113.016 35.7673 112.584 37.384 111.999 38.5647C111.197 40.3358 110.243 41.1442 111.053 42.3976C111.927 43.5783 113.241 43.7237 114.924 43.1333C114.78 44.7591 110.837 46.9662 109.811 47.7019C109.226 48.1469 108.425 48.5829 108.281 49.4003C108.938 49.1823 109.964 48.5193 111.278 48.0743C113.034 47.4839 113.106 48.2196 114.348 46.8208C115.302 45.7854 116.031 43.7963 116.391 42.3976C116.463 41.8799 116.535 40.9262 116.76 40.5538" fill="white"/>
<path fill-rule="evenodd" clip-rule="evenodd" d="M97.6775 47.8382C98.9466 47.8382 100.369 46.2397 100.603 45.1225C101.08 43.524 99.2617 42.4885 98.0735 42.1707C97.5964 42.7247 97.2004 43.2878 96.6513 43.9236C96.4173 44.2415 96.1743 44.5594 95.9402 44.8046C95.7782 45.0408 95.4632 45.5221 95.2291 45.6856C94.9141 45.1225 94.599 44.8046 93.96 44.4867C93.5639 44.2506 92.9338 43.8509 92.3757 43.6874C92.0607 44.0871 89.3693 47.3568 89.2163 47.7565C89.7654 47.9926 90.2424 48.1561 90.7195 48.474C91.1966 48.7102 91.7457 49.0281 91.9887 49.355C92.8618 49.4368 93.6449 48.6375 94.122 48.3196C94.9141 47.5203 94.9141 47.2024 95.3101 46.4032C96.1022 46.5667 97.2904 47.4386 97.6865 47.8382" fill="white"/>
<path fill-rule="evenodd" clip-rule="evenodd" d="M42.1219 5.47681H42.0499L39.3585 8.87371C38.9084 7.96544 37.6393 7.13892 36.6671 6.91185L34.4258 9.78197C34.2008 10.009 33.7507 10.5358 33.6787 10.7629C34.0478 10.99 34.6508 11.1444 35.1009 11.4441L36.3701 12.2706C37.6393 12.1979 39.2145 10.6902 39.3585 9.48223C40.4026 9.70929 41.0777 10.3905 41.6718 10.8356C42.2659 11.0626 43.9851 9.85462 44.4352 8.3469C44.8132 7.13891 43.8411 6.31241 43.013 5.93094C42.7159 5.77653 42.3379 5.63121 42.1129 5.47681" fill="white"/>
<path fill-rule="evenodd" clip-rule="evenodd" d="M24.1195 42.2071C23.5254 41.2262 22.5533 40.6268 21.4281 40.318L19.1868 43.1881C19.0338 43.3425 18.9618 43.4878 18.8087 43.6422L18.5117 44.0237C18.4397 44.1781 18.5117 43.951 18.4397 44.1781C18.9618 44.4051 19.3398 44.5505 19.8619 44.7775C20.312 45.0046 20.834 45.377 21.0591 45.6858C21.8782 45.7585 22.5533 45.0863 23.0033 44.7049C23.8224 43.951 23.8224 43.6513 24.2005 42.8974C24.9476 43.0518 26.0727 43.8783 26.4418 44.2598C27.639 44.2598 28.9801 42.7521 29.2052 41.6985C29.6552 40.1908 27.936 39.2099 26.8108 38.9102L24.7946 41.3988C24.7226 41.5532 24.5695 41.6985 24.4975 41.8529L24.1195 42.2344V42.2071Z" fill="white"/>
<path fill-rule="evenodd" clip-rule="evenodd" d="M69.7377 30.5267C69.2606 29.573 67.9194 28.692 66.8933 28.4558L66.1012 29.4095C65.8671 29.7274 65.6241 30.127 65.3091 30.4449L63.7249 32.5158C64.2829 32.8336 64.832 32.8337 65.9392 33.6329C66.1732 33.8691 66.2542 33.9508 66.5692 34.1143C67.9104 34.0326 69.5757 32.4431 69.7287 31.1624C70.8358 31.3986 71.5469 32.1161 72.177 32.5975C73.2842 32.9971 78.1088 28.7646 72.5731 26.9299C71.862 27.7292 71.1509 28.8464 70.5208 29.6456C70.2867 29.8818 69.9717 30.3632 69.7287 30.5267" fill="white"/>
<path fill-rule="evenodd" clip-rule="evenodd" d="M29.7092 31.2352C32.4006 32.2888 32.3286 32.8973 32.9946 33.2697C34.1918 32.5158 36.3611 29.9545 34.3358 28.3651C33.8858 28.0653 33.2107 27.6112 32.6166 27.4568L30.4473 30.2452C30.2223 30.6266 29.9252 30.8446 29.7002 31.2261" fill="white"/>
<path fill-rule="evenodd" clip-rule="evenodd" d="M12.4538 16.2853C13.2009 16.5851 13.579 16.7395 14.2451 17.1118C14.4701 17.2663 14.7671 17.566 14.9922 17.7113C15.2892 17.9384 15.3702 18.1654 15.6673 18.3925C16.1893 18.1654 18.5837 15.9039 17.6835 14.2417C17.2335 13.4152 16.1173 12.6613 15.2892 12.5796C15.1362 12.8067 14.8392 13.179 14.6141 13.4879L13.1199 15.3771C12.9669 15.6041 12.5978 16.0583 12.4448 16.2853" fill="white"/>
<path fill-rule="evenodd" clip-rule="evenodd" d="M104.555 10.0725C96.1294 12.0253 86.9572 13.2968 78.532 14.5684C73.6714 15.1588 56.002 16.9117 52.8515 14.4685C52.8515 13.3968 53.1216 13.1969 53.7427 12.8064C57.9912 10.0725 59.7015 10.8536 62.0238 7.42947C62.6359 6.54845 63.734 4.88632 63.734 3.61475C62.8429 4.0053 61.6817 5.76733 60.5836 6.64835C59.4224 7.62927 58.1893 8.21056 56.8211 9.09158C54.6968 10.4631 51.3393 12.9063 50.2502 16.0307C48.945 19.0643 51.5554 20.3359 56.614 20.236C60.8626 20.236 66.8124 19.6456 72.7712 18.9644C82.1505 17.8927 96.1204 15.0589 104.951 12.4158C111.864 10.3632 109.604 8.99169 104.537 10.0725" fill="white"/>
</svg>
