<svg width="111" height="160" viewBox="0 0 111 160" fill="none" xmlns="http://www.w3.org/2000/svg">
<g clip-path="url(#clip0_2244_8487)">
<path fill-rule="evenodd" clip-rule="evenodd" d="M80.3743 35.8457C79.1532 36.1765 77.3695 35.0424 77.3695 35.0424C75.1308 34.1091 70.0549 28.3204 69.169 27.2927C68.1753 26.2531 67.1817 26.7138 66.5113 27.1627C63.6262 29.1001 59.927 32.7151 56.7545 33.9319C55.2461 34.5107 53.4025 34.7943 50.9723 32.7623C48.7336 30.8958 46.3872 28.5685 45.4773 27.6116C44.5675 26.6547 43.2865 27.3045 43.2865 27.3045C43.2865 27.3045 39.9944 29.7971 37.5522 31.8173C34.8227 34.0736 34.8466 36.3418 37.9951 39.0117C39.2761 40.0986 41.5507 42.6739 42.257 43.1346C45.6689 45.3438 47.5963 44.4341 50.7687 42.2014C52.768 40.7956 55.0306 38.8109 56.2876 37.7122C58.0235 36.2001 59.4122 36.649 60.3819 37.5705L64.979 42.0124C68.6183 45.5328 71.695 44.6704 75.6216 41.7525C78.0758 39.9214 80.8412 37.3106 80.8412 37.3106C82.4693 35.7039 80.3743 35.8457 80.3743 35.8457Z" fill="#BE9966"/>
<path fill-rule="evenodd" clip-rule="evenodd" d="M96.3326 47.352C90.4306 53.436 80.3027 62.1072 88.0962 70.6365C94.7523 77.9255 100.175 83.7732 98.9424 93.2004C98.9424 93.2004 98.8586 95.8821 96.5121 97.725C96.5121 97.725 92.2862 98.1976 90.5982 94.748C90.5982 94.748 90.9215 92.9051 89.856 92.9051C89.856 92.9051 80.7816 103.443 75.1669 101.387C69.241 99.0836 74.9754 90.1643 76.7711 85.817C76.7711 85.817 79.7161 78.4571 74.9874 76.059C69.5403 73.2946 61.7468 81.6468 58.9694 85.0963C53.9534 90.9086 50.326 94.4054 44.1248 98.9773L48.3986 103.62C50.1464 102.226 53.5583 98.4338 56.2759 95.0552C58.299 92.5389 61.3398 85.9587 65.027 88.1442C67.158 89.4083 67.5051 92.5625 67.0263 94.7244C66.0207 99.2608 55.366 112.835 67.5411 113.886C70.1389 114.11 74.0775 113.449 78.6387 109.302C78.6387 109.302 80.4703 107.601 82.1104 107.802C85.1751 113.874 100.738 104.919 107.37 93.4603C120.647 70.5066 90.7898 61.103 97.1466 49.632C98.0924 47.9309 98.3797 46.844 97.9487 46.4188C97.5178 45.9935 96.572 47.0921 96.3086 47.3638L96.3326 47.352Z" fill="#BE9966"/>
<path fill-rule="evenodd" clip-rule="evenodd" d="M45.238 133.556C44.4119 134.902 43.3944 139.841 47.5365 135.28C47.5365 135.28 54.049 128.157 56.7905 120.265C56.7905 120.265 59.2207 112.811 49.8949 104.152C49.8949 104.152 40.3296 96.2131 40.2458 90.0464C40.2458 90.0464 37.6959 77.205 45.7527 65.2615C45.7527 65.2615 53.8814 51.2388 42.6401 51.7232L13.3937 51.5342C9.69451 51.6523 9.20367 51.2034 6.62979 54.4285L0.883462 62.001C0.883462 62.001 -1.70239 65.0016 3.09819 64.3637C24.7786 61.1859 32.7158 77.2641 24.1561 89.0186C17.0211 99.6508 4.03197 106.798 3.82846 123.231C3.82846 145.854 28.7412 160.195 53.8335 159.711C96.2367 158.884 109.693 133.662 109.286 112.563C109.286 112.079 108.591 111.984 108.436 112.445C101.313 133.52 76.8428 143.29 54.6835 143.018C33.865 142.77 17.895 132.422 15.9556 117.737C14.0162 103.053 28.4659 92.7044 28.4659 92.7044C26.8617 115.375 51.0082 117.147 45.2499 133.568" fill="#BE9966"/>
<path fill-rule="evenodd" clip-rule="evenodd" d="M9.7781 74.4642C16.111 71.7116 23.6172 76.9923 18.8645 83.9269C16.7814 86.9866 14.7104 88.8295 13.3576 89.7273C12.7351 90.1526 9.22741 92.5271 10.8077 89.621C14.4709 82.9227 9.40698 81.6705 3.66065 82.0721C-4.52787 82.6392 7.79083 75.3266 9.76613 74.4642" fill="#BE9966"/>
<path fill-rule="evenodd" clip-rule="evenodd" d="M80.2065 50.4946C79.7397 54.6175 77.8721 63.9384 71.7786 60.796C71.4314 63.0524 67.0977 67.3525 61.507 65.2733C58.8254 65.4978 56.0719 67.9314 53.6417 70.4949C52.0854 72.137 52.4685 71.8889 51.2714 73.0939C50.0144 74.5942 46.782 75.9174 50.3256 72.0779C50.9002 71.4518 51.1756 71.0265 52.3967 69.4671C52.9115 68.8174 54.9466 66.3129 56.2874 64.2456C57.6282 62.19 59.9388 55.7162 63.207 57.2756C65.5295 58.386 63.3027 61.5284 66.2358 61.1504C69.1688 60.7842 68.7378 56.2596 71.5392 56.992C74.3285 57.7245 74.3764 59.6265 74.987 58.3742C75.6095 57.122 74.556 52.4202 79.153 50.8962L80.0629 50.5064L80.1946 50.4709L80.2065 50.4946Z" fill="#BE9966"/>
<path fill-rule="evenodd" clip-rule="evenodd" d="M49.0808 13.648C47.7759 16.9322 47.0935 20.4881 47.8118 23.5478C48.6737 27.1746 51.5469 29.8562 55.1623 29.998C60.8727 30.2225 62.9797 24.8709 62.8001 21.7876C62.6206 18.7042 61.3157 16.8259 60.2023 14.2978C58.6939 10.8719 57.4848 6.77256 59.5678 1.85812C59.903 1.07842 59.7713 -0.0674933 58.5502 0.877591C53.8694 4.52798 50.1343 10.6356 49.0808 13.648Z" fill="#BE9966"/>
</g>
<defs>
<clipPath id="clip0_2244_8487">
<rect width="110.852" height="159.202" fill="white" transform="translate(0.0742188 0.520996)"/>
</clipPath>
</defs>
</svg>
